<mxfile host="app.diagrams.net" modified="2023-06-08T10:11:53.030Z" agent="Mozilla/5.0 (Windows NT 10.0; Win64; x64) AppleWebKit/537.36 (KHTML, like Gecko) Chrome/114.0.0.0 Safari/537.36" etag="egmWUDGTLJYaTH5K-1JE" version="21.3.7" type="device" pages="3">
  <diagram name="Architecture" id="mcKEAAT4WczjSar3YIS0">
    <mxGraphModel dx="1195" dy="637" grid="1" gridSize="10" guides="1" tooltips="1" connect="1" arrows="1" fold="1" page="1" pageScale="1" pageWidth="850" pageHeight="1100" math="0" shadow="0">
      <root>
        <mxCell id="0" />
        <mxCell id="1" parent="0" />
        <mxCell id="bXVjA9wCsrYVd7rCYP2x-3" value="" style="shape=image;verticalLabelPosition=bottom;labelBackgroundColor=default;verticalAlign=top;aspect=fixed;imageAspect=0;image=data:image/png,iVBORw0KGgoAAAANSUhEUgAAAgAAAAIACAYAAAD0eNT6AAAABHNCSVQICAgIfAhkiAAAAAlwSFlzAAAN1wAADdcBQiibeAAAABl0RVh0U29mdHdhcmUAd3d3Lmlua3NjYXBlLm9yZ5vuPBoAACAASURBVHic7N15nBxlnT/wz/NUVd/TcyYhBJCAiCesqIjHeiyuN2aS0KwitgRZcHUlkxAQdD1WDboikKjseoOtP11tIT3BA491l/UWvF1UFJArB3MffVRX1fP8/uhJCCHHpLu6q7vr8369+jVHZur5ZjLp59NPPYfQWoOI2l8mBwFgKYA0gJ59HqmDvH+oP0sCcAAUAZQWHvW+Pwng3nwW40386xORzwQDAFH7yORgAjgOwOMBnLjf2xMAxIOr7rDmANwL4J593u55/958FpUAayOi/TAAELVYJocYap35/p38iQCOB2AGVlzzaAA78dhgsOf9Hfks+GRE1EIMAERNlMnh8QCeB+A5AJ6IWie/AoAIsq42ZAO4C8BPAfxk4fEnhgKi5mEAIPJJJocIgGcAeC5qnf7zULtnT/WZwqMDwc/zWcwGWxJR92AAIKpTJodBPLqzfyaAWKBFdTcF4E48Egg4SkDUAAYAokXK5PAEPNLZPw/AyeBQftA4SkBUJwYAooNYeIW/CsBZAJ4PYCjYimgRFIAfAbgZwLZ8FvcFXA9R22IAINpHJoejAKwGsBbAC9GdM/LD5JeohYGb81n8IehiiNoJAwCFXiaH4wCsQa3Tfy4AGWxF1CR/wiNh4I6giyEKGgMAhdLC8ry1C49nBVwOtd4DALahFgh+mM/CC7geopZjAKDQyOTwFDzS6Z8ScDnUPsYAbEctDHwvn0U14HqIWoIBgLpaJoenAXgtap3+yQGXQ+1vFsA3AHw2n8V/BV0MUTMxAFDXyeRgoXZP/59Rm71PVI8/ArgeQI5LC6kbMQBQ11iYwX/xwmN5wOVQ95gH8AUA1+ez+L+giyHyCwMAdbxMDs9D7dX+WgBWwOVQd7sNtVGBbfks3KCLIWoEAwB1pEwOcQDnotbx/03A5VD47ADwSQCfzmexM+hiiOrBAEAdJZPDSgBvAXABgIGAy+kMWkMrBShVe7vnYyEghACEAKSsvb/nreAOx4vkoLZ64Pp8Fj8IuhiiI8EAQG0vk4MA8FLUXu2/EmHdqEdraNeFcl1ox4F23Uc6dq0f6eD3/7hOQspHhwMh9n5OSAlhmhCWBWGakJYFYRhhDw6/Q+32wBfzWRSDLobocBgAqG0tzOa/EMAIgCcEXE5rKLW3g1d7Ovl93m9rQkAYRi0MLIQDuU9IEIYRdIWtMoNaELg6n8V00MUQHQwDALWdTA4Stfv7/wrghIDLaQqtFFSlAmXbtQ5+z6t6r4s3pJNybyCQkQhkLAYZjdZGFbrTNIAPA/goRwSoHTEAUFvJ5HAWgM0AnhZ0LX7SrguvUql1+pUKVJWbze0hIxHIaLQWCGIxSKvrFnLsRu13+pPcZZDaCQMAtYVMDi8A8EHUDuPpbFpDVatQlcreTr+rX9n7TEi5d3Sgy0YJ7kNtVCvHsweoHTAAUKAyOTwdwFUAXh50LfXadzh/T6cP/r/y1d5bBrEYjHi80+cT/AnAuwHk81nwF4UCwwBAgcjkcBKA9wM4B0DHTR3XngevVIJXLMIrl9nht5gRj8NIJGAkkxCmGXQ59foVgH/JZ/HNoAuhcGIAoJbK5LACwHsArAPQUc/c2vNqHf6eTp/agoxGYSSTMJLJTp0/8CMA78hn8b9BF0LhwgBALZHJYQDAlait5Y8FXM6iadeFVyzCLRahKpWgy6HDkJb1SBiIRoMu50h9G8A781n8IuhCKBwYAKipMjlEAGwC8HYA6YDLWRTtOHAXXukr2w66HKqTME0YySTMZBIy1jmZE8DXAIzks9gRdDHU3RgAqGkyOTwHwKcBPCXoWg5Hex7cuTl48/NcoteFhGHASKVgpdMQnXGbYAa10PwpThSkZmEAIN9lckihNrP/rWjzbXtVpQJndhZesciJfCFhxOMwe3thJBJBl7IYPwDwj/ks/hR0IdR9GADIV5kcXgngPwAcF3QtB6U13Pl5uDMzfLUfYsI0YabTMHt62n1ZoY3aipkP57Nwgi6GugcDAPkik8MSAFsBvC7oWg5GOw7c2Vm4c3MNHZLTVqTUQggFITwhpQshqhDCFkLYEKIEoAQhikKIWQgxB2AaQkwDmEJtFUYaWqcBpKB1SgNJaJ2E1nEAMWgd01pHoXUEQARam1prE0qZ2vPautdcNCFgplIw0+l2nzj4OwAX5rP4edCFUHdgAKCGZXJ4A4DrAAwGXcuBeKUS3NlZeKVS0KUcOSEgTbMCw5gUhvGgkPIuCPFrIeVPIMTPC+v7AzshaHjrVAxaP1srdTq0fqpW6iQotUJ73qB23bhWqq1v/xyIjEZh9vbCTCbb9WRDBeCjqO0fwPMFqCEMAFS3TA7HA/gkakf1thWtFLy5OTizs9BOe4+aCim1MM2SMIwJSHm/kPJPkPKXQogfFkYGfht0ffUa3jJ5FLR+vtb6NCj1ZK3U8Vqp5drzerXjtPVLbWEYMHt6YKbT7brR0H0A3pzP4tagC6HOxQBAR2zhtL71qN2XTAZczqNoz4M7PQ1ndrY9J/UJARmJTAnTvFMYxreFlP9ZGBn4c9Bltdrw1qmlWqlztee9QrvuqdpxlmjPa78Rg4XbA1Z/f7sGgS8C2JDPYjzoQqjzMADQEcnk8DQAnwFwetC1PIpScGZm4M7MtNX9fWEYnoxEdgjDuB2GURBS5gvr+7mj0AEMb5k8U3teRnve87XjnKAcJx50TXsJATOdhtXX144TBsdRCwFfDLoQ6iwMALQoCxv6vBvA5QDaZyG11nBnZ+FMT7fFiXvSssrCsv4iDOM2YRj/rzAy8NOga+pUC6MEr18YJThFV6tLAp9XICWs3l6Yvb3teELhrQAuzmdxf9CFUGdgAKDDyuTwONR2J3tm0LXsy52bgzM1Be0GNg8OwrKqMhK5QxjGqDCMzxfW9+8OrJgQGN4y+VLtum9V1eqLVLUa2M6SQkqYfX2wenvbbbLgJIDz8ll8K+hCqP0xANAhLazr/wKAgaBr2cMrFuFMTkIFNLlPWlZZRCI/kaa5pbBh8JZAiiAMb5k8RXveFapafamqVgeDmPMhDANWfz/Mnp52CgIawGYA78ln0T73w6jtMADQAS1M9HsfgHegTY7r9crlWscfwP78MhKZl5HIbcI0rymMDPx3ywugQxreMrlSe94VynFeo2z7qFaHAWGajwSB9vE9AOfmsxgLuhBqTwwA9BiZHJYC+BKAM4OuBQCUbcOZnGz5EbwyGp2RlvVfwjQ/VBgZuL2ljVPdhrdOLdWed7l2nLOVbR+nlWpZgJWRCKz+fhjJtlkc8xCAc/JZ/DjoQqj9MADQo2RyeB6ArwBYEXQtWik4ExNw5+Za02Btid6EjERuFYbxocLIwO9b0zA1y/DWqZT2vEu1656rKpWTWhUGjHgckSVL2mXpoAPg8nwWW4IuhNoLAwDtlclhI4B/Q22L2EB5xSKq4+MtmdkvDMOTsdht0rLWs9PvXsNbp4a0616jKpVMS5YYCoHIwADM3t6mN7VIeQBvymfRokRN7Y4BgJDJIQ3gcwDWBl2L9jxUx8drp/M1mYxGZ2Q0+jlhGO/g2vxwWXXdxMW6Wr3Cq1SOb/Z8ARmNIrJkCWQk0tR2FukuAGvzWTDoEgNA2GVyOAW1JX4nBV2LOzsLZ3KyuRv5CAEjHv+jtKx3FTYMfq15DVEnGN4y+WTlultUufx3TT3cSAhYvb2w+vvbYbVACbVthL8QdCEULAaAEMvk8EbUju4NdMc17Tiwx8agKs17ES5M0zFisW8J07ykMDJwX9Maoo40vHUqoj3vX5VtX6Rsu2lLXoVlITI0BCPeFpscfhLA+nwWrV9WQ22BASCEMjnEAHwMwIWBFqI1nJkZOFNTTdu3X0aj4zIa/bgwjPcX1vdzTTQd1vCWyZeravWDqlI5tVmTBs2eHliDg+2wm+AvAJydz+KvQRdCrccAEDKZHPoAfAfAs4KsQ9k2qmNjUNWq/xevDfP/SkYilxVGBv7L/wYoDIa3Ti3VrnutVy7/g3Zd3yfGCsOojQYEv2RwCsBZ+Sx+FHQh1FoMACGSySEF4LsAzgisCK3hTE7CmZnx/9q1jv83MhI5j7P5yS/DW6cS2nFu8Mrls5txYqGRSCAyNBT0ksFZAH+fz+LnQRZBrcUAEBKZHCzUOv8XBlWDdhzYu3c35VW/EY//RUajbyyMDHDDE2qK4a1TQ8pxvqhKpZf6fWtAGAYiS5cGPTdgGsCL81n8OsgiqHUYAEIik8M7AXwgqPa9YhHVsTHfZ/jLWOwhIxa7uDAy8A1fL0x0EMNbJh+nHOfLXqn0HL/nrlj9/bWVAsH5PYCn57MI7oQtahkGgBDI5HASgN8CiLW8ca1RnZyE6/OQv4xGJ2QstmF0wyCXMlEghrdMPlVVq//PK5dP8TMIGIkEIkuXBjlB8PJ8FlcH1Ti1DgNACJz9Wee7wrJe0up2tevCfvhhX5f3yUhkTsbj7x7dMMhtTaktDG+ZfL6y7Ru9cvlEv64pTBPRZcsgo1G/Lrl4SpWcmZlnFtb3/6H1jVMrMQB0udXXz53sTE//MbZiRUtfUXjlMqoPP+zbVr7SsioyHv/I6Mahd/lyQSKfDV83cZZn259QlcrRvlxQCEQGB2Gm075cbrGqY2OAEDeNbhw6u6UNU8sFvgiVmks7zju146A6Pt6yNp2pKdg7d/rS+QvDUGZPz/VGKpVk50/trLBh8JZbrjh6hdnbe76MRBrfy1prVMfHax1yi16oecUi3Lk5qGr1pS1pkALFEYAu95qrd495xeIQAESWLoWZSjWtLe15qI6NwSuVfLmekUj8UUYiLy2MDDzgywWJWmR465SpHSfvFovDfnTeMhJBdNkyCMvyoboD056HyoMP1oK7EIgeddSzbr44fkfTGqTAMQB0sVe99x5DSOnsWbIkpER0xQrIJjyJKNuGvXs3tNv45GFhmo6RTG4a3TD4UR9KIwrM8JbJ53rl8qiy7aFGryWkRGTJkqZtHGTv2vWo8G6m09eNbhza2JTGqC3wFkAXs/r7n7LvemWtFOyHHoJXLvvajjszg8qOHY13/kLASCZ/avb0LGXnT92gMDLw41uuXLHE7On5hJCyoTWwWinYu3fDmZz095bAwnX3H7nTnneqf41QO2IA6GIyGl2x/+e0UrB37YI7O9vw9bXrwt65E9WJiYafkGQkUjLT6dduv2zZcwrr+6cbLo6ojYxeuuSfzHT6SUY8/tdGr+VMT6OyYweU4zRcl3YcVHbsOODx20LKph2KRO2BAaC7Hfhm/MLkosqDD9Y1GqCVqj0J1fn9jyIEzFTq60Yy2T+6YfArjV2MqH0VRgbu2v725SvNdPpdwjQbGi5Tto3Kgw/CmZ6ua3MtrRSqExMoP/jgoXbm5P3hLhfo5tPUXNrzDvkyX1WrsHfuhIxGYSQSMJJJyEjkYNeCqlTglctw5+Z8GYKU0eikEY+vKYwM3NbwxYg6xOjGoQ8Mb536lLLtb3ul0t/UfaE952pMT8Ps6YGZStX+/4qD7FKsNbxyGV6xCK9YPHxw0LoJJ3VRO2EA6GLa8x5ezNcp24ay7dqxvEJAmubeg0m0UrWHD8ONewgptZFM3jB66ZI3+XZRog5SWN//MICnr7pu4gJVKl2vHKf+XTqVgjszU9ttUwjIaBTCNCGEAISA9jxox6ndMjiC4K4BfycLUdvhKoAud9bmByrKcQLYTuzAZDQ6bsTjL+Zpfc2RySEOIHWIR88+7wO120R7HuX9Pt7/MZ3Pwr8kSABqpw2qavVWr1j826Br2ZfV1/euwshAYOeHUPMxAHS5VdeM/dydm3tW0HUAgJFM/reMRF5aWN/Pg0bqkMlBADgKwAkLj5X7vb8cgNHEEhSAHQDuA/DXhbePeuSzfNVYr1XXjr/Dm59/v1Yq8LlZQkpEjzpq4KaLYlNB10LNwwDQ5VZfP7ehOjZ2bZA1CMNQRjJ55ejGoQ8HWUenyOQQA3AagGcCeDwe6eSPBxDoebGL8DAeCQS/A/BzALfns5gItKoOMbxl8tleqfQ9Va02b8euRTCSyYe3X7ZsWZA1UPMxAHS5TA5W+f77i9p1m7eF2CHISGTOSCReXBgZ+EUQ7XeChdMazwDw7IXHqQAC+fdqontQCwM/B3A7gF/mswdZpRJyw1unEsq2f+yVSoGtwzd7e68Z3TC4Kaj2qTUYAEJg1Uce/qI7P//6VrdrJBK/lNHo3xbW9/OJfkEmhwEAp6PW0Z+x8H4Y11t7qJ09fztqoeBH+SzuDLak9rLq2vEt7vz8JdhnM69WEKZZFYbRf8uVK/j/tssxAIRAJgfL3rlz0iuXWzKsKKTURip1zejGocta0V67y+RwKoDXADgLtWH9lj6hd5B7AXwdwC0AbstnEfplaMNbJl/pFos361ZN5K2dQPjObf+cvqol7VGgGABCYs2/zz+/OjHxv9rzmtr5SMuqGMnkawojA99tZjvtLJNDBMCLUevwzwJwXLAVdaQ5AN9GLQx8M59F646zbDPDW6eWqkrlZ165fHyz2zLT6TtGNw61xaRhaj4GgBAZ3jL5Pmd6umlH6hrx+F9kLPbswvr+yWa10a4yOQwCeBVqHf7LUFtuR/5QAH6CWhi4Jay3ClZdM/Yld37+dc06GlhGo7PRZcuWfe0Cs9KUBqjtMACEzKqPPPxVd34+4+tFa9v5fn700iXn+3rdNpfJIQngtQDeCOC5aO4SPHrEnwF8DsDn81nsDLqYVlp13cQbvGLxc9p1fd3ETVpWxUilziis7/+Nn9el9sYAEEKrrh1/lzc//6/ah8lF0rIqRiLxhsKGwa/5UVsnyORwGoCLAJwLvtIPkgvgGwA+A+Bb+Sy8gOtpieEtkyu9SuWHqlI52o/ryVhstxGPn1pY37/bj+tR52AACKnhLZNnepXKF1SlsrzeaxjJ5B0yEjmzsL6/8aMF21wmhx4Ar0Ot439GwOXQY+0AcAOAz+WzuCfoYlph1TVjn/SKxX+sN8gLKbWRSHxdWNYabs4VTgwAIbfquom3KNt+t7LtZYu5tyik1DIe/5m0rA2FkYGftqDEQGVyeBZqnf5r8cj2udS+NIDvozYqsC2fhR1wPU01vGXyycpxrleVygu05y1qB0EhpZax2K9kJPLawsjAn5tdI7UvBgACAAxvnVquXfdKrdRztecth+f1AwCEcCBlWZjm74VhbBNSfr6wvn8+4HKbKpODBSAL4J8B1H9aGwVtEsCnAVybz2JRB2N1quGtUynteZu05/29dt0nac/rgdZSay2ElJ4wjDlhGDuEaX5FGMY13JuDAAYAor0Wlu9dAOAKAI8LuBzyTxnApwB8OJ/FjqCLIWoXDAAUegt7718I4O0Ajgm4HGoeG7V5Ah/KZ3Ff0MUQBY0BgEJr4ejciwFcjtpJehQODoAvArgqn8Vfgi6GKCgMABQ6C+v3/wnAJgA88Sy8PABfAbA5rJsLUbgxAFBoLEzuuwS1e/xDAZdD7UMD+CqAy/JZPBB0MUStwgBAoZDJ4SUAPgbgiUHX0iza86Bdt/bwPGitAaUApfa+v/etUrVvEgJCCEDKR94XAmLhY0gJaRgQlgVhmhBGV292WAKwGcA13b58kAhgAKAul8nhOADXAlgbdC1+0I4D5Ti1t64L7TiPdPp7OvVmEgLCNCFNsxYITBPCsiAjEchIpPntt8ZfAKzPZ/HNoAshaiYGAOpKmRyiAC4DcCWARMDl1EUrBVWpQNl27VGptKaTr5OQEjIafdRDmL5uWd9qtwAYCcvOghQ+DADUdTI5vBrAFgAnBl3LkVCOA1UuQ9k2vEoF2nGCLqlhwjBqYSAWg5FIdOIoQQXA1QA+mM+iHHQxRH5iAKCukcnhRABbUTuWt/1pXevsi0W4pVJXdPiHI0wTRiJRe8TjtXkGneE+ABvzWdwcdCFEfmEAoI6XyUGgtqTv/QCiAZdzSFopqFIJ3sKjnYf0m06IR8JAItEpEwy3A7gwn8VY0IUQNYoBgDpaJodjAHwewN8FXctBaV17lT83B69SwWIOXQojGYvB7OmBmUq1+8jALgDr8lncGnQhRI1gAKCOlcnhbNT2eO8PupYDUY4Db3YW7vw8tBeKo+p9IaSEkUrB7OmBjLbtgI5GbVnp2/NZVIIuhqgeDADUcTI5pFB78j0/4FIeS2u4xSLc2VmoCvuFRslIBGZPD4yentreBO3n9wBen8/it0EXQnSkGACoo2RyOAO1fdzbaoa/dl04MzPw5ubCfV+/WYSAmUzC7Otrx5UENmq7S27NZ8EnVOoYDADUETI5GADeCeBdANpmcbl2XTjT03Dn5nhvv0WMZBJWX1873h74DoDz81nsDLoQosVgAKC2tzDR7ysAnht0LXtox6l1/PPz7PgDYiQSsPr72y0ITAB4Yz6LbwRdCNHhMABQW8vksBLA9wEcH3ApAGoT+9ypqVrHT23BiMdrQSAWC7qUPVwA2XwWXw66EKJD6eoAMLz6/HWu41wlhJgxTev127bd8Iuga6LFy+TwBAD/BeCYoGvRrgtncrIzO/7aIT8aQihI6QkhHAjhAFDQ2oTWlgYMaC2htdRaCyjV1uvwDsSIx2ENDrbLHAEF4IJ8Fp8PupBOt2r4jUuVp76rtTrKsqyPbtt24+aga+oWXRsAVq9ZJyvlsqOUkgAgpeHGYrEXb9t2ww+Dro0OL5NDHMBvAJwUaCFaw5mZgTM9XTtZr50IAWEYjjCMOWEYuyHlX4WUf4IQvxRC3AvgYQjxcGF9/3Q9lx/eOpWC1su01qdB66dDqSdqpVZqpY6C5/Vqz4vpNgwKZm8vrP7+dlg1oAC8IJ/Fj4IupJOdddZ5P6tWq6fv+TgeT9xYKNy4LsiaukX3BoDV684olYo/2fdzUko3FoszBHSATA7XANgYZA1euQxnfByqDbboFZZVlab5gDCMX8AwfiqEuB1C/Lywvr8aZF3DWyZXaq2fA6Veoj3v2dp1j1eOkwh6XoQwDFgDAzB7egKtA8BdAE7lXgH1e9Wrzp1yXbdv388xBPijmwPA80ul4g/2/zxDQPvL5HA6gJ8ACOQlnHZdVCcm4BWLQTQPYRhKWNaYMIz/E4bxPSHllwojA/cFUkwdhrdOpbVSa6HUy7TrPkO57rHacQKZqSejUUSGhoKeKHh1PovLgyygk73yVedOe67bu//nGQIaF7oAADAEtLvVH5/9qZlOP7vlDWsNZ3q6Ntzfyv8XQkBGow9Ly/qOMIxPF0YG/rd1jbfG8Nap5drzNmrHGVbV6gna81oa7syeHlgDA4GcN+DNz1eV655QuKTvoZY33gUOFgAAhoBGhTIAAAwB7WrtpyrHVHbufCC6ZAmMVKpl7SrHQXX3bqhqa0bUhWEoGYncLSzrJmEY1xXW9z/ckobbwPDWKVMrtU677vm6Wj1NOU5Lpu8Lw0Bk6dLaKYQtol0XlQcfhJlOf7YwMnBhyxruIocKAABDQCPaZkOVVlNKmZVK+b9Xr17HENBGvErlPdAa1fFxxGIxCLP5v6Lu7CyqExNNf9UvTNOR0egvhWneKKT8TGF9v9vUBtvUwt/70wsPDG+ZfK523RHlOC9Rtt20cx2058HeuRNWby+sgYGWHDhUHRurnQDpOGsAMAA0QblcOn94+HwwBBy50I4A7CGl4cbisVO33XzDna2oiw7tNVfvvtsrFk8AaqfDxY4+umltac9DdWwMXqnUtDYgBIxY7B4RiWwZ3TD4seY11B2Gt0y+UDnOVapSebb2vKaN18tIBJFlyyAtq1lN1G4nTU4CqB1wFD3qqMGbLopNNq3BLnW4EYA94onExwrbbrykFTV1i8DXyQRNKc+s2vZPVq9Zlwi6FgKUbR+79/1KpfbKvAm8UgmVBx9sWucvLatsplJ5q7f3+O1vX34iO//FKYwM3Lb9smXPM9PphJlOv0/GYrua8UpdVauoPPgg3NlZ368N1H6/nKmpvR9rpeDOz5/TlMYIAFApl9+2Zs0Frw+6jk4S2lsA+3JdNy2lcTuApwRdS5hlcjCh1KNekrkzM9COg+iyZf4M2WqN6sREc574pdRGLPZHYVn/NrphkBvANGBheeN7ALxneMvkKcp1P6QqlZdo1/XvJfvCrSavVEJkyRLfJgi6MzMHDK5CSj6/NJHWGpVK+fNrz37Tr2762mc5orsIoR8B2KNatZ+8atUbvxR0HSEXOVAn75VKqDz0ELxyuaGLe+Uyyk141Sek1EYq9V2rt/eY7Zcf9WR2/v4qjAz8dvumpa80e3oSZjp9nbQsX9fU7xkNcufmGrqO9jxUH3744KNWQrTNXsXdyvM8w65UfnLOORdxRHcRGAD2UamUXze8+vy3Bl1HiB20h1fVKuydO2Hv2lULAkcwd0VVKrAffhj2zp3QPm7qIwxDmanUt8ze3uXbNy19aWF9/w7fLk6PUVjf745uHNpopFJJM53+kIxEfLt/s2c+iL1z5xEHTe04cKamUL7//kNvFa11YwmWFsVxnHSlUrk96Do6QegnAe5PSqlisfhzt2274WfNqIsO7dXvv09pzzv8WH9tch1kLAYjHoeMRqE9D9p1975VrgtVKvm+k58wDGXE498QlvWmwvr+MV8vTkdk1bXj71WVyiZVrSb9vK4wTZjJJIRlQRgGhGnufasdB16lAlUuw6tUoN3FLeaw+vr+rTAycIWfdYbBYicB7i8eT/y/QuHG85pRU7fgHID9KKWkXbW/v3rNumO33XwDZ+y2mpQOPO/wp7loDa9crm3Xu89kq2YShqGMRGJUWNabCpf0taZROqTRjUPvBfDeVdeOX6kqlStVterL3r/adeHMzPhxqX3d7fcF6eAqlfLrV69Z9+NtN9/w70HX0q669haAFYlMyjoPA/FcN+E67m0+l0SLICORPwRdw2MIASOZ/InZ27t89NIla9j5t5/RjUMfvOUdx6TNnp6PC8Pwgq5nf8IwtIzHvxB0fZ9svgAAIABJREFUHZ3INIy6JmdorVEpVz529tkXHud3Td2iawNAJBIppXrSdX9/tWo/lfMBWs+IxW4KuoZ9yVhszOrtfen2y5Y9t3BJX2h26+tUo5cueZuZTq8wksmft2Kjn8WSsdiOmy+O80CgOqR60nfV+2JOKU9Wq/Z3fS6pa3RtAACAaDSKaKz+ibdV27529Zp1fYf/SvKL0dPz78IwAp+YIkzTNdPpzbdccfTSwsgAn0A6SGF9/+7tly17ttXb+yoZjTZnI4kjJKPRW4KuoVNJKZ2eBl7M2bb9hNWr113mY0ldo6sDAACkUj2o+1aA50U81/2mzyXRIXztfDkho9HfBFaAEDBSqe+b6fTQ6MahfwmsDmpYYWTgm7dcuWLITKevFqYZ2LbLQkotDOPKoNrvBpFoFLEGXszZduWqtWdfOORjSV2h6wOAlBKpBs4Et237OcOrz/8HH0uiw5CW9cYgRgFkNDpp9fY+b/umpWcWLunzfQYYBWN049DlZk/PMiOZDGRpmJFM3rLtrT3TQbTdTVI96UZezJlOtfptn0vqeF0fAAAgGo0h2sB54NVq9XOr16zjJh4tUtgw+FuztzfXsgaFgJlKfd1IJJYURgZ+3LJ2qWUK6/snt1+27HQznd7UykmCRjxejCxZwqVoPhBCoLFbAZXTVq9Zd4GPJXW8UAQAAEimeiDqnBTkuW7C87ybfS6JDqFwSd/5RjJ5T7PbEZZVNdPpc0c3LT2rsL5fNbs9CtboxqFrzJ6ek2Qs9mCz2xKGoY2enlfks2hsi0HaKxKNIhI5/Crhg7Er9r+vPftNrTtnvM2FJgAYhoF4vP7dIau2/YrVq9ed4WNJdBhGInGGsCy7ide/00ylVoxuGPxys9qg9lMYGbj3liuOPtbs6fkspGzarSYjldq87S2pI96MjA4tmar/lq7nuVHXcdpqpVGQQhMAACCRTNZ9D0lrDdd1bvS3IjqUbW/tGTOTydNkJOLr5v1CSmWm05u3X37UUwrr+8f9vDZ1jtFLl1xopdNnykjkEPv31kEImOn01tENg+/y9boEADBNE7FYvO7vt6vVv1+79k3cGwAhCwBCCCSS9e8YWq1WT169et2LfSyJDqMwMnCnkUyuMBKJu/y4nozFdpnp9DM4w58AoDAy8N9GMrnESCa/78e+AcIwPDOdzo5uHBrxoTw6iGQqVfctXa2UcFyHmzIhZAEAAOLxBAyj/h2QXdf5tI/l0CIU1vfPb7/8qJPN3t4N0rLqOlBl4Yn532654ujlhZGBX/tdI3Wuwvr+yvbLlp1p9fa+Qkaj9c3Wr+0W+VMznV4xumGQnUuTSSkRTzR0S/dv1579phN9LKkjhS4AALX0WK9qtXri6tXrXuljObRIoxsGtxipVNpMp99pJJM/lZHI/CFftQkBGY2Om+n01WY6nR7dOMSDWOigCiMDt95y5Yp+s7f3zUY8fvfhRgSElFrGYrvMVKpg9fY+b/tly55TWN+/u0Xlhl4ikYQQdd/SFY7DUYCuPQ3wvDe87XgA9x7szycnxuF59a0GsiKR+79+yxcfV2dp5KPhrVPLteddqD3vRUKIcUh5N4S4UwjxawhxJ2f2U72Gt07FoPWpWutToPWToNRKrfUxQoiHYBhfEVLmC+v7A9tgKCzOe8PbbgXwsgP9WbE4j1KxWNd1hRBIplJPuulrn/1jI/V1stAGgEq5jLm5+ueWxROJtYVtN3JpIBFREx0qACilMDkxjnr7sWgsdsf20dyzGqmvk4XyFgAARGOxulcEAIDruB/zsRwiIjpCUspGz3t55tqz33SKjyV1lNAGACFEQ/sCOE71aK4IICIKViJR/8ourTVcx/24j+V0lNAGAACIJ+J1LyUBAM9z3+9jOUREdIQMw2hoq3fHqT73vDe8rf6lYR0s1AFAiMaGjxzHOWP1mnWh/MWhzpfJwQi6BiI/NDKa63meUSzOh/K44NB3XrFYHJVyXUvLoZQytNJXAPiAv1URHblMDjEApwA4DsAAgMGFtwd7P5LJoQhgBsD0fo/9P/cXAL/MZ8FT7ajtWJEIDMOoe2WX67j/BOCD/lbV/kIfACzLauwXx3MvBgMAtVgmBxPAUwE8C8AzF94+FYB1hJdKLjyOXsTX6kwOdwO4A8AvFt7+Mp+Fr1s1E9UjGovVvSTQcarHnp258MSv5T9zt89ltbXQBwCgNgpQLNa3HbjjOMesXrPupG033/Bnn8si2iuTw+MAvAC1jv5ZAP4GQKuPqBYAHr/weO3C53Qmhz+jFgbuAPA/+Sx+1eK6iBBrIAAsTAb8EICMv1W1NwYA1JJjvQEAWkN53lUI2S8ONV8mh2UAzgHwOgBnoNYBtxsB4AkLj3MBIJPDXQD+E8B/5rP4Q4C1UYgYhgnTsuA6Tl3f7zhO6HZ4ZQBAbRapZVlw6v7FcV/lc0kUUpkc+gCsQa3TfzHQkRP1ngDg3QDencnht3gkDBx0Yy4iP8RiMczX+Tzuuk5izdoLzrn5ps991eey2hYDwIJoLFZ3APA8N7569bqXb9t2w60+l0UhkMkhAeAs1Dr9lwOof01T+zll4XFVJoefoxYGvprP4qFgy6JuFI3GMD83V/f3e667AQADQNhEIlEA9f/iKOVdAIABgBYtk8MggE0A3gqgJ+ByWuH0hcdHMjnkAbwvn8WdAddEXURK2dBtANf1QrUrYKj3AdiXYRgwjPpHWz3P+1sfy6EulslhMJPDVQD+CuAKhKPz35cE8A8AfpfJ4SuZHJ4SdEHUPSKRSN3f67pO4uzMhSf5WE5bYwDYR20UoD6u6y4bHj6/m4ZuyWeZHAYyOWxG7ZCqKwHUfy51d5CoTXL8XSaHr2ZyeGrQBVHna+R5HABc132zT6W0PQaAfTSSHLXWAkDWv2qoWyx0/B9A7RX/OxC+V/yHI1BbRfNbBgFqlGVZDR30pjzvFT6W09YYAPZhRSJAA2cDKOW99vBfRWGRycHK5PBe1Dr+d4Id/+HsGwTymRyODbog6kxWQ7cBXN4CCCMhBCzzSDdSe4Tnec/wsRzqYJkcjgfwAwDvATv+IyUAnA3gV5kcXh10MdR5GhnN9TzPXLP2ghf5VkwbYwDYj2XVHwBc1+1dNfzGZT6WQx0ok8NZAH4F4NlB19LhBgFsz+RwdSbH5ypaPLOBF3IA4HnehT6V0tb4n2o/ptngykiNf/SnEupEmRxeAOAmAH1B19IlBGpLJa8KuhDqHKZpNnTUuwrJqi4GgP2YDYwAAIDWmq/6QiqTw0rUOv/GfonoQN6eyeENQRdBnaORF3OeUqEYyWUA2I9hGA0lR63VE3wshzpEJgcLwHYAQ0HX0sU+ncnh1KCLoM7QyG0A5XnRc/7hoq5f1s0AcACNjAIopZb7WAp1jvMBLl9rsiiAzUEXQZ2hkRGAhdMBX+hjOW2JAeAAGlwJEPbNXULn1R97IK7syr8GXcfhaKWgHAfKtuGVS/CKRXilMpRtQzsOtOdBax10mYeklXrV8Japc4Oug9pfo7dzlVYv8qeS9sWzAA6gkS2BtdZiePX5Typsu5HHoIaEpVLvqz48tjy6YgVEAxuQ+EIDynWgbRtexYaq2tBOFVopYJF9u5ASwrJgRKMQ0ShkNAppRdriMGJnbAxaiPcD+FLQtVB7a+R5HAC0Uqf5VErbYgA4ANngLw40zgR4DnpYKMdZrRwHzuQEIkNLWt6+9jx48/NwSyUo2waUaux6SkHbdu1aewgBGY3CiCdgpJKQDb66qoc3Nwe3WIQwzZWZHKL5LOzDfxeFlRACQspa+K2DUvrxPpfUdngL4AAaTo5acSVASGRykJ5trwQAd3YOXrHYkna158GdnYW9cwfK992H6sQEVLnccOd/8AY1VKUCZ2oSlQceQOWhh+BMT0O7bnPa2795x4U9MVF733WFMznJbbfpsIxGtgRW3lE+ltKWGAAOoJF9pAFAaf1kn0qhNudMT5+lHWfvL4w9Pg5tV5vWnlepwN61C+X770d1fBxeudK0tg5F2TacyUmUH7gflR07asGnSdMHtFKwx3Y/Ktwox3l9c1qjbtLgCa+J897wtja48dU8vAVwAEIISCmh6nw1pZUOxRpSAoRWjz4/3PNQ3vEQrIEBWOle3+6be5UK3KkpeOWyPxf0iwZUpQK7UoGMRGD198NIJH37e6tyGfbY2IFGGo72pwXqZo3cztVai0qlfByA+/yrqL0wAByENIz6AwB0zOdyqH099hlGazgLQ/KRJUsgGnkV0q4d/wGoahX27t2+BAGtNdypKTjT0wf7kgYn6lAYGLLRiYB6ORgAwseQEnXf3dS66zeQoAVCHPT/kFcqofLQg7D6BmAkE4sPAp4Hd34e7vz8oyfidYi9QcCyYPT0wOzpWfzfXWt4lQqcycnD/d15+5IOq9HbuVp392guA8DBNLQboOZWsGGhtXfIP3Y9VMfHgHFAxhZm0ScSkJFIbc291oDS0FpDOw7c+Tl4pVLt8x1OOQ7U5CScqUkY8QTMnh7IaLT2f0uI2o6bQtRWMZRK8EolqHK57lnbRPtrZFdXANDQS30qpS0xABxEY9sBa/5cQ0K53u8X/bUVG6piw5maamZJ7Udjbwf/GOKRrzmya+qdjZZF3a/RAACNAX8qaU8cRjsI0cAsJq01f64hcYy5ZJswjM5/uR4UjbpWDwgr8i3fa6Hu0/gIwKBPlbQldlQH0eAIgFi9Zh1/tiFw/Xq4Riy2O+g6QkVKGL2JXNBlUPvjCMChsZM6iIZ/cYDWbwlHwbAiXwu6hDAxYrHdN18Q69qZ2eSfxp/HdZ8vhbQpBoCDaTw5cp1ySDjAvwgpeBugRYQ0bgy6BuoMjT+NI+1PJe2Jk9UOwod9TJKNX4I6wTdH+mdWfcT5jjs//7Kga3kUISAtqygMYzeknBUCU1rIcSHwMIBdWshJATUAhaWAHoTGgIbug9Jp7XlHa9fp1Z5qq53QRCRSLjn3v4sDbLQ4DSeAiD91tCcGACI/JJaeI113p6pUEoG0LwBpRcrCNO4ThnGHlPJbc8Vq4XvvOPoAU+8XJ5ODrE5MvgTKe7X2vOdoz3u8qlb7glqiKKSE2dv7lq+/9RgnkAKIugwDAJEPRt+C2eGPpl+hHed/tOe17FWztKyyjEa+D9P819GRwdv9vHY+CwUMfAfAd/Z8btXWiRXa9d6tHXe1su0lrQwDZk/PzYW39tzYsgaJuhwDAJFPCpek/nfVdfaH3ZmZtzezHWEarozGfyoN60OFjf3faGZb+xtdP/gQgIsBXLz2mrGTXK3fo5zqq5RdbepkKSMe22ENDp7dzDaIwoYBgMhHoxsGr3jNtdr05uc3Qvl7/1xYZlXGEp+NTQ2NfPVf0LwjBxfppkuX/BnAeQCw6rqJN2jbvtqrVHzfOlUm4ncZ0dTz8tlmnTdIFE5cBUDks+0bhzYZqZ7nyGhkxo/rCcu0zZ6ejz8udVxy+6VDb/nqB4Lv/Pc3umHwC9uvOPqoSG/69TIW2+XHNYUhtZFOX3PL5ctP3ra+Z9yPaxLRIxgAiJpg+8bBnx2XOGbISCX/q961SDIanbXSPR97XOq41OilS952/fr6z6dqlW0bhr50yxVHLzfT6XNlPH5//X/3yIxM9jxn+8ahTT6XSEQLeAuAqElqHfaylwxvGX+hdtUG5TgvPOwsesPwjFjsdmFZ7xkdGfjOwb+wvY1uHPoygC8PXzO9UmvnQ17VfrWuVg+5QkKYpisjkT8Iy/ryMXLw6k4IPESdjAGAqMkKI0O3AbgNAIavmV6phXOpdr3TIaQNgbIQKEKjKIRxZ2Rq8CNffVf7DfHXq3Bp370A/gEAXrNl8mzhehlAJQEktEYcGnFIjBvS+uS2jQP5YKslChcGAKIWWugQ/znoOoKwfWTgawC4bTJRm+AcACIiohBiACAiIgohBgAiIqIQYgAgIiIKIQYAIiKiEGIAICIiCiEGACIiohBiACAiIgohBgAiIqIQYgAgIiIKIQYAIiKiEGIAICIiCiEGACIiohBiACAiIgohBgAiIqIQYgAgIiIKIQYAIiKiEGIAICIiCiEGACIiohBiACAiIgohBgAiIqIQMoMugIhaI5ODBPB0ACcAOAbAMgDTAHYCeBDAT/NZFIOrkIhaiQGAqMtlcngxgNcBeA1qnf7BVDI5fA/ATQC+lM+i2or6iCgYDABEXSqTwzMA/BuAMxf5LTEAr154vDuTw7tQCwK6SSUSUYA4B4Coy2RyEJkcNgO4HYvv/Pe3EsAXAfxPJoelvhVHRG2DAYCoi2RySAEoAHgHAOHDJV8A4PZMDqf5cC0iaiMMAERdIpODCWAUtXv9fjoOwPczOZzs83WJKEAMAETd43oAf9eka/cCuCWTQ1+Trk9ELcYAQNQFMjlkAVzU5GZOAvCZJrdBRC3CAEDU4TI5xAFc1aLm1mZyeH6L2iKiJmIAIOpw7vz8tQBWtLA9jgIQdQEGAKIOlslBuFNTF3rF1mzgp6pVVMfGTh7+6PRwSxokoqZhACDqYO7kxHnKcczq+Di05zW3MQ1Ux8YAraGr1Q3NbYyImo0BgKiDuY77ZgDQnofq+Hhz25qZhrJtAICq2qc3tTEiajoGAKIOJjx14p73vWIR1fExaO3/zr3uzAyqU5N7P9aOG3vJ+2D53hARtQwDAFEH08rr2fdjd3YO9q5d0J7yqQHAGR9HdWIC+54IoLVGqm/mFH8aIaIgMAAQdTCtvNj+n1PlMuwdD0FVGzvMT7su7N274MzOHvjPPY/bAxN1MJ4GSNTJlD7gfv/KcVB56EEY8QSsvl7IWHzxl6xW4c7MwJufP/TtBK2MI66XiNoGAwBRBxOmYeuqeswoAABAA16pBK9UgoxGYaRSkJYFYVkQpgkhBKBrr/S148BzqlDlMrxyCYs5AFjCuNPnvw4RtRADAFEHE8KYA5wDB4B9KNveO4O/9o2ANEwo5QGqvkmDVUP8tq5vJKK2wDkARB1MmPK+ur5RA8p16+78hWk631jfN13XNxNRW2AAIOpkRuQLQTQrI1EO/xN1OAYAog4WnRz4hJDS/4X/hyFM88utbpOI/MUAQNTBvvoBVGU89qtWtiks03GNua2tbJOI/McAQNThLGm8Fi0cBTBjiY9/Y/3xlVa1R0TNwQBA1OFuunTJn81E8hutaEtGIvOFS4c2tqItImouBgCiLhCdXrJWxqJNPQ1IGIYyYomXNbMNImodBgCiLvDVD6AaiSefKS2zsf1/D0YIyFTqbYWNAz9uyvWJqOUYAIi6xE3r++4TyZ4zhWX5en9eSKmtVPqd2zcM/ruf1yWiYDEAEHWR7SP9P9Sp6PEyFtvhx/WEaVZlKv3KwqWDV/lxPSJqHwwARF3mG+uX7r7nZ0cfa6V7PiYs06nnGkIKmKnkf1s9/Su2bxy41e8aiSh4PAuAqAv93zYoYMklL/3g7ivjqfinlWO/UlWdXhzqdD8AwjKrMhL9JYzoP41u7Pt1i8ologAwABB1se9cuawI4FwAWPvR6ZWO675NeOqJGno5lBqAQElIuVML+VdhGP85OjLwnYBLJqIWYQAgCombLum7FwDX8BMRAM4BICIiCiUGACIiohBiACAiIgohBgAiIqIQYgAgIiIKIQYAIiKiEGIAICIiCiEGACIiohBiACAiIgohBgAiIqIQYgAgIiIKIQYAIiKiEGIAICIiCiEGACIiohBiACAiIgohBgAiIqIQYgAgIiIKIQYAIiKiEGIAICIiCiEGACIiohBiACAiIgohBgAiIqIQYgAgIiIKIQYAIiKiEGIAICIiCiEGACIiohBiACAiIgohBgAiIqIQYgAgIiIKIQYAIiKiEGIAICIiCiEGACIiohBiACAiIgohBgAiIqIQYgAgIiIKIQYAIiKiEGIAICIiCiEGACIiohBiACAiIgohBgAiIqIQYgAgIiIKIQYAIiKiEGIAICIiCiEGACIiohBiACAiIgohBgAiIqIQYgAgIiIKIQYAIiKiEGIAICIiCiEGACIiohBiACAiIgohBgAiIqIQYgAgIiIKIQYAIiKiEGIAICIiCiEGACIiohBiACAiIgohBgAiIqIQYgAgIiIKIQYAIiKiEGIAICIiCiEGACIiohBiACAiIgohBgAiIqIQYgAgIiIKIQYAIiKiEGIAICIiCiEGACIiohBiACAiIgohBgAiIqIQYgAgIiIKIQYAIiKiEGIAICIiCiEGACIiohBiACAiIgohBgAiIqIQYgAgIiIKIQYAIiKiEGIAICIiCiEGACIiohBiACAiIgohBgAiIqIQYgAgIiIKIQYAIiKiEGIAICIiCiEGACIiohBiACAiIgohBgAiIqIQYgAgIiIKIQYAIiKiEGIAICIiCiEGACIiohBiACAiIgohBgAiIqIQYgAgIiIKIQYAIiKiEGIAICIiCiEGACIiohBiACAiIgohBgAiIqIQYgAgIiIKIQYAIiKiEGIAICIiCiEGACIiohBiACAiIgohBgAiIqIQYgAgIiIKIQYAIiKiEGIAICIiCiEGACIiohBiACAiIgohBgAiIqIQYgAgIiIKIQYAIiKiEGIAICIiCiEGACIiohBiACAiIgohBgAiIqIQYgAgIiIKIQYAIiKiEGIAICIiCiEGACIiohBiACAiIgohBgAiIqIQYgAgIiIKIQYAIiKiEGIAICIiCiEGACIiohBiACAiIgohBgAiIqIQYgAgIiIKIQYAIiKiEGIAICIiCiEGACIiohBiACAiIgohBgAiIqIQYgAgIiIKIQYAIiKiEGIAICIiCiEGACIiohBiACAiIgohBgAiIqIQYgAgIiIKIQYAIiKiEGIAICIiCiGhtfbtYhs2bU4COBrAcgAJ3y5cB6daXVYqFm+s9/tt20alUqq7/YHBJZtSPT3/V/cFqCtYTz1qhbGsZ3nQdXQa7WnX/p+//DroOih4szPTH9BKP2Pfz2mtsZi+S0OjXCrW3bZlRf6aSCY/W/cF/OEA4h4h8DtA3PWpT3xQ+XXhhgLAhk2bTwIwDOA1AE4BkPapLqKuEP3bExA5/bigy+g42nYx//EfBl0GtTmlFFzHgW3bqNoVKOVb39i2DMNwDNP8k2EYX5LS+Ogn/+OquhPOEQeADZs2SwBZAJcBeHK9DROFAQNAfRgAqB6OU0Vpvohq1Q66lJYQQmgrEvmjaVrnfuoTHzziEbMjCgAbNm1+OYAPA3jakTZEFEYMAPVhAKBGVKtVFOfm4LpO0KW0hBACkWj0B6ZpnvPJ//jgrkV/32ICwIZNmxMAbgBwTgM1EoUOA0B9GADID6XiPIrz80GX0TJSSi8ai1/06U9+6HOL+vrDfcGGTZuPA/AjsPMnIqIOkkimkO7rhxAi6FJaQillVMqlz1540eWfWMzXHzIAbNi0+ekAbgfwN34UR0RE1ErRaBR9A4OQMhyr3rXWqJTLF7/pHy/7weG+9qA/kQ2bNi8HcAuApX4WR0RE1EqmaYZqJAAA7Erl+RdedHnuUF9zwACwYdPmGIACgBXNKIyIiKiVLMtCKh2uleqVcvkN/3jx2y852J8fbATg4wBOb05JRERErReLxRFPBLpHXctVKpUtF735iqce6M8eEwA2bNp8KoALml4VERFRiyWTKQgRjvkAAKCVEq7rfvlAf3agn8KHAITnRgkREYWGkBKJZDLoMlqqattPvejNV5y5/+cfFQA2bNr8IgAvb1VRRERErRZPJEKzKmAPx3EeszfA/j+BC1tUCxERUSCEEIjF4kGX0VJOtXrcRW++cuW+n9sbADZs2mwCeFXLqyIiImqxSCwadAktp5R32b4f7zsC8EIAfa0th4iIqPUsKxK62wCe552178f7/u1f2eJaiIiIAhOJhGsUwHWcFRe9+Upzz8f7BoATA6iHiIgoEIZpBF1CS2mtBaCfvOfjfQPA0QHUQ0REFIiw3QIAAK2xd1MgBgAiIgolKcM1AgAA0PrkPe/uGwCWBVAKUXfzVNAVdCb+3KgFQjkCAP24Pe/v+7c3D/C1RNQAb6wYdAkdSY3z50YtEM49byN73glf/CFqIW/XbNAldCRv93zQJRB1PQYAoibSczZ0qRp0GR3H2z0XdAlEXY8BgKjJqnc8EHQJHUVNleDePR50GURdjwGAqMmqdzwIbydvBSyK1qjc+kfA5SRAomZjACBqtoVOTVe9oCtpe9Wf3Q9vB8MSUSswABC1gJosofT52+HdPxV0KW1JV1xUvvkH2D+6N+hSiEKDS/+IWkTNVlDK/wbWqUcjcsrRkENJQIZzHdIeet6G+8A07Nvuhi5ysiRRKzEAELWY85sdcH6zAzAkjKEk5EAidEFAl6rwds9zhQRRgBgAiILiKXi757jkjYgCwTkAREREIcQAQEREFEIMAERERCHEAEBERBRCDABEREQhxABAREQUQgwAREREIcQAQEREFEIMAERERCHEAEBERBRCDABEREQhxABAREQUQgwAREREIcQAQEREFEIMAERERCHEAEBERBRCDABEREQhxABAREQUQgwAREREIcQAQEREFEIMAERERCHEAEBERBRCDABEREQhxABAREQUQgwAREREIcQAQEREFEIMAERERCHEAEBERBRCDABEREQhxABAREQUQgwAREREIcQAQEREFEIMAERERCHEAEBERBRCDABEREQhZAZdQDNEDYUVaRe2K7CraMJTomVtC6kR73VhWBqlKQue07q2iYioRggT8dhSCC1QtndDabel7UesFFKp5ajYMyiVxgDolra/GF0TAKQAzlw5h2ceXcaSuAchaj9sVwnsnDPx3Xt78LuHY01rv//YClY8rYh4vwtp1NrWWsCelxi/J44dv01Bt9+/f0eoVMqYnBhHqTiH4vw8HMcJuiSiR5FSIJ5IIZlMIt3bh77+waBLCq3B3qdjycAzEY0OQSwMcmutUamOY2L6l5iYvqNpz8WmGce3n85AAAAL/0lEQVRJJ6zC0MBTEIv27f2869mYnb0ff753G2bnHmhO43UQeuEnsWHT5o7tno5KOjj3qdM4tvfQHcMvdsZx8x96UXL9u/NhRhQed/oshk6oHPLripMW7v5hL8rTXZO5mk5rYPeuh/DQA3+FUirocogWrbevH8efcBIikWjQpYSGZaZw7PJXI5088ZBfN1e6F/fv/DocZxau62BqYsKX9gf6n4innPz6R3X8+1Na4d77v42/3ncrlA7mOS0Wj3/5M5/68LlAF8wBSEUU/vlZE4ft/AHgGcvLuOBvpvaODjRKCI0nvGj6sJ0/ACQHHDz5ZZOw4uzIFkfjL3f9Hx647x52/tRxZqan8Pvf/AKl4nzQpYSCEAZOPPbcw3b+ANCTWInHH/t6SOHfi7HenuNx2tP+6ZCdPwBIIXHi416BE1e+xre2G9HxAeDsJ00jGVl8B3HigI3nHVvype2lJ5fRc1R10V9vRhVWnjHrS9vdbveunZiemgy6DKK6eZ6He+6+C0p17OBqxzhqyQsRiy5Z9NdHIwNYvvTFvrQtpYWnPPE8CLH47vT4Y/8Ofb0n+NJ+Izo6ADxhwMapyw7/6nt/Z500i7jV2H9KI6Jx3GlzR/x9/cdW0H+M3VDb3c62y3jwgXuDLoOoYeVSEbt2tM89324UjQxiaf8ZR/x9Q32nIx5d1nD7xx/zd0gmjvQ6Ak96wmsbbrtR/7+9ew2R66zjOP57zjlzZmdmd7NJtolJ7Sa11oqVIl7wgtBXvpEWLIJgEUR8o2+kgQhCXpSCS2qJRGor21V7sTFKyYtaiwhqY6EttdHSVnpJ4mZzv+/sbXbnes7xRbJhkyZ7mTMzz8yc7wcWZmfOc57/Dpmc35lznufp6ABw+/qVn30v5ruRhvrra7ugd31VjldfiOjbGK/vbjeZzysM+Nof3eHixXO2S+hqvdkhGbP60VbGSH25LbH7XztwR13terOb5Kf6YvcfR0cHgKE19R9I47SVpN6b6m+fW89d7Evhuim6SblUUlBr7RC0JMn2bK67bS6zKVbfxhj1991Sd/v+/qFY/cfV0QFgQ7b+D9WGXLwPZE9/EKMt/xksZY4AgC7Dv+nm6UnXP+TSj9FWkny/X55X//DyXCb+JYg4OjoAnJ+v/y7O83Px7gAtzbgx2jIUcCmeW/97C7Qj1+Uz3yylcv3D+Cox2kpSpTKjWm3196EtmCvavTzU0QHg+LRvpa0kFS7U335uIhWr726XzfXaLgFomEuTBOVsl9G15kun6247VzwTq+8oimJN7DMzczxW/3F1dAA4PFHfQbgSGB2fiRkAJlIKa/VN8zt7Ll7f3S6bs3tjDNBImWxOjsOU4M1SmD+uqI6p/aJImp07Frv/yamDdbUrzJ9Rpbr6kWSN1NEB4FA+rbfPrf76y58P96sYc47+oGJ0/M3VH6gmT/Ro8iSzgy1l/eBNSvdkbJcBNMTmm+PfaY4bK1cmdH7y9VW3uzj1horl+F/BHz35kubmV7ufSO8f+mPsvuPq6AAgSfveH9BcZeV/xlg+rVdPZBvS9/mDGc2eXfnZfK3saPz1/ob03c0cx9HHbvuE6hjZA7SV9YMbNLB2ne0yut7ZCy+rVL6w4u3LlbzOnN/fkL7DsKp3P9ijaBVT+x498ZKmpo80pP84Oj4AFCqOfvnvQR2bXv66+oHTWT351lpFUWOOLFFkdOifA7owtvzZamEipff/uk7VYse/5S3R29evoa0fl+PwfqEz9fcPaGjr8lPTIr4oCjR2Yq+mC4eX3XZm7ojGjv++oasDTs8e1Zv//ZVK5cklt4uiQGPH/qKx8Rca1nccXXFr6rmCp0ffGNTdW+b0hU3z2tgbyLk83381MDo5m9Lfj/TqvYuNXw2wVnF05NU1yh/t0ea75pRbV71qNcDitKuJIxmdeTfbsOCRFBs2blJf/xodHTukQsHutTJgpRzH1S1bbtWGjR+RxGe+Vaq1gsZPPqd1a+7S4NrPK5PeIGMujSiKolClynldnPyPJqbeakr/+cmDeu3AsG6/9V4NrrtTmczglddqtaKmZsZ1ePwFFQqnmtJ/PboiAEhSGBntP9qr/Ud75TuRbu6vqhw4Olvw1IqpuKdOpTV1Ki1jpMzamlw31Nxk/TcK4pJMJqtP3vkZlUvzmmM5YLQpY4yyuZxyuT5lc71yGcpqTX76HeWn35Ex7pWpfovlc4qi+uduWakgKOuD/+2TtE+pVFZ9vTerVJpSsXSxrhsVm61rAsBildBofMrOnfZRJM3nu/JttcYYqSeTVU8mq/WDdifOANAZoiiINUQwrmp1XvnJ5S9J2MQFVgAAEogAAABAAhEAAABIIAIAAAAJRAAAACCBCAAAACQQAQAAgAQiAAAAkEAEAAAAEogAAABAAhEAAABIIAIAAAAJRAAAACCBCAAAACRHuPBgcQCYtlAIAABWRGFkuwQb8gsPFgcAewsnAwDQYmEYLr9RlzHGHF54TAAAACRSGAa2S2g5Y8x7C48JAACARAqC5H0DIJm3Fx4tDgCvWagEAAAratWK7RJayvW84ujIzosLvy8OAC9ISuQdEQCAZAnDUNVq1XYZLeV53oHFv18JALt37Tgt6cCHWgAA0GUq5ZLtElrOcdyRq36/5vV9LawFAAAryqVkBQDHdau/fuLhP1z13DXbjEi60LqSAABorWq1qkolWdf/fd9/5trnrgoAu3ftmJX005ZVBABAi80VZm2X0FKu65Ucx/3htc9fbyrgEUnjzS8JAIDWqpTLqibv7P+R0ZGdtWufN1H04Rv/t20f/qqkf0jyW1AbAABNF4ahJvMTCoPkTADk++lDT/521x3Xe+26iwHt3rXjFUk/aGpVAAC0SBRFmpmaTNTB3/NSM14q9bkbvX7D1QB379rxlKSfN6UqAABaqDAzk6hx/47r1vy0/8XRkZ2FG26zzD5+LOkhMUEQAKADRVGkmekplUpF26W0jOd58z09PV8ZHXn4g6W2u+49ANfatn34m5KekZRrUH0AADRVGASanp5SLUFn/infP5ZK+Z8dHdmZX27bFQUASdq2ffjTkh6TdHfM+gAAaKpyqaTC7Exilvx1HCf00+nnfjP6yLdX2mbFAWDBtu3D90j6maRPrbI+AACaqlqpqFCYTcxZvzFGvp9+zfW8b42O7Dy1qrarDQCStG37sCvp65K+IeleSTeteicAADRAEASqlEsql8qqJmSFPy+VmvRcb7/jOg+Njjz8Tj37qCsALLZt+7Aj6cuS7pK0+fLPJknZOPut1aofrZTLt8UqroNlsrl/GWOSNVk1gK5TKha/FIZBulH7i6Loqp8wCNr4a34TGcdMx9xJZIyZNcZcMMY5bYw55DjO46MjO2NP2Bc7ADTLffd994H5+eJu23XYkslktz7//NPHbNcBAHHcc+93jlUrlSHbddiQSvlnX3xxzybbddzIcsMAAQBAFyIAAACQQAQAAAASiAAAAEACEQAAAEggAgAAAAlEAAAAIIEIAAAAJBABAACABGrbAOA43qztGmy5tLhDjmmAAXQ8z3VnbNdgi+u293GsbQNANpsd81Ip22VYke7pUS7nl23XAQBx9WSzR2zXYEsmk409X38ztW0AkKRcrlee59ouo6W8VErZbKx1lACgbXieV1wzMCDfb9h6QG3P99NaMzAgz/OKtmtZime7gKX4vi9/3aCq1YrCoF1Xe2oc13WV1G89AHQv309fDgCRosjYLqepjIkkXf4b23OtvSvaOgAsSKV8ieMiAHQ4I9Pdx39dOfh3gLa+BAAAAJqDAAAAQAIRAAAASCACAAAACUQAAAAggQgAAAAkEAEAAIAEIgAAAJBABAAAABKIAAAAQAIRAAAATWMiTduuwRoTTdkuYSltHAC8g5JqtquwwujE1q0DiV1DG0D3CJzwWds12BIa85TtGpbStgHg2Wd3n4mkP9muw4ZIZvTBBx/s/uUPAXS9vc88/oqi6GlJVdu1tFBVUfT03t89+rLtQpbS1qsBhjX9yHV1SEbfl7TBdj0tcFiReaJaDp6wXQgANMqePY997/77H/iJ4wRfixzT1seduEwY1cLQ/dvevb84Z7uW5fwfI/Iw4oqo/F8AAAAASUVORK5CYII=;" parent="1" vertex="1">
          <mxGeometry x="385" y="140" width="80" height="80" as="geometry" />
        </mxCell>
        <mxCell id="bXVjA9wCsrYVd7rCYP2x-4" value="WiFi Router" style="text;html=1;align=center;verticalAlign=middle;resizable=0;points=[];autosize=1;strokeColor=none;fillColor=none;fontStyle=1" parent="1" vertex="1">
          <mxGeometry x="380" y="110" width="90" height="30" as="geometry" />
        </mxCell>
        <mxCell id="bXVjA9wCsrYVd7rCYP2x-33" style="edgeStyle=orthogonalEdgeStyle;rounded=0;orthogonalLoop=1;jettySize=auto;html=1;entryX=0.5;entryY=1;entryDx=0;entryDy=0;exitX=0.5;exitY=1;exitDx=0;exitDy=0;" parent="1" source="bXVjA9wCsrYVd7rCYP2x-15" target="bXVjA9wCsrYVd7rCYP2x-11" edge="1">
          <mxGeometry relative="1" as="geometry">
            <Array as="points">
              <mxPoint x="644" y="540" />
              <mxPoint x="425" y="540" />
            </Array>
          </mxGeometry>
        </mxCell>
        <mxCell id="bXVjA9wCsrYVd7rCYP2x-34" style="edgeStyle=orthogonalEdgeStyle;rounded=0;orthogonalLoop=1;jettySize=auto;html=1;entryX=0.5;entryY=1;entryDx=0;entryDy=0;exitX=0.5;exitY=1;exitDx=0;exitDy=0;" parent="1" source="bXVjA9wCsrYVd7rCYP2x-15" target="bXVjA9wCsrYVd7rCYP2x-5" edge="1">
          <mxGeometry relative="1" as="geometry">
            <Array as="points">
              <mxPoint x="644" y="540" />
              <mxPoint x="204" y="540" />
            </Array>
          </mxGeometry>
        </mxCell>
        <mxCell id="bXVjA9wCsrYVd7rCYP2x-36" style="edgeStyle=orthogonalEdgeStyle;rounded=0;orthogonalLoop=1;jettySize=auto;html=1;entryX=0.75;entryY=1;entryDx=0;entryDy=0;exitX=0.25;exitY=1;exitDx=0;exitDy=0;" parent="1" source="bXVjA9wCsrYVd7rCYP2x-15" target="bXVjA9wCsrYVd7rCYP2x-11" edge="1">
          <mxGeometry relative="1" as="geometry">
            <Array as="points">
              <mxPoint x="609" y="500" />
              <mxPoint x="460" y="500" />
            </Array>
          </mxGeometry>
        </mxCell>
        <mxCell id="bXVjA9wCsrYVd7rCYP2x-37" style="edgeStyle=orthogonalEdgeStyle;rounded=0;orthogonalLoop=1;jettySize=auto;html=1;entryX=0.75;entryY=1;entryDx=0;entryDy=0;exitX=0.25;exitY=1;exitDx=0;exitDy=0;" parent="1" source="bXVjA9wCsrYVd7rCYP2x-15" target="bXVjA9wCsrYVd7rCYP2x-5" edge="1">
          <mxGeometry relative="1" as="geometry">
            <mxPoint x="630" y="457" as="sourcePoint" />
            <Array as="points">
              <mxPoint x="609" y="500" />
              <mxPoint x="239" y="500" />
            </Array>
          </mxGeometry>
        </mxCell>
        <mxCell id="bXVjA9wCsrYVd7rCYP2x-15" value="" style="rounded=1;whiteSpace=wrap;html=1;" parent="1" vertex="1">
          <mxGeometry x="574" y="270" width="140" height="187" as="geometry" />
        </mxCell>
        <mxCell id="bXVjA9wCsrYVd7rCYP2x-29" style="edgeStyle=orthogonalEdgeStyle;rounded=0;orthogonalLoop=1;jettySize=auto;html=1;entryX=1;entryY=0.5;entryDx=0;entryDy=0;startArrow=classic;startFill=1;strokeWidth=2;strokeColor=#54a1ff;exitX=0.5;exitY=0;exitDx=0;exitDy=0;" parent="1" source="bXVjA9wCsrYVd7rCYP2x-15" target="bXVjA9wCsrYVd7rCYP2x-3" edge="1">
          <mxGeometry relative="1" as="geometry">
            <mxPoint x="644" y="260" as="sourcePoint" />
            <Array as="points">
              <mxPoint x="644" y="180" />
            </Array>
          </mxGeometry>
        </mxCell>
        <mxCell id="bXVjA9wCsrYVd7rCYP2x-16" value="Smart Switch" style="text;html=1;align=center;verticalAlign=middle;resizable=0;points=[];autosize=1;strokeColor=none;fillColor=none;fontStyle=1" parent="1" vertex="1">
          <mxGeometry x="594" y="273" width="100" height="30" as="geometry" />
        </mxCell>
        <mxCell id="bXVjA9wCsrYVd7rCYP2x-17" value="" style="shape=image;verticalLabelPosition=bottom;labelBackgroundColor=default;verticalAlign=top;aspect=fixed;imageAspect=0;image=data:image/png,iVBORw0KGgoAAAANSUhEUgAAAgAAAAIACAYAAAD0eNT6AAAABHNCSVQICAgIfAhkiAAAAAlwSFlzAAAN1wAADdcBQiibeAAAABl0RVh0U29mdHdhcmUAd3d3Lmlua3NjYXBlLm9yZ5vuPBoAACmtSURBVHja7d0JsCxXeR/wr2e5+32LlicJsYkdBAgjxCZhsMAgYzAYB2+xA7jiKjsmTqpSrlSRSiWulJ1UKlVJXLZxxSk7Jl5iGxuBkUEWwhIgmx0JISEJCe2gJ+mtd5+lO919tYGFpaeZuXdmzu9Hjd6TeLff9JnpPv/z9enTWVEUwfj5wuXvf17kvV8pX28qit5JUeSzUfQbw9l6FllrrnwtRjRnI8taEY1m/d8ZH81W9dn4TJgoVYdypHx9u3x9s/zXS8pfLz7nFW8/qGnGTyYAjFvH/9sXRH/rA0Vv46wRfNyRzeyJxuz+8rdNjT3OB2bWKAPAjIZgGuTl64NlGHhfGQRu0RwCAI/W+V/2G5cW3bU3bofoIX/QzZlozJ9ejvTbGnoSRv/NdmQNIY2p0i3Pbb9WhoBf1RQCAA+N+t+/J/qbV49m1B91qb8xf6D8TUNjT8bwP1qtWe3AtPqzMgi8qwwCm5pCAEi982+Unf+tZef/1NF0/vPRWDgjXN+fHI1mKxqNloZgmn2oDAE/VoYAHdBunms0wS7Lu58cVedflfvrsr/Of7IOSqV/pt+Plq9f0wwqAOmO/j/x228rOkcvHllHsvikyJrzGnqSDsiy86+u/0MKw5+I4qXnvOLt12gKFYD09Dd/Z2QdSWtB52/0D2Pe/2T/RTMIACmO/t9c9DdPH1kAmNmnkSdt9J9l9e1/kJCLrvncxWdrBgEgLUXvvaPrSZr15D8mLACY+Eea3qEJBIC05N3zR9aRtBa07yQejA2HI0lG37doAwEgrQJA3l0e3UjSJLLJ6/wtxUyynq0JBIBkfOHy9+8rE8DozvZKyZM3BvKZka7913zuYtcsBYBkxv/PHW1vYib5RHX+WcNDf0jdaZpAAEiFGj0PH4Ru/QMHgQAAyQ3/PfQHEAAguQPQ5RpAAIAECwBG/4AAAIl1/vXKfyb/AQIAGP0DCAAw5QefAADsIquPpDbqzMqOpzkTrfZsNFvt6Hc70e11Ii9f7OTnUGVv5X9248vXiFarOgfM1L/vd7eiVx7/Rd7XNgIA02hmdjHmFvfXHf+jXXcu8rw8CWzF+sqh6HU3NZjRP9PV68f84t76PNBotR41fOb9XvQ6G7GxeiTyItdkAgCTH/Ybsbh8aszOLz/mn2vPzMfek8+MzbWjsb56OIqi0IAj/FxgJzTL0L+0fErZ8f/j6481mq2YKc8TrZmFMgQcis7WusYTAJhUVYe+tO+0crR5Ih9zVlcK2nOLsXL0YF0eZBSdv/I/oze/uK88nved0M80ms1Y3Hsg2ptrsb5yv4HAFDMMmdYPttGMpf1nnGDn/4hRQ3Mm9uw9zW1qo/hsLP7DDpiZWzrhzv87f377siECABOmSvCNbLCPt9GaiYXlkzXm0CsAAgCjHwAsLA3eec8tLEe7PatBBQAmxWyZ2qvJPsMwt7CvvpTA8E7MMGoLy6cMKWhmsbDnVJVAAYCJGf3vOWPoJxOM/pkM7fZctGeHF9qryYGPNYkYAYAx0GzN1wfsMNX3C5u0NpTRVJY55BjxOWAEJftWy2UAAYCx15rbM5KOq+k64OAHm1v/2JFBwPCPVce/AMAEaM/tHc12WzMad9AYpfzPTgwC2sM/VquqorUrBADG/eAf0uS/nRhVJNX5Z8r/7MT3rDH0S4APnVuabQ0sADDO+t2NkWw3z7sad6ATs9E/o1cU+cjW9O/3expYAGCcdTePj2a7VgQcLAAon7JDet3hP9grL0NF7mFBAgBjfvCPJAAU0feAoEG6f+V/dky/P4IAYAAgADABB393tS4DDveE0rUe+CAHmdE/O3oOGH5n3fW4cAGA8Vf105ur9w91m5urRzXsION/o392UKezEf3e8ObsVI8K72ysaFgBgEmwduxg9IaU2Dtba7G5cVyjDhIAVADY4VHA+sp91W+Gsrnq0eCu/wsATM4ZIFaP3TPwCSAv8jJM3Kc5Bx79W0WRnVVNBNxYOzbwdrqba9HZXNWgAgCTpF+eAFaPP/FRQHXNf/XowTL5u/XH6J9JtLl2NHpb6098ANDrxFo5+md6tTTB9NpaP16OBDZjae/p0TqBlfy65UmjCg95373/Ayds9/+zi1aO3Ruzc0sxv3zSCc1F2Vw/Fhv13B+TfwUAJroScOz+O+tng88t7v9HH+tZ3T2wvnK4PPhN+hvK6L9qa49RZbcHApur0e1uxOLSKdF6jKcE5lXlcPXQSO4kQABgVxT1RJ711SPRarWjOTMXrfZcNJut6Pc60SsP9uq1PXNY4h9eADD6Zzzk/X6sHDtYX5KqnuzXaM3Uz/eoQmp1i1/V8ff6W/WfQwBgSoNAdXdA9doKM/tHHgBc/2fczgB5Ht3ORkT5MsbHGQpG0/27/x8QAMDoH0AAgOk/sIz+AQEAVAAABACY9s7f6n+AAABG/wACACRTAQAQAEAAABAAQOcPIACAAAAgAMBEBwATAAEBAFKsALj9DxAAILHO3/3/gAAARv8AAgCkUgEAEAAgrQBgAiAgAEBqo/+q/O8SACAAQGIBwKEETJaWJmCsOtLNzWh+45vRuPX2yI4fj2xlNbKtzvgn6cWlyGZmfYA8pJhpR7G4GLG8FP2nPjnys54exeyMhkEAgO/o+A8fiZnLr4zmDTdF9POJe/+NaEZsbPkgefg7Xf3jvkP175vXXl/+oxH9Zz8zuhe8Moq9ezUQAgCJy4tof/LKaP/95yey49/u/cvO3wRAHkv5/W7e8I26wtU795zonv+q8ntj3ggCACmOkDY2Y+bPL47mN2+b7P1ot32YnEAQ6Efr81+O7OB90X3LRVHMuXTELo1dNAG7otuN2T/444nv/OsA0JKjOXHN2++sA3D0uhoDAYB0zF58STTuuXdKzuQCAE/wBHzvfTHz8cs1BAIAaWhd87VoXnfD1OxP1mz6UHni+fHGm6N1/Q0aAgGAKdfrRfuTn5qis3ezWgTA58pgofiqz0X0exoCAYApPtFdfW1kx45P0ehf+Z8hfI+Or0Tra6oACABMseb1N07XidsEQIZ1Mv7GLRoBAYApHeVUq/zddseUJRrX/xnSV+nOuyPbspgUAgDTGACqVdHyfLr2ySUAhqU8NrJDR7QDAgBTGABWVqfs6GlYAZDhHiOraxoBAQAnN6N/kjtG1tc1AgIAUyjvT9f+uP6PYwQBABIcrbkDABAAIMEA4BIAIABAar1/5hIAIABAeqN/nT8gAEB6lP8BAQASrACYAAgIAKACACAAQAoVgKZDBxAAILHePytfDh1AAIC0+v+GOwAAAQDSo/wPCACQ4lGjAgAIAJAclwAAAQBS5BIAIACACgCAAAAqAAACAEzfEVMdMpl2AAQASInyPyAAQIqU/wEBAFQAAAQASKICIAAAAgAkeMQIAIAAAMnJGg4ZQACAxHr/7IHbAAEEAEjoaHG4AAIAJFgAcLgA06OlCdgp7bW1mN23NLkBoD0T2dKiD5KRKdbXo6cZEACYNs3NjZhZWpjcADAzG9n8vA+SkeltbWoEdoyaJjzuBOBwAQQASPBo8RAgQAAAFQAAAQBSCAAqAIAAAAIAgAAACfT/FgICBABQAQAQACCJzl8AAAQAMPoHEABg2gOAQwUQACDBAoAKACAAQIJHikMFEAAgxRKANgAEAEgvADhUAAEAVAAABAAQAAAEAABAAAAVAAABAAAQAEAFAEAAAAAEAABAAIBd41kAgAAAAAgAkEgJQBsAAgAAIACACgCAAAAACAAwHSUATQAIAACAAABTPvg3+gcEAABAAAAVAAABAAAQAGAqFJoAEABAAgAQAAAAAQAUAAAEAJAAAAQAAEAAAFUAAAEAABAAQAEAYHRamgAebwKYjiWBs7n5aJ75tPJ1Vv3v/btvLV+3R7G54WMGAQCYNo19J8fCO94VrWe94B8+36Aoonfz9bH+l38Q+dFDGgtSOCdoAng8BYDJvgYw87LXxPK//tVoPfvsR3+4Ufnfqv+v+jPVnwUEAGDCtV/0slj4sXdHNjv/mH+2+jPVn61+BhAAQAFgQisAjaXlWHjbz5zwz1U/U/0sIABA6glgIt/23Jt/PLLFE+/Iq5+pfhYQAEAAmECtZ71wV34WEABAANitg3vv/mgs73niP1/+bLUNQACAlBPA5B3cT3rqWGwDEABABWAnD+6FpbHYBiAAgAAAIACAAAAgAIAAACAAgAAAIADALvf/AgAgAECKEUATAAIAJFgC0AaAAADJyQUAQACAFEsAqgCAAABpZoBcGwACAKTX/wsAgAAAKgAAAgAkwERAQAAAFQAAAQCSqAAIAIAAAOkVAFQAAAEAVAAABABIowSgDQABAJIMAEIAIABAiiHAZQBAAIAE+38BABAAID15XxsAAgCkFwBUAAABAAQAAAEApl/hEgAgAIAKAIAAAEmUAAq3AgICACSZAVQBAAEAEiQAAAIApBgATAQEBABQAQAQAGD6uRUQEABABQBAAIB0AoDHAgMCACSn6LsMAAgAkB4BABAAIEEmAgICAKTHJQBAAIAU9XvaABAAIL0SgIcCAQIApJkBXAYABABIkAAACACQIHcCAAIApKcwERAQACBBLgEAAgAkymUAQACA9LgMAAgAkKKeCgAgAIAKAIAAAAmoA0ChHQABANKrArgMAAgAkGgVAEAAgLT0BABAAIDkmAgICACQojz3aGBAAABVAAABANJgQSBAAAAVAAABAFIgAAACAKRYAihUAQABAJLU62oDQACA5IoAYxcAijHZBiAAwFRXAHr1pYBx0T9y/1hsAxAAQBVgB+V33zFYICl/tt4GIAAAj1UFGJ8AUGxtRv/+g0989F/+bLUNQAAAJqgCUOl86TO78rOAAABpqZ4LkI/PqoBbn740enfddsI/V/1M9bOAAABMYhWgDCQbH/y9KLqdx//+yz9b/UwdZgABAHi8w+fxugzQP3h3rP7P/xC922567Lde/pnqz1Y/A0y3liaAYVcAepHV989n4xMCDt0bq//rv8bMK14XMy96WTSf9LTI5ua33+/mRvS/dXt0rv1idD53xVjdyggIADBBCaDYDgGt9ti9r85n/7Z+RZZF8+QDD4UDnT4IAMAwVJcBxi0AfFcYGOQWQWDymQMAo+hfPRcAEAAgQf1+mQLMogcEAFAFABAAIAHVw4EABABIrALQVQEABABIMAHkUfT72gEQACA55gEAAgAkWAQQAAABAFKtAFhlDxAAIMEqgLsBAAEAEq0CAAgAkFYFwO2AgAAACcr7UfRdBgAEAEhPt6MNAAEAUlMIAIAAAAnKc2sCAAIAJEkVABAAID3blwEsCgQIAJBYAijcEggIAJCkzpY2AAQASK4IUE0ELHINAQgAkFwIMBkQEAAgwQDQEQAAAQDSUy0LnPe1AyAAQHJVAJcBAAEAEgwA7gYABABIULU0sCcEAgIAJEgVABAAID2WBgYEAEgyARSeEAgIAJAkawIAAgAkWASoHg5UuAwACACQWgSwJgAgAECaVQABABAAID2eEAgIAJBoFcBkQEAAgBQDwKZGAAQASE61NLC5AIAAAAlWAbZUAQABANLT73lAECAAQJJUAQABANJTzwPI+xoCEAAguRCw5THBgAAACVYBtjwfABAAIL0EUFgXABi5liZgx75s5aC23Z7TEI8rBGSRtWYjMk2R2jECAgBTZ7ZfxMLCHg3xeLXLANCe0Q4J6fUlAHaOSwAwrjomAwICAKSn3y+HhBYGAgQAUAUAEAAgAb2uhYEAAQBUAQAEAEgkAHQjilw7AAIApKUoQ0BHMwACAKRXBbA8MCAAQIJFgLLz73a1AyAAQJJVAAABABJT3Q7YUwUABABQBQAQACAB1dLAfcsDAwIApGdzUxsAAgAkp6oAmAsACACQahXAugCAAABpqe4I6KgCAAIAk9BnzcxohGHa2rQ6oGMEBAAm4OTWamuEYaoeEOS2wOk6RpotjYAAADwO9TMCPCkQEAAgsSpAEbGlCgAIAJBmFSBXBQAEAEjPlsWBAAEA0tPtRPT72gEQAEAVAEAAgOlXLQ/c86AgQACABKsAG9oAEAAgOdU8gK4lggEBABKtAlgiGBAAIC3VmgCdjnYABABIrwrgQUGAAADpqTp/DwoCBABIkAcFAQIAJFoF8KAgQACARKsAuSWCAQEA0rNhcSBAAID09HsmBAICACSpui0wNyEQEAAgLdWEwE2XAgABANJTPS2wa4VAQACA9FRVACsEAgIAJMalAOABLU0AiWjPROzZF9mevRGnnl7/vrZ6PGLleBQP/FpfKgAEAGDCLO+J7PnnRPa0Z5Wd/N6yw9+33dnPzT++n6/uGKgDwbHy15Uo7ro1im9cH7G2qm1BAADGyimnRfaCl0R2dvl6ylkRWfbEtzU7V7+yUw7U/5q96KURF70jim/dEcWN15Vh4LqIw/drcxAAgB1XdvDZk5+23emXrzhwxuj/vjOfVr/iwjdH3H9vGQS+FsVNZSD49l0R5hWCAACMuC9+7gsjK0fk2eln7mLF4UBkp1wY2asujOLee6K44q+juOVGHw4IAMDQO/4nPz2yH/qxyJ7xnPF6XwdOj+zHfy6K278Zxd9esl0RAAQAYEAnH4jGm94e2QtfOti1/VEHgac9I7J3vTeKG6+N/IqPRxw55LMDAQA4YUvL0bjwLZG9/DURzeZkvOdqrsDzXhzNZ58dxdWfj/yqyyLW1nyWIAAAj6sffc7Z0fipfx4xtzCZO1AGluzcV0XzhS+J/OI/juKbN/lQYcxYCRDGrfM///XReNd7J7fzf6TZ+Wi88z2RnXeBDxZUAIDvNWpuvO2np6+zbDSi8Ya3RnHKaZFf+iGPJQYBAHjI4lI0fuYXInv6s6d2F7OXvDwaJ58a+V9+IGJ93WcOu53NNQHscsd4+pnR/KX3TXXn/9C+PuWsaL77lyOrnkUACACQbOf/jOdE4xf/bcT+k9PZ6b37o/GuX4rsqc/wBQABABJU3d//T38hYmY2vX1vz0TjHT+bVvABAQConszXLEfBsbCYbhvML0Tzne/efvgQIADA9B91jWj81M9HuA6+XQV5+0+XbZJpC9hh7gKAne7/q/X8n3P2zv6lR+6PonqE7/FjEStHo6h+PX50+//bsy+yPXsjlveVv98b2UmnROw/ZcfeWvaM50bjB3448ss/6ssBAgBMp+xl50d2wRtG/xcVRRR3fDOK66+J4utXR9x38B//49/9H049LbLnV48aPmd7st6In0FQLXecle+x+OoXfElAAIAp6/yf/qztcveIR/r5lZdGcd1XIlZXnvh2qs74vnI7n7q0fiZBdvZLy1H6RRF7TxrZW29c9PbIj9wXxZ23+bKAAABTotmKxo+/p/51JNbXIv/kJVF89sqIfm+42y6DRPG5K6P/lc9G9pofjMb5r68n8I2kjd76E9H/nf8Wkfd9Z0AAgCkY/b/ytaO5rt7tRnHVJ+pRf2xujHYnOltRfPqy6H/1i9F41WsjO+/7yzPIkE8he0+qHyJUfOEzvjQwYu4CgFGbnYvGD7x5+Nutyv2/9euRX3rx6Dv/R4SAqiKQX3Fp5L//GxHHDg//pPTqC9NcGwEEAJiyg+y1F9Vr/Q9T9Xjd/m/+ehQHv7XzO7S5Xj/Qp7j/YPTLEFDc/s3hbn9hMRqvep0vDggAMMGqW+wueP1wO//PfSry3/sf9XX/XVEUERtrD/y6Efn/+90ovvLZof4V1V0BsbTH9wcEAJjQA+wNb6mXvR2W/LKPRH7xH0X0d3mSXPX3b20+8KbyyD/+ocg/9TfD236rHY3XvMEXCAQAmEAHzojs3POHN/C++vNRfPKS8dm/aj5At/vw+7vq8iiuu3p4VYAXnxdxygHfIxAAYMIOrte/pV72dyid/123Rf4XHxi/nXxgPsCD8kv+PIpv3zmkBmxE4wJVABAAYJK0ZyJ7/jnD2dbxo5H/3/dH9Lrjt5+PnA9Q6fci/2AZVFaOD6cK8OwXDP9WQ0AAgFGpO652eyjbyv/kdx9et38cPXI+QGX1eOQf/qPhbLvVjuys5/hCgQAAExIAzn7JcAbYX/tyFLfdPP47/N3zAe68LYobrh1emAIEABj/o6oR2fNePJSRdX7phyZnv797PsCVHxvK3QrZs59f/sPXCgQAGPfR/9OfVS9mM/Do/wufjrj/3snZ8e+eD3D4UBTXfH7w7S4sRfbkp/tigQAAYx4Azv6+wTfS2Yr88o9O3s7X8wEeXpY4/8xlEd3OEKoALgOAAADjHgBeMPjs/3rkPMjjfHdTp7M9J6Cytrb9aOKBA8DZvlggAMAYd/5nPCVi38mDB4Drr5nshqgeTvTApMDiG9cPvr2TTok4+VRfMBAAYEyddsYQRtBbUdz89clvi431el2A4tZvDOcywMmn+X6BAABjannv4KP/m66L6PWmoDGK7QcWdbtR3HLjENrWw4FAAIAxlQ0jAFx/9fQ0SHVHwPpqGWq+NoS2XfYFAwEAprgCcOvN09UmeV4GgCHMA1ja6/sFAgCMqT0DdlLViHnl2PS1y9HDD68P8IQDgEsAIADAmBr4EsD6aj1xbupU+1TtmwAAAgBMpQEDQHH82NQ2zaD7lu0RAEAAgHHUnomYmx9sG+P81L9BDbpvs/MeDQwCAIyhpSHMUl89Pr3tM4x9W3QnAAgAMG62NgffxqAVhHE2jH3rbPqegQAAY6Za9GbQCXzLU3yr26D7Vi2OtLHhewYCAIyhlcHK3NmefVPbNAPv29px3y8QAGA8FYNOdKtGyVk2hb1/NvgdEisrvmAgAMC4VgAGvI2v2YxYXJq+dqn2qdq3Qawe8/0CAQCmNABUg+UDT5q+AsAw9mnFJQAQAGBMFcMIAC84Z/oCwBD2qVhRAQABAMbVcQFgZPu0ag4ACAAwrqqH3gxq/ymRnf7k6en8q30p92nwcHXE9wsEABhPxW03R3S2Bt/QNFUBhrEvW5tR3H2HLxgIADCmet0obrpu8APznPOm43bAch/qfRk0WN1yQ0Se+36BAABjXAW4/urBN3LgjMhe+qrJ7//PfXW9LwO36Q3X+mKBAABjHgCqzmoIo9XGG98W0W5PbkOU773xgz8y+Hb6vSiu/VL5a9+XCwQAGGMb61HcetPg29mzL7IL3jC5o//qvQ9haePilhsjNjci1leFABAAYMyrANd9ZTgH6GsvmsyVAcv3XL/3YbTl16954DfFAyGg5wsGAgCMaQC4/prhbGh2LhrvfM9kTQisJv5V77l874M3ZPGdbVmHgDUhAAQAGFPHjkRx123D6U+f+8JoXPSOyTmplO+1es9DCVJ33x7x3Q9YEgJAAICxrgJceenwBtXf/8bIvu+V4z/4L99j9V5H3oZCAAgAMLYB4GtfjuLO24Z3sL7jZyN7ylnj2/mX7616j0Nrv7Ltqjb83n9ACAABAMY1BHzsL4a3sVYrGu/55cie+bzx6/zL91S9t+o97mjbCQEgAMBYBoBbbxruIjbzC9H4uX8V2at+YHw6//K9VO+pem9Da7eyzR73rZRCAAgAMJYh4ON/ud1JDe2obUTjR34yGu/4mYhmc/d2rPy7q/dQvZfqPQ2vwYrtNjvBnxECQACA8QoAB78VxZf/fvgj7/NeE42f/zeRnfGUnR/1l39n/XeX72Ho7VW2VdVmTyQ4CAHw+LU0AYxeftlHolk9FKc13KV9s6c9M7J/+e+iuPrzkf/NhyOOHhrtjuw7uV6iOHvJy0ezNkGvW7fVINWDOgQsLEY0nd5AAIDdduxI5J+8pOw83z6C4XgW2fe9IpovOjeKz14R+RUfi1hbHe7fUa3s97ofiuyVrxvqRL9/EJTKNqraarASghAAAgCMkeKKj0fxpKdG9sKXjuhobtXr7zdffeH25MPrr95eRe/o4Sc42j8pshecU75eEtlZzxnudf5Ha5/qtsmyjYazsQdCQDUxsdX25QMBAHYzARSR/9nvR+OkUyN70giv25cddXVbXn274Ft/Mopv3xlx49eiOHwoYuVovbJecfxYxNrKA6P75cj27N1+cM/yvshOOjniuS/c0bkFxbfurNtmqJMlHwwBc/MRM7O+fyAAwC7qdiL/wG9F873vi1jasyN/Zd2Rl69/cMX+wUcWN3Z5LvDq8bpNqrYZiepJgtW+zlXPJsh8B+HBsYImgB1WzQf4w9/Z/dnqVce/251/2QZ1Wwx63f+xdLYi1teHW2EAAQA4UcXtt0T+oT9Kvh2qNqjaYkf0utuPE36w8gECALArIeBLfxfFZz6R7v6X+161wY7q97dDQPUrCADAro2A//qDkX/ir9IqTVeTIct9rvZ9dxo93w4BVUUAEmYSIOxyZ1hc/tHID34rGu989/TPVu9sRf7n/+cff8rfDrW7OwQQAIDdzwFlh5gfujca/+yX6vvvp9LRw/Vs/+Lbd43Pe3KHAAlzCQDGJQSUHWP/t349ittunr59K/ep3rdx6vwf5A4BBABg162uRP6//3sUX7xqejr/cl+qfar2bWy5Q4AEuQQA46a6N/4vPhDZrTdF400/ur1C3yQ6fjTySz8UxZc/OyHt/sAdAvOLu/uYZRAAIG1Vx9m/9kuRnf+GaLzuoojZucl441ubkVfPPbjqExHdCZtp/+AdAp4hgAAA7KqyAy2u+Fj0v/DpaFz4w5G94vvH9wl3/V4Un/vU9hP9hv00wh1NXu4QQAAAxkXZoeZ/9acRV11eXxbIXnRu/Rjgcekwi2u/VJf74/D909Pm7hBAAADGRtnB5n/yu5F9+m8iO/f8+nG9uzZHoHqq4PXXRPGlq6K46/bpbO/qDoEqBFSXBDIhAAEA2O1Bd9nh1p3uR/4ksjOfGtnzXxLxghdHdvqTR/v33nNXxPVfjeLrV0dx9x1p3Dr34B0C1eTAhhunEACAsUgCxcNh4LIPR+w/pa4K1K+nPrM8wgc8xHu9KO64ZXukX77iyP1ptnN1h8DaSsTcQkTb5EAEAGDclB10cdXl9au2sBjZnv0Re/ZuXyoof82W9z30+9rxY9vl/JWjD/2++rU4fmR7MhwPha3YKNujPxMxO++SAAIAMMbKDryoOvF7Hl6Bz3p3A+p0Inr9MlwtRDSsF8DkckEL4ETl/e1bHbsdbYEAAJCU+pLA+vbLcwQQAAASU1UBqgmC1URBEAAAElKtFVCFgGrdABAAABJTrR5YTbp0SQABACAx1cJB9SWBnrZAAABISn1JYLV+MiIIAACpqQJAtYxwkWsLBACApPR6Easr25cGQAAASEg1KbCaHLi1EdZiRAAASM3WVsTa2vYcARAAABJS3R1Q3SVgGWEEAIDEPLiMcDVBUDUAAQAgMb3eI1YQNDcAAQAgrWpAtYJgtW5A7nkCCAAAaen3I19fKzNAVzUAAQAgNXnej16vE0WhGoAAAJCWooh+rxt91QAEAIAEc0BVDehu1VUBEAAAElPNC+jXlwVUAxAAANKqBhR5GQK2yjDgMcMIAADpVQPyXh0ECk8YRAAASK0aUNSXBNwyiAAAkGQ1oJok2KknC4IAAJBWPaC+XbCqCIRJgggAjOVpquHrBqM6Rqo5Ab16kqDLAggAjJne4oJGgBEfI/mDawfUdwsIAggAjMPJbc+yRoAdOkaquwWq+QHVryAAsKu2nvIk1yjheymPjfoYGe5G60pAdWnAREEEAHZNf3kpNt27DI+qOjaqY2RU4WJ7oqAggADALlk9cLJGgF06Nori4TsGLCSEAMCOOvLql5cnINck4ZGqY6I6NnbK9rLCHUFAAICdU8zOxKEzT9cQ8AjVMVEdGzt+PD4YBKpbB83PEQBg1I6+5pWx7vYkqFXHQnVM7Gowr24dtIaAAAA74e63/mB0ei4FkLbqGKiOhXFhDQEBAEY/4pibi7t++PWxaUYyiaq++9UxUB0L42Z7DYEtawgIADAa1aInd/yTt8bRuZl6djIkEX7L73r1na++++O+OFa9hkAdBAT1adTSBOyqZiPufesb4+jd344Df/fFmC9zQJZl2oWp7PjXy6/2fRecF50nTdJE2KKeG1CFgUajGY1ms/xvjlEBAIakc+YZcdc73xrNldVY/ur1MX/wvmh1e9HKi5AHmMwOP6LXyKLXbsX6aafG6ovPjv7y4iTvUX1JoHpVQSCrXpkisgAAQ1KthHb0/JfHUU0BY6u+JFC+qgDwYBhAAAAgEfU6Av08srxXh4BGw+UBAQCAhIJAEUW/9/A8gUYrXLsTAABISHV5oHpljUYdBMwTEAAASKkqkOfRzzv1XT11EDBPQAAAIKEg8MATCKO6PNA0T0AAACC1KFDPEXhwnoDbCAUAABLzHbcRNssgYFFaAQCAhGoC9eOI8+q31hreBWIXAAgAAIAAAAAIAACAAAAACAAAgAAAAAgAAIAAAADsIisBJqhag7vVmo1mqx393lZ0u53q0V0aBhLRbLajNTNbjwF73c3I+50oCu0iADCdH3RrJuaW9ke7PReN8uD/TkX0et36RLC5ejj6/Z4GgykzO78nZueWojlTngO+6yE820vybkVnayM2Vo/U5wQEACZ/vB8LZcc/X76+9yM4szogVK/qBLG+cig2149pOpgCjWYrlvYeiPbMwvc+S5SBoNWer1/VOWDl2L3RLwcECABMqGbZoS/vO638dfbxx4XyRLC459SYKU8Cq8cO1o/uBCbT3PxyLJTH84k8drc6b+w7+cmxsXo4NtYOuzQwzeFQE0zpuD/LYs/+M06o83+k9sx8GR7O0JAwodqzC7G497QT6vwfaX7ppJhb2KchBQAmzeLyqY9yrf/EtNqz9eUDYMIGAI1GLO05MPB2FpZOri8NIgAwIWbmlmN2Yc9QtlWNAprtWY0KEzcAGMIV3iyrqwgIAEzKwb/vzGGOJWKxHAUAk6Gq3M3OLw93e0MaUCAAMELN+v7+4ZbsWjPz1UAAmADV/J2hb7M9r2EFAMY+AMzuHfo2qwmFDdcBYTLOASO4ZNdyGVAAYALS/9xoSnWt1pzGhQkwimO1WjX0id5NgADATh38s8uj2W5bBQDGXVWtqzrrEWx56JcWEQAYsry/NaLt9jUujLmiKKLIR3Os5rlzgADAWOtuHh/JdnuWBYWJ0OsOfxBQhYq839W4AgBjffBvjmYN/16vo3FhEs4BveEHgFGECgQAhn2gbq3WZcBh6pfJv1D+g2QrACqAAgAToYjNtUND3eLm+nHNChOis7U+1HJ9NaDY3FzVsAIAk2D92D31qH0Yup3NMlAc1agwMWOAPFaP3Tu888nKochdAhQAmJDjvz4BHKyrAYMm/2FsB9hZ3c5GGdyPDWE75QBg3QBAAGCi9MoDd331yACdf5n8j99r5i9MqPXV+weaD5DnvVg7do+GnGItTTC9NlYP1yeApb2nRqPx+D/qfq9Tj/zN/IXJVVXwjh26KxaW98f84kkn9LOdjZVYXbnf5F8BgEnW3VqLo/dv1I8HfewnhBX19f71MjgM+04CYFdiQKyvHI6tzfVY3nvgMVfzqxb7WTt+b3Q21zSdAMBUnALy7TkB66uH6od6NFtz0W7PRLPZjl6/G73OVjnq34xut1P+2Z4GgynT727GsUN3RKM1G+0yBDTbc+W5YC6y8n+98tjvlcd+datfv7cl/AsATKO834tOv+rg12JDc0BaA4GiCgJb9Ss2VjQIJgECgAAAAAgAAIAAAAAIAACAAAAACAAAgADAd7LAPsDDrDksAKQiu3Gkmy8cS8BEuU8TCABJOO/1v3g0ssbo1tu0nC8wOQ6de8FPbGoGASCdGkCjPbK1OIvcFQZgYtygCQSAxFq+fdXIAkBvXfsCk+KvNIEAkFgJoPWbI9t20S9DgMf9ABPhw5pAAEjKeW/4F3+dNefuGVkG6BzVyMC4+8i5F/yESwACQIKac78wsgDQW4+irwoAjK28fL1PMwgAqVYBPpy1l64c2dG1cV81I1BDA+PoP5Wj/+s0gwCQ8CfQvjBrzd8xmgTQLUNAdZWh0M7AOPnT8vWrmkEASLsK8PpfzKM596IyBNw6iu1XkwHz9YMqAcC4+MPy9a5y9G9kssuyovAZjIsvXPYblxbdtTeOYsSeNWeiMX96VXHQ0MBu6JSv/1h2/P9ZUwgAPFoIuPy3L4j+1gfKkftZI/i4I5vZE43Z/VUi0NjATqjKj39cvv592fnfpjkEAB4zCLz/eZH3fqV8vakoeidFkc9G0R/SJZsyCLTmytdiRHM2sqwV0WjW/x1gAFWHcqh83V2+bi5fl5Svj5Ydv7X+x9D/B2/2jJ0cgXM7AAAAAElFTkSuQmCC;rotation=90;" parent="1" vertex="1">
          <mxGeometry x="614" y="306" width="60" height="60" as="geometry" />
        </mxCell>
        <mxCell id="bXVjA9wCsrYVd7rCYP2x-10" value="HTTP Server :8080" style="rounded=1;whiteSpace=wrap;html=1;arcSize=50;fillColor=#f5f5f5;fontColor=#333333;strokeColor=#666666;" parent="1" vertex="1">
          <mxGeometry x="584" y="425" width="120" height="22" as="geometry" />
        </mxCell>
        <mxCell id="bXVjA9wCsrYVd7rCYP2x-19" value="MQTT Broker :1883" style="rounded=1;whiteSpace=wrap;html=1;arcSize=50;fillColor=#f5f5f5;fontColor=#333333;strokeColor=#666666;" parent="1" vertex="1">
          <mxGeometry x="584" y="375" width="120" height="22" as="geometry" />
        </mxCell>
        <mxCell id="bXVjA9wCsrYVd7rCYP2x-27" style="edgeStyle=orthogonalEdgeStyle;rounded=0;orthogonalLoop=1;jettySize=auto;html=1;entryX=0;entryY=0.5;entryDx=0;entryDy=0;startArrow=classic;startFill=1;strokeWidth=2;strokeColor=#54a1ff;exitX=0.5;exitY=0;exitDx=0;exitDy=0;" parent="1" source="bXVjA9wCsrYVd7rCYP2x-5" target="bXVjA9wCsrYVd7rCYP2x-3" edge="1">
          <mxGeometry relative="1" as="geometry">
            <mxPoint x="204" y="297" as="sourcePoint" />
            <Array as="points">
              <mxPoint x="204" y="180" />
            </Array>
          </mxGeometry>
        </mxCell>
        <mxCell id="bXVjA9wCsrYVd7rCYP2x-28" style="rounded=0;orthogonalLoop=1;jettySize=auto;html=1;entryX=0.5;entryY=1;entryDx=0;entryDy=0;startArrow=classic;startFill=1;strokeWidth=2;strokeColor=#54a1ff;exitX=0.5;exitY=0;exitDx=0;exitDy=0;" parent="1" source="bXVjA9wCsrYVd7rCYP2x-11" target="bXVjA9wCsrYVd7rCYP2x-3" edge="1">
          <mxGeometry relative="1" as="geometry">
            <mxPoint x="425" y="297" as="sourcePoint" />
          </mxGeometry>
        </mxCell>
        <mxCell id="bXVjA9wCsrYVd7rCYP2x-35" value="Create CIN" style="text;html=1;strokeColor=none;fillColor=none;align=center;verticalAlign=middle;whiteSpace=wrap;rounded=0;" parent="1" vertex="1">
          <mxGeometry x="390" y="540" width="95" height="30" as="geometry" />
        </mxCell>
        <mxCell id="bXVjA9wCsrYVd7rCYP2x-38" value="Create Subscription" style="text;html=1;strokeColor=none;fillColor=none;align=center;verticalAlign=middle;whiteSpace=wrap;rounded=0;" parent="1" vertex="1">
          <mxGeometry x="425" y="500" width="131" height="30" as="geometry" />
        </mxCell>
        <mxCell id="bXVjA9wCsrYVd7rCYP2x-41" style="edgeStyle=orthogonalEdgeStyle;rounded=0;orthogonalLoop=1;jettySize=auto;html=1;entryX=0.75;entryY=1;entryDx=0;entryDy=0;exitX=0.25;exitY=1;exitDx=0;exitDy=0;" parent="1" source="bXVjA9wCsrYVd7rCYP2x-5" target="bXVjA9wCsrYVd7rCYP2x-15" edge="1">
          <mxGeometry relative="1" as="geometry">
            <Array as="points">
              <mxPoint x="169" y="580" />
              <mxPoint x="679" y="580" />
            </Array>
          </mxGeometry>
        </mxCell>
        <mxCell id="bXVjA9wCsrYVd7rCYP2x-42" style="edgeStyle=orthogonalEdgeStyle;rounded=0;orthogonalLoop=1;jettySize=auto;html=1;entryX=0.75;entryY=1;entryDx=0;entryDy=0;exitX=0.25;exitY=1;exitDx=0;exitDy=0;" parent="1" source="bXVjA9wCsrYVd7rCYP2x-11" target="bXVjA9wCsrYVd7rCYP2x-15" edge="1">
          <mxGeometry relative="1" as="geometry">
            <Array as="points">
              <mxPoint x="390" y="580" />
              <mxPoint x="679" y="580" />
            </Array>
          </mxGeometry>
        </mxCell>
        <mxCell id="bXVjA9wCsrYVd7rCYP2x-43" value="Publish Notification" style="text;html=1;strokeColor=none;fillColor=none;align=center;verticalAlign=middle;whiteSpace=wrap;rounded=0;" parent="1" vertex="1">
          <mxGeometry x="335" y="580" width="130" height="30" as="geometry" />
        </mxCell>
        <mxCell id="bXVjA9wCsrYVd7rCYP2x-11" value="" style="rounded=1;whiteSpace=wrap;html=1;" parent="1" vertex="1">
          <mxGeometry x="355" y="270" width="140" height="187" as="geometry" />
        </mxCell>
        <mxCell id="bXVjA9wCsrYVd7rCYP2x-12" value="" style="shape=image;verticalLabelPosition=bottom;labelBackgroundColor=default;verticalAlign=top;aspect=fixed;imageAspect=0;image=data:image/png,iVBORw0KGgoAAAANSUhEUgAAAgAAAAIACAYAAAD0eNT6AAAABHNCSVQICAgIfAhkiAAAAAlwSFlzAAAOxAAADsQBlSsOGwAAABl0RVh0U29mdHdhcmUAd3d3Lmlua3NjYXBlLm9yZ5vuPBoAACAASURBVHic7d15uF1leTf+773W3mdKck4mkFFBSx2oEmiqiEkg/WFbtQ7UQm21FSGJ1tZ6tbW1ra82bX2trW8H68xU1ForATIgYicRB0QbIIGiDAoqkITMZ9zjeu7fHztAwAxn72etfa/1rO/nunzfq63n7O/KWWs/93pGAREVit564TBa7iSgdTwiWQSNFgPuGCBaDMUiiI4BmANgFJAhQOcCmAegMsuPqAGYBjABkQk4nYLoNFQ6/7PqNASPQd2j0Mp2DDS3oTH1mKz8ajujSyaiDIh1ACJ6Kr354vkYqS2DyplwyWlwyXGALIDThRC3AIoF1hkPwQF4DMB2ANsA3Q7BDwDcDxfdi8WVH8jp65q2EYnoYCwAiIzoA+8YxFT9+Yj0+XDyQkTudLTaS9FuHg/XFiRtQNU6ZlraAB6C4l6I3Ae4++BwH1oDd8nL141bhyMqIxYARH2gD108hH3RmZDoJRCcDWAJgOfgaN3yzgGuDSRJ5/9vtwB1/YjcLwrgfkA3Q+V/INFmjLTulKU3zFgHIwodCwCiDOgdl5yAWH4WipcBsgzAzwIYSueXJ52CIGl1CoIkQacdDUYbwPeg+B8INiNKvibLbrjHOhRRaFgAEKWg0+BH58Ph/4PgfAAn9PHTgeRA78DjRUFwdAdEvgKHrwDJV+TcGx6yTkRUdCwAiHqgW39zDpKhlyJy5wNyPoCzkJfnSfVAIdDs/McFNWTwuIcg+AqA/0bDfUXO3/SYdSCiosnHFxZRAejdbzkZSfRaQF4H4FzMflmdLZd0egUeLwjC46D6HUTYAETrZfn6+60DERUBCwCiI9DbVz0fFX0dVC4AsBRFf2Ye7x1oNTrFQDirDA72IFS/iDhah5et/6ZIWBMkiNJS7C8zogzoHW95ASR+IwSvB/Bc6zyZUX2yV6DVRGATCR/3MICNcHoNzt34DRYDRE9iAUAEQLe+7Vgg+XVA3wTFUus8/aedIqBVD3QSIQDgQQg+A8SfleXXPWgdhsgaCwAqLX3o4iFMxC8Hot+E6usAVK0z5YImnSGCZqMzfyBMt0PxWVSrn5Vz1u21DkNkgQUAlY5uWX06xL0dKm8EMGadJ9farQO9AsHOF5gBdD0EV2PZxv/mEAGVCQsAKgXdvKaKOHkdRN4O4DzrPIWjCrQbQKMWcq/AAxC9Em35lKzcsN86DFHWWABQ0PSei49Dq/pmiL4dimda5wlC0gQa9VCXFALAJBSfB+Qf5dz137MOQ5QVFgAUJL3jkjMg0bsh+FVwbD8bLgGa9c4QQZjDAw7Qm6DyT1ix4T85PEChYQFAQdEta5YB7t0AXgXe3/2hCjRrnWIgrIOKDvY9iH4Q7fF/lZVfbVuHIUoDvyCp8FQhuGv1q6H6bgDnWOcpLdUDPQK1ULcfBoAfQvGPcPM/JSuvrluHIfLBAoAKS3VthC0PvwEifwbgdOs8dJBWPfQJgz+G4u9RrV4m56yrWYch6gULACokvWP1+Yj0bwGcaZ2FjqBVB+oz4Q4NqDwK6IcwJ7lclt4wYx2HqBssAKhQdMslK4HoAwDOts5Cs6T6ZI9AqIUAdAcUa+HGr+QcASoKFgBUCHrn6p+D6PsA/LJ1FuqRamd+QL2GQM8dAID7IPJeWb5+nXUQoqNhAUC5pndc+izE0Yeg+qvg/RoGdZ19BFq1UJcPAsC3oPouOXfjrdZBiA6HX6iUS7p5zQgq+g5A/w+AudZ5KANJAjSmQj58SAH9V8Txe+Rl1//IOgzR07EAoFw5sKTv16D6twBOts5DfdBudCYKBrtiQOuA/ANGkvdzoiDlCQsAyg3dcumZgHwYwHLrLNRv2pkk2JwJd3qAyqMQfaes2HCddRQigAUA5YDee8k81KO/BvDbACLrPGTIOaAx3TmOOFxfRJT8jiy74cfWQajcWACQKb1z1SsR4RM8qIeeot0EalMBLxvEJID3Idn/US4bJCssAMiEbn3bsdDWhwF5g3UWyilVoD7d2UMgXFvh5LflvPXfsg5C5cMCgPpO77z0Qoh8HMBi6yxUAO0WUJsMuTdAofoRTDf/WF55U9BjH5QvLACob3TrqpOgciWgv2CdhYpGOxsINUOeRC/3APJbsuL6O6yTUDmwAKC+0K2rXw+nn4JgkXUWKrCkBcxMARrqkkE0Af0L7Bj4G7loXbAXSfnAAoAypbe9cRRDwx8CsMY6C4VCOxMEw14p8G1E7s2ybNN91kEoXCwAKDO6ddXZUHwWwE9ZZ6EAteqdSYLhbic8A5U/xor1HxcJdncEMsQCgFKnm9dUEbu1ELwbQGydhwLmkk5vQBLsdsIA8EVUqm+Wc9bttQ5CYWEBQKnSOy45AVF0DYCXWWehEqnPBD5BEA9BcKEs33C7dRAKB3ddo9ToXZeuQBRtBht/6rehEWBkFJBgv9JOheKbesvr3mkdhMLBHgDypgrB1lXvBvB+sMufLGkCTE8CLuDN9QTXo169RF6+btw6ChUbCwDy0pnlP3QVIK+3zkIEoHOYUH0q9B0E74PqhXLuxrutg1BxsQCgnukdl5wBia6D4DnWWYh+QrPeKQTCNQ3oxbJi47XWQaiYgh0wo2zpXatfgSj+Ght/yq2BIWDOWMjzAuYAco1+/YL3qPJljrrHm4a6pltXvxOqfw8WkFQEZZgXAHwBlepb5Jx1NesgVBwsAGjW9J4LB9Ca/wlAL7HOQtQVVaA20TlYKFSqt6Glr5PzNz1mHYWKgQUAzYrec+lCtKJrAV1pnYWoZ7VpoBX0S/IjUPcaOXfTndZBKP9YANBR6ZbVPw3ojeCWvhSCZq2zhXC4JhDhDbJsw03WQSjfOIZLR6R3rfpZQL8ONv4UioFhYHgeAn7/GYXDJr3lgjdbB6F8YwFAh6V3rjoPTr4C4FjrLESpqg52dg4MtwioQPSf9ZbXvss6COUXCwA6JN26+vUQfBnQUessRJmoVA8sEwy2CBCIfEhvueCD1kEon4K986l3euelb4bIFQAq1lmIMpckQG0ccM46SZY+geVLfldkbdAXSd1hAUBPoVsv/VOo/F/w3qAyUQdMj3eOFw7X5zFy7Jtl6WUBr4WkbvBLnp6gW1b/BaDvs85BZEIdMDMBJCFvGKQ3ojJwITcMIoBzAOgANv5UehIBw2NAFPKBlvIqJK2NevPFQ9ZJyB57AAi6ZdVfAnivdQ6iXFAFZvZ35gaE6z+QzH+trLw66CMT6cjYA1BynTd/Nv5ETxABRsaAKOg5sL+AeN96/dIrBq2DkB0WACXGbn+iw5Cos09A2MMBv4Q5Q5/XzWuq1knIBocASkq3XPo+QP7COgdRrmkCTE8EvjpArkWy79dl5VdDnv1Ih8ACoIR066rfhuLj1jmICkETYGq8s0ogXP+CHdWL5aJ1IVc69DQcAigZ3br6DVB81DoHUWFI3JkTEO6OgQDwJhzX5PdCybAAKBHdcskvQPXT4N+dqDtxGYoAeZt+/YL3WKeg/gn5bqaD6J2rfw6iXwEw1zoLUWG1W53NgqDWSbKiEL1Ulm/8Z+sglD0WACWgd771NEjyDfBUPyJ/rQZQm7ROkaUWoK+WFRv/3ToIZYsFQOD0nouPQ6tyG4BnWWchCkazBtSnrVNkaRKIzpMV199hHYSyw7HggOlDFw+hVVkPNv5E6RoYBgaC3k13HpDcqDe/7hTrIJQdFgCBUoVgonIlgLOtsxAFaWguEIe8h44ch4repLdeuNA6CWWDBUCotqz6cyh+wzoGUdBC3y1Q5Xlot76gN58X9L7IZcUCIEB656UXQsAtfomyJtIpAoJeHojzEY99wDoEpS/ou7aM9I5LliKKbgEwYp2FqDTazQPLAwMm+A1ZvuHz1jEoPSwAAqJ3XHICouh2AMdZZyEqnUYNaAS9MqAGwXJZvuF26yCUDg4BBEJvXluBRJ8HG38iG4PDQDXo03WHobhWb371YusglA4WAKFY8MgHIVhhHYOo1IbmdrYNDtcpiGNOCgwEC4AA6JbVFwD4A+scRKUnAgyPIvDR1Z9HZf4HrUOQv6Dv0jLQ2y/9KcSyGcCYdRYiOqBVB2pT1imypBB9rSzfeIN1EOodC4AC04cuHsJ45VYAZ1pnIaKnqU11CoFw7ULklsiyTdusg1BvOARQZPsrHwEbf6J8GpoT9iZBwDFw0ef0mguDvsiQsQAoKL3z0tdBsMo6BxEdhggwMg+Bd7Seh+Ob77IOQb0J+s4MlW5927HQ9t3g8b5E+Rf+yYFtOFkh563/lnUQ6g57AApGFQJtfxps/ImKYWAYqAxYp8hSBZH+i972ilHrINQdFgBFc9eqdwD4JesYRNSF4TmhnxfwbDQHPm4dgroT9B0ZGr191fMR43YAw9ZZiKhLrQZQm7ROkS3RX5HlG9dbx6DZYQFQEHrPhQNojX0bwBLrLETUo9pkpxAI13ZI63RZfuM+6yB0dBwCKIrW6J+AjT9RsQ3NAaKg37uOhw78nXUImp2g78RQ6NZLnguNtgAYss5CRJ5KMRQgr5Dl679sHYOOjD0AOae6NoLKFWDjTxSG6mDoqwIA1U/pN14zzzoGHRkLgLy765G3ArLMOgYRpSj8VQHPhMpfW4egIwv6Diw63bzmeFTcdwHMt85CRCkLf4MgB3Ur5dxNX7MOQofGHoA8q+jHwcafKEwDQ0BcsU6RpQgSfVI3r6laB6FDYwGQU7pl9QWAvs46BxFlRYChudYhsvZ8zOz8HesQdGgcAsihA8f8fhfAqdZZiChj9SmgGfSxweOI5aflZet3Wgehp2IPQB6NV98FNv5E5TA4EvqEwDE4/YB1CPpJQd91RaRbV50Exb0A5lhnIaI+adSARuATAoGXyooN37EOQk9iD0DeOPwt2PgTlcvgEBDF1imyFEHxMdW1bHNyhH+MHNE7V58DwRuscxBRv0lnm+CQCZbia1t/0zoGPYkFQE6oro0g+o/gsAxROVUGgErgK+bEfZA7BOYHC4C8uOuRNwH4OesYRGRoaC7CfgeQ45BE77ROQR0h32mFoZvXVFFx9wJ4tnUWIjJWhmWBleqz5Zx1e62DlB17APIgdmvAxp+IAGBwOPxlgUnzj6xDEHsAzOnmNSOouAcAnGCdhYhyIvxegBoq7dPknC8+ah2kzNgDYK2i7wAbfyI62OAIAn8/G0a78ifWIcou6Dss73TzmjHE7gcQLLLOQkQ505jubBAUriYkfr4sv+5B6yBlxR4ASxX3h2z8ieiQqsH3AgxA3f+xDlFmQd9deaZ3XjwfUv0RoKPWWYgop+rTQDPoXoAEGj9fzr3uAesgZcQeADOV32HjT0RHFP5cgBhI3mUdoqyCvrPy6sBxvw8BOM46CxHlXPgrAhpAdKqsuH67dZCyYQ+Ahf2VS8HGn4hmY2AYgb+rDUKT37EOUUZB31V5pNdcGOO0sfsgeI51FiIqiJkJoN20TpGlfYjcs2TZpknrIGXCHoB+++mxX2fjT0RdGRqxTpC1BXCyyjpE2bAA6CNVCIA/tM5BRAUTVYA48JMCIX+g91w4YJ2iTFgA9NPW1b8AYIl1DCIqoMHgewFOwt7Wr1mHKBMWAH2lnOhCRL2pVIEotk6RLYc/sI5QJpwE2Ce6ec0zUXEPAgj8CSaizDTrnWWBIYuil8qy62+zjlEG7AHol1jfBjb+ROSjOojg39ucrrGOUBaB30n5oPdcOIDW2MMAjrXOQkQFV5sCWkFvDFSDtE6U5Tfusw4SOvYA9ENr7CKw8SeiNAwMWifI2jC0+kbrEGXAAqAfBG+3jkBEgYirQFyxTpE1fmf2AQuAjOndq14ExUutcxBRQKpD1gmy9ny95bXnWIcIHQuArCVysXUEIgpMdRCQ0KdwRW+1ThC60O8gU3rz2goWPPIwePAPEaWtNgm0GtYpssTJgBljD0CWFj36crDxJ6IsVMswGbDyeusQIWMBkCXnfss6AhEFqjIASOhf4cKtgTPEIYCM6G1vHMXQ8HYAwW/gTURG6tNAs2adIksJmu5EOX/TY9ZBQhR6+WhnePhCsPEnoiyFPwwQYyC60DpEqFgAZOc3rQMQUeDiSvgHBEHfYJ0gVBwCyIDeveoZSLANLLCIKGuNmc5/wqVI8GxZueGH1kFCwwYqC4lcAP7bElE/VAesE2RNEOmvWocIERupTOhrrRMQUUlEJRgGEOEwQAY4BJAy3bxmDBW3E0DwZTkR5UT4qwGABKdyGCBd7AFIW5y8Cmz8iaifKiX4yqnoK60jhIYFQNqi6HXWEYioZCrV8M8GUHmFdYTQBH7H9Jc+8I5BTNd2AZhnnYWISqYMZwNUqovknHWBj3X0D3sA0lSr/zzY+BORhfCHAYaRtM+1DhESFgBpStwvWkcgopIKfzkg4ByHAVLEAiBNIudbRyCispLOXICQifyydYSQsABIiW5eczyAF1jnIKISiwMvAIBn69cv+GnrEKFgAZCWSnI+OKmSiCyF3gMAAE45DJASFgBpUXb/E5GxqILg30ME51lHCAULgLQIft46AhGVnAhQqVinyNoy1dCrnP5gAZACveMtLwBwknUOIqISLAdcjK++/rnWIULAAiANUjnPOgIREQAgDr4HAIjby6wjhIAFQBpEX2odgYgIQGclQOjbAkNYAKSABUAq9CXWCYiInhAF3wvwMusAIWAB4Em//VuLAPkp6xxERE8Ifxjgp/QbrznBOkTRsQDwNVA9G8GvuyGiQinDfgAasxfAEwsAXyLs/ieifIli6wTZUz3HOkLRsQDwd7Z1ACKip4hiQIL/ej/TOkDRBX+HZOnAZhRLrXMQEf2E8OcBnMENgfywAPCx5a0/BWCBdQwiop8QfgEwH9989cnWIYqMBYAPcT9jHYGI6JDCLwAArbzIOkKRsQDwc7p1ACKiQyrDREDgDOsARcYCwIuyB4CI8imKS7AjoLIHwAMLAD8sAIgov4LvBWAB4IMFQI9085oqgNOscxARHVboBYDKabr51SPWMYqKBUCvBvA8AMGfu0lEBRb+RMAYdXmBdYiiYgHQK+UKACLKufA3AwKS6NnWEYqqBHdHRhyeax2BiOiIwu8BACI91TpCUbEA6FWEU6wjEBEdURQj+LPKnLAHoEcsAHqleJZ1BCKiowp9KaDwZaxXLAB6pqdYJyAiOqrQVwIA7AHoEQuAHujNayuAnGSdg4joqKLgv+afpddcGHyVk4Xg74xMjD18IoASzK4hosKT4NvGKp7RPME6RBGxAOhJdIp1AiKiWQm/BwAAVwL0ogx3RvrEnWIdgYhoVkKfBAgAiFkA9IAFQC8iOdE6AhHRrMTBDwEAkTvOOkIRsQDozTHWAYiIZqcEBYBikXWEImIB0AsV3mxEVAxRCYYA+J3cExYAPVH2ABBRcYQ+D0BksXWEImIB0AsBbzYiKo7gDwVSfif3IPS7IhvKm42ICiT0HgDwpawXLAB6wu4mIiqQ4HsAWAD0Ivi7Im360MVDAOZa5yAimrXwewAW6M3ncXfWLrEA6NaegQXWEYiIuhP8V71gYMFC6xBFE/xdkbpBjFhHICLqShmWArqIPbNdYgHQrVZr0DoCEVF3SlAAtDFgHaFoWAB0qxIPW0cgIqKnqTi+nHWJBUC3Eh2yjkBE1JUSdABAlQVAl1gAdCsCCwAiKpgSVACOBUC3WAB0y7EAIKKCKUH7j0g4B6BLLAC6FUUsAIioYEpQAXAIoGssALqmrDKJqFjC3wgIiMACoEssALrltARPEhFRwTguA+wWC4BuSdS2jkBERE8jUrWOUDQsALolSKwjEBHR06i2rCMUDQuAbjnHAoCIikXVOkH2IjStIxQNC4BucQiAiCh/NGYB0CUWAN2KOARARJQ7TlkAdIkFQLdcwgKAiIqFQwB0CCwAusUhACIqnBIUAOo4CbBLLAC6N2MdgIioKyVo/xFzCKBbLAC61ca4dQQiou6UoAJIpGEdoWhYAHQrrkxYRyAi6k4JCoBqstc6QtGwAOhWNWIPABEVSxkmAQ7IPusIRcMCoFsv+Pg0AE4EJKLiCL8AaMrSGzg/q0ssALokAgUwaZ2DiGjW1FknyNp+6wBFxAKgJ8phACIqjvB7ANj93wMWAD3hPAAiKpDQCwBVFgA9YAHQC9Fd1hGIiGYt+CEATgDsBQuA3jxqHYCIaNZC7wEQ5RLAHrAA6IWTbdYRiIhmJfi3fwCCh60jFBELgF6IYwFARMXgSnB+mYsesY5QRCwAesIeACIqCFeKHgAWAD1gAdALiTgHgIiKoQxDABAOAfSABUAvohZ7AIioGMowBBArewB6wAKgF7uftR1ACZ4qIio8F/gKAKCBc9ZzaXYPWAD0QFaubQNgLwAR5Z8G/67yyIEt2qlLLAB6d791ACKiowp9EqDIj60jFBULgF4pCwAiyjnV8CcBqt5rHaGoWAD0jgUAEeVbGSYAKu6zjlBULAB6xwKAiPLNta0TZE/YA9ArFgC9csoCgIjyrQw9AImwB6BHLAB69YOJhwA0rWMQER1WEnwBUMN5SzgJsEcsAHokF61LIPiBdQ4iosMKfQmg4j6RtYHPcswOCwAfirutIxARHZqG3wMgnADogwWAnzutAxARHVJSghdjEb6EeWAB4EVYABBRPrmWdYLsqdtsHaHIWAD4aMvt1hGIiA4pKcESQAzcYZ2gyFgAeJCll+0GeA41EeVQ+AXAD2XFOh4C5IEFgC9VVqBElDMlmAAIsAfWEwsAb5wHQEQ54xwQ/gF5LAA8sQDwFQl7AIgoX9olmADohBMAPVWsAxReS25FRRWAWEehI0uaiqTZeTnSBFDtvCGJCCQGJAKiGIgHBFFsHJZS5ZLO398lncPxnvL3j6Tzt4+AeKDz9y+88Lv/FW3w5ctTAHe6Pd2y+h5AX2Cdg56UtBTNaaA5pWjVO1/+2kWP6OOFQGUAqI4IBkYElaHs8lJ62nWgOaNozSjazScb/tkSAeJBoDokGJjT+U9czS5vJqb3hz4J8LuyYsPp1iGKjj0AqdCvAWABYCxpKmrjQG2/Imn6jX+6BHA1RasG1MY7vyuKgYE5gsF5gqHRzlsj2VMH1CcUjUlFc7q7xv6Qv087RUS7rqjt7/ztKwOCoTFgeH6EeCCF0FlSDb3xB4BbrAOEgAVAGlS/DpG3Wccoq/qkYma3ojmT7aQnl3QamvqEYmKbYHAeMDRfMDSPHWl9p0B9SlHfr2hMPtmdn5V2UzG1C5jalWBgjmBkUY7/7kkJxv9VWQCkgAVAGqR6CxB8xZ0v2mmMp3Y7tOsGH6+K+kQnQ1wF5iwSDC+I2CuQMXXAzD7FzB5F0rKZ5d6c7vQ0VIaAuYsjDI1KvgZTyzABMNavW0cIQZ5u20LTLaseBHCqdY4yaNUUE9sVrVq+ljlFMTCyUDBnMQuBtKkDpnc5zOwDXJKvv3t1RDB6vKA6lJOv0/DH/++XFRueax0iBOwBSIvga1AWAFlSB0w+ppjZm89DTlwCTO1SzOxLMO8ZEYbHcvZmWETamdMxudPB5bRNa80o9vxAMbIowrxndFaVmCnF+D+7/9PC95S0OPmqdYSQtRvAngddbhv/g7k2MP6ow56HHFo16zTF1aop9jzkML4tv43/wWb2OOx5UNFuGPZQlGL8P2IBkBIWAGkZaH0ZJdh6y0JtXLHnwcT2i7UHrVon99SuYuXOg6mdDnsedLkb5jmadl2x50GH+rhR7vDH/xVxcrN1iFCwAEiJnH71DgDcFjhlM3scxh9x0Py/+B/W442Z79LEMkhawN4fukIXTeqA/Y8YXUO72f/P7K87ZdmmbdYhQsECIFX6JesEIZncoZjYUdyG4GCd3gCH5nQY15OF5rRi9/eTYP6NpnY6TD7Wx8rVJfDeBCH39IvWCULCAiBNGt1kHSEUk485TO8p8Gv/Ibik83Y7szeMBi5NtX2KvT8qdk/PoUzvVkzu6NNFhf/2D0ButE4QEhYAaXpg/7eh2GMdo+im9yimd4fbSE5sd5jcGe71dWtyZ2eiX6gzaPp2P4dfAOzC8iU8AChFLABSJBetSwD8h3WOIquP9/GNydD0LleK6zyaiR2K6QKP98/W5GMO9YkMr7MUy//wJZG1fGhSxAIgbQLOA+hR0lSMby/P8z29RzEZyByHXkzudJgJbJjnSMYfddmtZGk30dVpV0Uk7P5PGwuAtEXVGwEE3xeXNlXFvocdNPQ5TE8zvafYM957NbWrHG/+B1MHjD+i2cxzCL/7v4W2/qd1iNBwn7IM6JbVXwT0VdY5imRyh2Y66a86DAzMjVAdAiqDgqiiiOLO7e+Szpeya3W+R9vNzu5urVpGX9aHMP+kCENj5Xgca/sV44/25x9WogPHOQ8B8aCgMghElc7//uC/v2t3Nptq1TvHSLdqmtmchDmLBPOOS/nda3JP4D0AeqOs2PjL1ilCw62AsyB6DRQsAGapXc+m8Y+rwMjCCENjQFx9euP65P8cxQLEnf9+deTJ/7tqpyGoj3f+k+UKq/FtDvFgjOpQdp+RB62aYmJbtg1VFANDoxGG5gPVYcHRduaNYkEUA5VBdA72QWc/gvp+xcy+9A8dmt6rGF6gqAymVPCVo/v/C9YRQsQCIAu12gYMDdcBBP51no6J7el+eUUxMPfYCMMLjv7lfyQiwMCIYGBEMHpc59jh6V0OrQxOH1QH7P+xw6LnRIji9H9/HrgE2P+wZnZ0b3VYMGfxgWN6PdvWuArMOUYwslhQ26eY2unSKwC1sxJk4Skp/aFbwXf/N1CvbrIOESLOAciAnP25CahyNcAs1McVzZn0GoShUcHi02KMLPRr/H+CdH73oufEWHhKlMnJb0mrf13jFsYfcZkc4VsdFiw8JcKiZ6d/NK9I54THxafFT/QOpKE53Skoval2xi5CpvIlefm6cesYIWIBkBWRddYRimB6d3oN3ujxEeafnP0b9MAcwaLnRBg9IXpiHDktjUlFzWof+QzV9isaU+n39IyeWCt05wAAIABJREFUIFh0aoSBOdnOn4hiYP7JEUZTHLuf3pnCvZ+0wu/+h2P3f0ZYAGRlyG0EwLPgjqAxpal0p0sELHhmhJGF/Z1EN7KgUwgMjKT7uZPbi3H63Wy5NlJf7jgwB1j0nBgjC6K+TmUeWSSYf3IESeGbs1WHf1HUCvztH5iBG+Dyv4ywAMiIPO+qSSh44x5BWrujjZ0UYXCezQz6uAosPDXC3MXpfb5LOmPEoZjY5uCS9AqAuccIFj4rRlxN7Vd2ZWhUMHZiOl+dfvsgaBmW/90oK9dNWYcIFQuAbP2zdYC8SlpIZex/9LioM+nL2NxnRBg7MUpt3kF9Qgt3FO6hpDbWjc54/NiJEeYe29+3/kMZGk1nKV9jCr339rRKMPsf0aetE4SMBUCWlpz0ZQAPW8fIo/q4/zrroVHByCL7xv9xw/MPdA+nFKmvJ8llJK1rEAHmPzPC8Pz8/L3nLJJUis+e53w0M1iOkicqj2JH/GXrGCFjAZAhkbUOgs9Y58ij2rhfwxDFgtHj83f7Ds4TjJ2UTq7mdApjxIYakyn1YggwdnKEwbn5afwfN3qC/3yA+v4engWXdLrRQiZ61YHzVSgj+fsGDc+VCPacs964NtD2fHmZe0xnR7c8GhpNrziZKvCpgVNpzHJHZ3VHHoZ5DiWqAHOP9cvWqqP7PQaawU/+U8Rg93/GWABkTM644iEAt1jnyJPmtF+jFlWA4T7P+O/WyELpzFD31KopWgVcS9KcSWeFx8gCwciCnP+tF0SIKn4Zu3smFJnsRpUngv+Sl234gXWM0LEA6Au9yjpBnvgWACMLI0iqu/xkY97xgkoKe0EW8cS8mb3+PReVIWBeDod5nk4iYGSB3+/o6ploN9G3QyqsOL3SOkIZ5P/pCkE7vg7APusYeeH78jI8lk6OrHVmrcfeM9brE1qofQFcG2hM+BcAYyfG6e7mmKHh+X5fpV09E6FP/gP2YLq5wTpEGbAA6ANZetkMIJdb58gLnzPRK0NAPFCQVgFAdagzW9yHqv+kyX6q7Vfv1WlzFkuhDkaKB+DV25PMdkjfJUA78Ml/0KvklTcFP8khD1gA9E38TwBCf3KPyrX9ei8HM97yNQtzFov3lsGNlNbS94Nv1igG5iwu3leTz3bEnSOJZ/HvFv7bfxuR+6h1iLIo3lNWULLkk48CWG+dw5rvyqXKcPEKgCjunFLnozndw0xxA66taHou/ZuzuJgnIvoeEJUcbVM/LcHkP+i1suyGH1unKAsWAP2k8mHrCNZ8t4StDKQUpM9GFgjEs1ErQi9AYxJei14lQt/PdEhLZdDv5507ynW36uHv/Cf4R+sIZcICoI/kzMtvBfAd6xyW1PMtNq9r/49GYmB41O9xK0QB4Llx0fD8dA7aseC7FFDdUf7twu/+/5Ys3/ht6xBlUtBHrcBU/sk6giXfF5iiNg4AMLLQ7+eLcDaAb0bffyNLvvfmEefGtJrFGAPyIfIP1hHKpsBfpwWVyDUAHrGOUVzF7B4GgMqQoOKxgiFpYXYTxYy4tt8cj8qgoDJY3L9vpvt9FnE3qO78GO19pZ8j1W8sAPpMll7WguBD1jms+K7rLvr+J4Ojfj+f53bA9+1/cF5KQYyoZ/fWYXsQknb4S/9E/k5WfrVAu12EgQWAhdH2ZQC2W8ew4DsRrkgb4hyK74E2rXp+ewC8C4ACLvE8mO8Kl8OufGhM+/3i3NMdiCvcJ8UACwADcurVdShKOd4Ved5xPpsI5UHFd6lYjl8EvbIJUB0peAHguXXNIXsASvH2H31IzlmX476tcLEAsBI1Pg5gl3WMfos9x3iLMBHuSKLYbydDl+O2wGv8f0AKPcET8L83D3lfNGa8fmcB7Ea7cpl1iLIq+CNXXHLGZ6ehKN2+AFEMr13xfA8SygOvLWNzPgmwV3FB93c4WMPj3uw8F0/7XybtzsE/YfuQrFw3ZR2irFgAWGrUPoISHhIUD/T+RdluFP87MfbYy8C18ttN7rNCIfZcQ2+tXdej7+R3BIdc/RD+2/8eRO4T1iHKjAWAITn7cxOAlm7nq6rndr61fcVeCuBVACSa7XKzXqnfMvWo4D0AtXHPHS6f/ky4pPiV7lHp38uyTZPWKcqMBYC16uDfA9hhHaOffA5NAYDaPvXeUdCSeL7t5nE/GOdZkxVx7//Hqevckz4GR572v6iHPvMfOxHpR6xDlB0LAGNy+senIPhL6xz9NPD0L7suuQSY9vzCtRRFftnzuBeC9xbPBf4mmt7tvIuy6sFFcdIK/+1f8F6+/dsr8GMXkL0nXQ7B96xj9EtUEe9hgOldDkmrmEWARJ49AEfbM96Abybf/SGsJE3F9B6/a68OP60HJPy3//vQ3n+VdQhiAZALsnJtG5D3Wufop6Exv59XB4xvy+l4+FH4Nna57AHwzFTUJYDj25z3tQ/PP+jiW43O7P+gybu5618+FPSxC4+ccfl1AL5pnaNfhsf8b73mlGJqVw5bw6OIPHsANIdfnb6ZijgEMPmYQ9PzZV0EGBo76H4Ifea/6m1Yvn6TdQzqKOBjFzDBu1DId9ruRRX/bXEBYGqXek/A6jfv7ZBzeLm+mYo2BDCzTzG92/8PMThXnuz+b9byOcMzTRK/S6Qc33FFwAIgR+SMK24D9HrrHP0yZ3E6a7/Ht7lCFQG+M97zuALCexKgx+ZQ/TazVzGxLZ2ep5HHnwF1QCP03XDlWllxfWl6OYuABUDexO73AQQ/CwjoLAf0nQz4uPFtDlM7i1EEiMDrVOMQCwDfUyL7ZXKHw8T2dBr/gTnAwOPnH9Rr+ZzckZ4ZJPpH1iHoqVgA5Iy88J8fhuAD1jn6Ze4x6X3zT+1y2PtD57UjW1+IX4MX2ioAieBVEPVDu6nY+5DznvF/sLnHHPj6Tdr5Puc5DSp/JSs3/NA6Bj0VC4A8qoz/PwD3Wcfoh8F5gsG56f2+5rRi9w8STO10nV3zcspnGCCPL4o+mfK8CZBLgMnHFHu+79CcSe9+GhyVJzfEqge/Ff4DmK6X8vTTvGMBkENy+romFO+wztEv846LU+0CVteZHLjrAYeJHZrLEwR99gLI4zwxn0y++yJkoVVTTGx32HV/gundDpriLSQRMHrcgWtu1cNf9ifye/LKmzwPS6Ys5O/JoyfolkuvBeT11jn6YWpntkv64qpgYA5QHekcPRvFAonVbP35vh/1XpgMzhWMnZSvR3f8EUVjqrfrqQ4LFjzL5nrUAZoIXKJoNzoNf3MamW4yNe/YCHOOEUAVmNqLVKuL/PmCrNjwBusQdGj5+hahp9DNa56JivsugDnWWfph70PpdrMS5c3AiGDhqQeqzvoU0KzbBsrWJCrt58s5X3zUOggdGocAckyWXvZjCP7MOke/jJ0U5Xo8mMhHFAPzT3584l8r9MYfUPlTNv75xgIg71500keh+Jp1jH6Iq50igCg40mn8owoAKFALfuLfrVhxxiesQ9CR8ds250TWOsTuLSjJ3gCd8W3elhSWsROig2b9z+RzJmd6ZqDxxSJrc7hehQ7Gb9oCkBdd9SCAP7fO0S/DY4J5x/LWpDDMe0aE4fkHGv+k3dnyN2SKP5Nzr3vAOgYdHb9li+KMk/4B0G9Yx+iXOcfIk0uliApq3jOiJ7e8VgVqk7aBsvctPFb9qHUImh1+wxaIbr3kudBoC4Ah6yz9UtuvGN/mSnJEEoVk7IQIwwsO+oqtT4f+9t8A9CxZsfG71kFodtgDUCByxlX3AfIe6xz9NDxfsOBkrg6g4ogqwMJTntb4l6HrH/gTNv7Fwh6AglGFYOvqGwB9lXWWfkpawPgj3CeA8m1gjmD+SY/P9j9AFZjeH/rEv3/H8g2v4FG/xcIegIIRgULiSwDssM7ST3EVWHhqhLnHRma79xEdjkTAvOMiLDzlaY0/0NnwJ+zGfyeS6sVs/IuHPQAFpVsv/SWofAkl/BsmTcXEDkVjkt83ZG9wnmD0+Ahx9RD/x1Yj9Il/CkSvlhXX32gdhLpXusYjJHrnpf8IkXda57DSmFJM73ZolmKHBMqbwbnAnMUHre9/Opd0uv5D3utf8HeyfMO7rGNQb57eWUVFMnfk3ZiunQtgiXUUC4NzBYNzYzRnFDO7FfUp5WoBypREnTf+OYsiVIeP8l+uTYbd+AN3YGG1NFuVh4g9AAWnd615Hpz7DoB51lmsuTZQn3So7wcnC1JqRDqnSA6PRRgcldmtSGlMA42gZ/2PQ+TFsnz9/dZBqHcsAAKgd656LQTrwb/nEzTprLpqTrnOketNRdKyTkVFEFeBeEBQHe4cIT0wIt1NPC3FuD8ulBUbrrMOQn7YYARC71z9AYj+qXWOPFPXKQScO3AOvPFO5RPbHVy7t58dGBGMLMrH4zuzV9Gc7q3HJaoAo8fbLuuQSBDFCpFOw++1yiRpAzPjYXf9C94vyze81zoG+eMcgFAsOfH/YMvDSyDyCusoeSURUBnKR6MJANO7Ba7de8M5NJqPa6lP9N7YxVXJyXWkkOHxrX5DbvyB/8L26lrrEJQOrqgOhMhahwG8CcCD1llodnzeNPO0rLzXXgzA798gd2rBr/f/EZLk1+WidUFfZJmE9PiVnpx+5V449ysAZqyz0NH5NH7WwxcHU9f7G28wBUBjBmg3rFNkSOsQvF5W3rDbOgmlJ5THjw6Qs67aCsFvW+ego/M538Cn0U2but67z4M446Hd6hQAIRO8VZZvuN06BqWLBUCA5IwrPgPgI9Y56MiCGQJIStwD4BKgNmGdIluCD8vyjZ+xjkHpK/rjR4ez76Q/gOAW6xh0eFEwQwC9/6zPv4E5VWAm9El/+k0srP6xdQrKRpEfPzoCWbm2jQi/BuBh6yx0aBL33nWuDrnZ9dCnAPD5NzBXm/SbAZl/DyOOfkVOX9e0DkLZYAEQMHnhFY8B+qsA6tZZ6CeJ5/h3HoYBfDP4/huYacwA7ZDbRa0jcr8iL1u/0zoJZYcFQOBkyZXfgYKHdeSQb/d3HoYB1LMAKOQQQFKCSX+Ifl+WbdpsnYKyVcTHj7okZ17xMSiutc5BT+XdA5CDlQC+RUjhegDUdcb9w7ZOVqz/pHUIyh4LgLJIolXgJkG54jsDPg89AN5DAEX7BqpN5uMfPjs/QKO62joE9UfRHj/qkSy9bBzO/RqAkAcuC8V7CCAHcwB89yMo1BBAs9ZZ8x+uFkTfKC9fN24dhPqjSI8feZKzrtoMxbutc1CH/xBAOjksMxRmCCBpAfXAx/0VfyTLN37bOgb1DwuAsllyxYehepN1DOqcQucjhB4A33+DvlDt7POfl3WXWRD8J1Zs+CfrGNRfLABKRgQK1VVQ7LHOUnZBDAEkfg14IbYCrgd/yM9+OL1UJOQKhw6FBUAJyVlXbYNgjXWO0hO/LvA8rALw2ga4CI1/uwm0Qj7kB4Dq2+TcjdwwrIRYAJSULLniegCfs85RdkXfDtinByD3EwDVHej6D5jKZ+TcjV+wjkE28v4IUpa0/bsAHrGOUWZFPxAo6KOAw1/y9zCald+zDkF28v4IUobkzKv3Q/FW6xxl5tMI5qFt8lkFkOsCoNUIfckfoO53ueSv3PL8CFIfyJlXfAmKz1vnKKvI90AgYz49AD7Xnil1nYl/YfsXOXfTJusQZIsFAAHN5jsA8NAPA35DAHmYBNj7z+a2B6A+HfgRv9iNWP7QOgTZy+sjSH0kL/nMHqj+vnWOMvLqAfBcgpcGn16IXPYAlGHWP+QdPOWPABYAdICceeW/QvAl6xxlI3Hvb5q5GALw6QHwuPZMqAK1aesUWfuSrFj/b9YhKB9YANCTouj3ANStY5SJz054xR8CyFkPQGMmH7srZacGid9hHYLygwUAPUFeeNkPIPigdY4yiSK/RtyyF8D3s32vPVVJ0jnsJ2x/Lcuv44mg9AQWAPRUI8MfBHC/dYyyEM9x8CIXAL7XnqrwZ/1/H8n8D1mHoHxhAUBPIad9pAE4dhP2ie9MeMsTAX2HIHKzCqDV6Jz2FzLVd8rKqzm8R0+Rl0eQckSWXPUfEGy0zlEG/gcC2XWjq/M8CCgP3z6q4b/9C66Xczdygi/9hDw8gpRHUfSHAEJfD2VOKn6NqDNcCuh9FLDntaeiMRP6mv8mXPwn1iEon1gA0CEdmBD4CescoRPfSYCGPQCu7ffzvtfuzSVAK/RecfknOfe6B6xTUD6xAKDDq+hfAdhrHSNkkedSuCJPAvS9dm/hv/3vRaXy19YhKL9YANBhyelX7oXir6xzhMx3Mxzn2Q3v99l+P2+6EVDSLsGOf/hzOWcdC3g6LBYAdGRJ9DEA37eOESoRgXi8CPtOxPPhNfwgnWs3E/rEP+B+jBz7KesQlG8sAOiIZOllLaistc4RMq8jgU1XAfT+s6YrANrNTg9A0OTPZellga9tJF8sAOjolpz4eUC2WscIlc+GOKb7AHh8tukmQPXg9/u/G8vPuMY6BOUfCwA6KpG1DurWWucIlc+WuJZb1/v1ABj1XLQafgcYFIHoe0TW5uCoKMo7FgA0K3LmlRsA3GadI0RePQCGbZnPMkCzHoDGjM3n9s93sGzjF61DUDGwAKDZU7zPOkKIJO79Z3034/Hh0wPgc809a9bDf/sH/kwEQa9tpPSwAKBZkzOv+E8At1rnCI3PhDjTVQBFmwQY+ml/qrfJig3/bR2DioMFAHVHlMcFp8xnFYDvgTw+fD677wcBlWHsH9yzg7rDAoC6ImdceQOA261zhMRnPLyoOwH2fQ5AM/ix/61YsfEm6xBULCwAqHuqf2MdISReqwAcYDXiW5hVAK0GkIT+9q/v59g/dYsFAHVvycnXQfA96xihEM898S32AvDtTfe95q6EPvYPfA/Lz7zeOgQVDwsA6lpnjbH+vXWOUESeM+It9gLwXX3ge82zlpRg1z/F33HdP/WCBQD1ZmTkswAes44RAt/xcIt5AJr4Ze7bHIBG6Mf9Yifc/M9Zh6BiYgFAPZHTPtIAhIeNpEA8x8MtJrf7rj7wveZZcUln3/+QCT4uK68OvsqhbLAAoN5J/DEA/PLx5Lsm3mIzIN9eh77sA9AIfuy/gYb7pHUIKi4WANQzOeOTOwH5V+scRefbHW4yCdDzMzMfAlDtzP4Pmn5Gzt/EYTjqGQsA8qP4iHWEovPdFMekB8B7FUA6OQ6rWYfZ+si+0Y9aJ6BiYwFAXuTMy7eAhwR58R4C8JyQ19Nn+g4BZL0KoBX6yJR+U1Zsuss6BRUbCwDyp8pxSB9SvO2AnUevQ+Zv/+1mCbb9FT5z5I0FAPmrjV4DYK91jCKLfLYDtugBaPf+mT7XOivN0N/+sQfJ/GutQ1DxsQAgb3LOP9QA+bR1jiLzWRZnswrApwcgw7zOhb/0D/LPXPpHaWABQOmI5DLrCEXmMyu+aKsAMl0B0Ap+6Z9CcLl1CAoDCwBKhbzosnvByYA985kIWLQegEz3AAh/6d+tsnz9/dYpKAwsAChFHAbold8kwPRyzJbPvIPMJgG2WzbdIX0V8Rmj1LAAoPRElS8ACP0VLBPisSzO4iwAr1UAWS0BDH/pXx2JrrNOQeFgAUCpkRd9Yh8UN1jnKCKfdfEmpwF6fGYWewA4xHCBH/oHyHpZuWG/dQoKBwsASplebZ2giCTymARocRiQzyRAj2s9nJo7BpEG3vkk8hnrCBQWFgCUrv0n/zuAXdYxisZ/O+B0csz6szzmHWYxB0DCn/2/G+19/2UdgsLCAoBSJSvXtqHYaJ2jaHy7xfteAHhIewjAaRXDjR+m+0tzR6+VlV8NfpCD+osFAGXhGusAReP7VtzP7YB9hxzS7gGo6WIIAt/6VyNO/qPUsQCg9O0/6WYAO61jFIl/D0D/tgPOWw+AtKbT/YX5swtu39esQ1B4WABQ6mTl2jYg661zFEmRjgT2/aw0ewASDGK4+aP0fmE+sfufMsECgLLhwMNKuuC7Nr6fS+C8hwBS7AGoucUQi3WQ/XWddQAKEwsAyoaTWwBwzfIsRZ5L4/o6CdCzvfW91oOVYPb/OEaOZfc/ZYIFAGVCll7WAvAf1jmKQmK/bvV+7oDr+1m+1/o4RVyG7v8vHXiWiFLHAoCyxF0BZ0lEIB4vxtrHVQBenyWda01DzS0uweY/fIYoOywAKDtV/RIATl6aJZ/Jcf3dB6D3BjzNkwD7ufTRSBtofdk6BIWLBQBlRk6/ci+Ab1nnKAqfyXH9HQLIx0FAg41t6f2yfPqaLL9xn3UIChcLAMqW6E3WEYrC5+24KJMA0+oBaOh8VF3oc0yFb/+UKRYAlC0Xcf/yWfI5JKevcwB8egBSWgHQcPNS+T25pgmfHcoUCwDK1pITbwew2zpGEUil9591Sf92AvT5LJ9rPFjcnkznF+XXbqw4a6t1CAobCwDKlMhaB8VXrXMUgc/LcX+HAHrvAUijA0A1xnDzYf9flGv6XyJr+/hXpTJiAUDZE/yndYQi8JoE2M/DgDyapTQmAdaxMPzlf8B/Wweg8LEAoOxFjmOZsyCxxxyAghwH7HONj0uSlMYR8iwRPjOUORYAlDl50VUPAnjEOkfeRVHvb/FFKQB8rvFxcXvc+3fk3COycsMPrUNQ+FgAUL980zpA3vnOkO/HMIDvZ/heo2qMwdZ2r9+RewLu/U99wQKA+kRYABxF5Dk+3o9eAN/P8L3GGhYj0tC3xlc+K9QXLACoT9w3rBPkne/4uPZhKaDvSYC+19jWAb8ARaDKZ4X6ggUA9cf9E3cBMmEdI89EPE8E7MsQgN/P+15j3JryC5B/49gxeI91CCoHFgDUF3LRugTQb1vnyDMOARzdUCv0/f/1W51nhSh7LACof1Q2W0fIM+8hgAIUAD7X2NI5iN20X4C8Ez4j1D8sAKh/ItxuHSHPxHOJnG/3fD8+w+camzrq9+FFoHxGqH9YAFD/JI5vN0cQFaIHwK9I8blGp/0778BMEvEZob5hAUB9I2dd+SMAO61z5Jl4PJHOs3Ge3Wf0/rM+1wYAcTvwCYCKx2Tl9dwwi/qGBQD1lyq7OI/Ap5H0XaKX9Wf4FQCCwdYOn1+Qf8Luf+ovFgDUX5FwJcARRAEXAD7X1sBCxG6m919QCHw2qL9YAFB/JdwR8Eik4jFG3oc5AF5DAB7X1khGev/golBwAyDqKxYA1F8LWt/ghkCH53UgUO57AHq/tjgJ/e0fk3Bjt1qHoHJhAUB9JadeXQf0JusceeVzWE7e9wHo9doSDGG48cPeP7gIBDfIyqvr1jGoXFgAUP85ucI6Ql6Jx055/VkF0Ptn9HptM+4YRNro+XML4nLrAFQ+LACo/868/L8B/K91jDyKfHoAcj8E0Mu1CQYagR//C2yV5Ru+ah2CyocFAPWdCBSQ91nnyCOfnfL6shOg1xBA99c25U4swfI/fa91BConFgBk44zLN0DxNesYeZPn8wDUAfAYZej22hIdwGDtod4/sAhEbpblG2+wjkHlxAKATIhAIbIaQM06S574rJUH+lAAeOj22maSxagm434fmm8zaCdrrENQebEAIDOy5PL7ofJO6xx54jMJEMh2GMD7IKAurm1Kj8e8mbv9PjDvRN4hKzd93zoGlRcLADIlZ15+OYBPWufIi8izAMi2B8D3IKDZ/fcaWIDh6e/Da7wh70Q/JsvXX2Udg8qNBQDZu3/8dyGyzjpGHvjsAwD4N9JH/t1+Pz+ba2tgPqLp3Yhd0CNDX8CyM3/POgQRCwAyJxetS9CSN0Lwaess1nxPzMv1EMBRrq2hCxFN70Y12ef3Qfl2NZL9bxJZ24dtm4iOrGIdgAgAZOllLVW8BVtXfx/QtQA8O8OLKd9DAH4/f6Rrm9bjMTT9/ZDf/BOI/DmWrf9AZxkskT32AFBuiEBlyeXvB9zLATxoncdC2XoAnFQx2T4Rcyb/N+TG//tQ9/OyfP3/ZeNPecICgHJHllx1M9rRCwF9P4Ap6zz9JBEAj2kAmmQ4B8Dzdz+1ABBMuROQTNUxb2YrAp3wNwnFX6BSfZGcu4l7XlDu+M04IsqYbn3bsdD27wJYDeA46zz9sPPepOe37TmLIsw7LpvHenKHYnpPb+MAUQwc+7wYDlVM63Go1ndiqPVoyglzYzuglwMDH5UV63ZZhyE6HBYAVAi6eU118sQ3/3ul9tDKgfr9iJvbEehbI3Y9kCBp9vazwwsEYydk07E3vs2htq+3f/N4ADjmtAqSqWnELrSjfQW16kmYHHwBpgaed/Oz65//RVl6Wcs6FdHRsACgwnhsUv9VFL8OAOJmELd2Im7vhSRTEG1A+nEaTh+0djwEbfd2+l00MorKwhNSTtTR3rsNbmaip5+VyiCqx52KvfunU07VfyoVOBlCKxpFs7II9coJSKKRx//Pn3/JKfFvWOYjmi2uAqBC0mgE7cFT0B48xTpK+ub7/XiPnQdH55mrBWC7z2lCRJQqTgIkIiIqIRYAREREJcQCgIiIqIRYABAREZUQCwAiIqISYgFARERUQiwAiIiISogFABERUQmxACAiIiohFgBEREQlxAKAiIiohFgAEBERlRALACIiohJiAUBERFRCLACIiIhKiAUAERFRCbEAICIiKiEWAERERCXEAoCIiKiEWAAQERGVEAsAIiKiEmIBQEREVEIsAIiIiEqIBQAREVEJsQAgIiIqIRYAREREJcQCgIiIqIRYABAREZUQCwAiIqISYgFARERUQiwAiIiISogFABERUQmxACAiIiohFgBEREQlxAKAiIiohFgAEBERlRALACIiohJiAUBERFRCLACIiIhKqGIdgGi22m0MiVinIB/NtlpHyNqQdQCi2WIBQIWxe0bPqreCb0CCdu+OxDpCpuYOyVnWGYhmi0MAREREJcQCgIiIqIRYABAREZUQCwAiIqISYgFARERUQiwAiIiISogFABERUQmxACAiIiohFgBEREQlxAKAiIiohFgAEBERlRALACIiohJiAUBZo1JTAAAHCElEQVRERFRCLACIiIhKiAUAERFRCbEAICIiKiEWAERERCXEAoCIiKiEWAAQERGVEAsAKoxI0bbOQL1zap0gewLeo1QcLACoMDRCzToD9a4UBYDIlHUGotliAUCFIYr91hmod0kZKgDouHUCotliAUCFEcX6XesM1LtGyzpB9mLBPdYZiGaLBQAVRiWKbrXOQL1rtMPvAYh5j1KBsACgwhg4Bl+IIoTfigRquhn2ny6OoPvH4mutcxDNFgsAKoxTRerVSHZb56DuqQLT9bALgMGK7HzLqVK3zkE0WywAqFAGIt1knYG6N9VQJGG3/xiqYIN1BqJusACgYmlG7xXrDNS1fdPOOkKm4gg6N66+zzoHUTdYAFChvOAU2T5Ula3WOWj2molivBb26//cgeiOXzxDdlrnIOoGCwAqnMFBWW2dgWZv14QLeuamCDA4rLwnqXBYAFDhPHex/M9IVb5pnYOOrt5S7J0OufkHRoflq689feBO6xxE3WIBQIUUzZXXVCKUYGuZ4lIAj+4P++1/oIJWVaoXWOcg6gULACqk08dk79yhaDU4IzC3dk44TDfCbf5FgNGh+JILzhRuUU2FxAKACuu5x8qn5wzg36xz0E+aaigemwx75v/8OfLZC5ZU/sU6B1Gv+P5EhXf3o+4bMy19mXUO6qg1FT/YlQR9+t/YsNxy0c8OnGedg8gHewCo8F54YrRs7qDcZJ2DgJmW4qE9gTf+I9FtbPwpBCwAKAinHx+9cnQAn7POUWbjM4oHdyZoJ9ZJsiECLByRz1x0VvWl1lmI0sAhAArKvdv0TdMtd1VbUbXOUhZOge3jDnumwh3zH6hIc8FwdPFrzqh83joLUVpYAFBw7tyn8yvTuqHW1nMD7onOhYmaYtu4QzPQo34jAPOG5StzW9ULXnm2TFjnIUoTCwAK1r2P6YvaiV5Ra+tS53ivp0UBTNYUOycdZgI94jcW6Nzh6H8qsbv0V84Y/F/rPERZ4JciBe+ecV0Yzbi/bCRyQSvR453yvu+WAphpKCYbin3TilaAR/vFEXS4Em2rVPR6Hayuveh02WudiShL/CKkUlHVyr078RpVtyxx8kIBRlUxTwQLYsFx1vmsqQIOnXH9pA3UEsVMQzHTBBI9XKOvT/y/RSgLkkR3OMi+SGQS0ImK4G5Uom8s+Jl400qRtnU+on5hAUAEYNekrlHFp6xzWKu1FDsmi9CM904Fbz37WfFl1jmIrHEZIBERUQmxACAiIiohFgBEREQlxAKAiIiohFgAEBERlRALACIA0EKsYKMURDjsekaiUmEBQATAKRrWGfKgJC1jzToAUR6wACACAMGkdYQ80HDP83mCc/xbEwEsAIgAAJGA276iswNg6CKN91lnIMoDFgBEACTG960z5EGrBD0AENxvHYEoD1gAEAFYNIxtALuGW4l1gsyNv/hU2WEdgigPWAAQARARFcV3rHNYq7cDHwMQ+bZ1BKK8YAFAdIAKvmKdwVKzHf4cAHF6s3UGorxgAUB0gDh82TqDpVor8NYfgGp0k3UGorxgAUB0wDHz5Q4Fvmudw8pUM/gC4J6XPFu2WocgygsWAERPdbV1AAuNBGgGPgFQS/q3JTocFgBEB6m08CkA+61z9Nt4Lfi3//FBja6wDkGUJywAiA6yaJFMQPEx6xz91EyA6cC7/0Xx4TNPldIVdkRHwgKA6Gmkib8B8Kh1jn7ZNxN24w9gu2tHf2cdgihvWAAQPc0xx8ikCN5lnaMfppuKmdBn/4u+8+zTZMI6BlHesAAgOoRj5sm/CfAv1jmylDhgT+Bv/yr4wkueVVlnnYMoj1gAEB1OA28Hwtw3XgHsmnZIAt77X4F7a8PRKuscRHnFAoDoMI45RibV4RUAgts7fs+0otayTpGpXUii16w8VqasgxDlFQsAoiN4xnx5UBxeBSCYI2T3zigmG0F3/e+NEP3i2c+RB6yDEOUZCwCiozhmvtzhBCtQ8JUBCmD3jGK8HnTjv11dtPLnTpE7rYMQ5R0LAKJZOG6e/G+ljXMEKORpcokCOycVk0E3/nqrVqIXn/1sucs6CVERsAAgmqWFC+XHi+dhuQD/D0BhNs6tt4Ft4y7k5X4JFH8T747PO/skecQ6DFFRiHUAoiLatV/PQoSPK/AS6yyH47QM4/36LdH47S8+VbZYJyEqGhYARD1SVXlsEq+JgPcA+DnrPI9zCkzUO2P9Lty2fwtEP/DiZ8bXiki4V0mUIRYARCnYPa4vdhF+E4oLATyj35+vCtTaiqkGMNNSaJhN4g4A6ySKPvviZ8r/WIchKjoWAEQpUlV5bBo/EyVYCcELATxXgGcqMApgDJ7zbpx2GvvEAa1E0XJArQ002sE0+g7AOIAJiP5IVe4Twd2RRDcvPRn38G2fKD3/P+IKYp98aKWYAAAAAElFTkSuQmCC;" parent="1" vertex="1">
          <mxGeometry x="395" y="320" width="60" height="60" as="geometry" />
        </mxCell>
        <mxCell id="bXVjA9wCsrYVd7rCYP2x-13" value="Smart Bulb" style="text;html=1;align=center;verticalAlign=middle;resizable=0;points=[];autosize=1;strokeColor=none;fillColor=none;fontStyle=1" parent="1" vertex="1">
          <mxGeometry x="380" y="273" width="90" height="30" as="geometry" />
        </mxCell>
        <mxCell id="bXVjA9wCsrYVd7rCYP2x-5" value="" style="rounded=1;whiteSpace=wrap;html=1;" parent="1" vertex="1">
          <mxGeometry x="134" y="270" width="140" height="187" as="geometry" />
        </mxCell>
        <mxCell id="bXVjA9wCsrYVd7rCYP2x-8" value="" style="shape=image;verticalLabelPosition=bottom;labelBackgroundColor=default;verticalAlign=top;aspect=fixed;imageAspect=0;image=data:image/png,iVBORw0KGgoAAAANSUhEUgAAAgAAAAIACAYAAAD0eNT6AAAABHNCSVQICAgIfAhkiAAAAAlwSFlzAAAOxAAADsQBlSsOGwAAABl0RVh0U29mdHdhcmUAd3d3Lmlua3NjYXBlLm9yZ5vuPBoAACAASURBVHic7d15uF1leTf+773W3mdKck4mkFFBSx2oEmiqiEkg/WFbtQ7UQm21FSGJ1tZ6tbW1ra82bX2trW8H68xU1ForATIgYicRB0QbIIGiDAoqkITMZ9zjeu7fHztAwAxn72etfa/1rO/nunzfq63n7O/KWWs/93pGAREVit564TBa7iSgdTwiWQSNFgPuGCBaDMUiiI4BmANgFJAhQOcCmAegMsuPqAGYBjABkQk4nYLoNFQ6/7PqNASPQd2j0Mp2DDS3oTH1mKz8ajujSyaiDIh1ACJ6Kr354vkYqS2DyplwyWlwyXGALIDThRC3AIoF1hkPwQF4DMB2ANsA3Q7BDwDcDxfdi8WVH8jp65q2EYnoYCwAiIzoA+8YxFT9+Yj0+XDyQkTudLTaS9FuHg/XFiRtQNU6ZlraAB6C4l6I3Ae4++BwH1oDd8nL141bhyMqIxYARH2gD108hH3RmZDoJRCcDWAJgOfgaN3yzgGuDSRJ5/9vtwB1/YjcLwrgfkA3Q+V/INFmjLTulKU3zFgHIwodCwCiDOgdl5yAWH4WipcBsgzAzwIYSueXJ52CIGl1CoIkQacdDUYbwPeg+B8INiNKvibLbrjHOhRRaFgAEKWg0+BH58Ph/4PgfAAn9PHTgeRA78DjRUFwdAdEvgKHrwDJV+TcGx6yTkRUdCwAiHqgW39zDpKhlyJy5wNyPoCzkJfnSfVAIdDs/McFNWTwuIcg+AqA/0bDfUXO3/SYdSCiosnHFxZRAejdbzkZSfRaQF4H4FzMflmdLZd0egUeLwjC46D6HUTYAETrZfn6+60DERUBCwCiI9DbVz0fFX0dVC4AsBRFf2Ye7x1oNTrFQDirDA72IFS/iDhah5et/6ZIWBMkiNJS7C8zogzoHW95ASR+IwSvB/Bc6zyZUX2yV6DVRGATCR/3MICNcHoNzt34DRYDRE9iAUAEQLe+7Vgg+XVA3wTFUus8/aedIqBVD3QSIQDgQQg+A8SfleXXPWgdhsgaCwAqLX3o4iFMxC8Hot+E6usAVK0z5YImnSGCZqMzfyBMt0PxWVSrn5Vz1u21DkNkgQUAlY5uWX06xL0dKm8EMGadJ9farQO9AsHOF5gBdD0EV2PZxv/mEAGVCQsAKgXdvKaKOHkdRN4O4DzrPIWjCrQbQKMWcq/AAxC9Em35lKzcsN86DFHWWABQ0PSei49Dq/pmiL4dimda5wlC0gQa9VCXFALAJBSfB+Qf5dz137MOQ5QVFgAUJL3jkjMg0bsh+FVwbD8bLgGa9c4QQZjDAw7Qm6DyT1ix4T85PEChYQFAQdEta5YB7t0AXgXe3/2hCjRrnWIgrIOKDvY9iH4Q7fF/lZVfbVuHIUoDvyCp8FQhuGv1q6H6bgDnWOcpLdUDPQK1ULcfBoAfQvGPcPM/JSuvrluHIfLBAoAKS3VthC0PvwEifwbgdOs8dJBWPfQJgz+G4u9RrV4m56yrWYch6gULACokvWP1+Yj0bwGcaZ2FjqBVB+oz4Q4NqDwK6IcwJ7lclt4wYx2HqBssAKhQdMslK4HoAwDOts5Cs6T6ZI9AqIUAdAcUa+HGr+QcASoKFgBUCHrn6p+D6PsA/LJ1FuqRamd+QL2GQM8dAID7IPJeWb5+nXUQoqNhAUC5pndc+izE0Yeg+qvg/RoGdZ19BFq1UJcPAsC3oPouOXfjrdZBiA6HX6iUS7p5zQgq+g5A/w+AudZ5KANJAjSmQj58SAH9V8Txe+Rl1//IOgzR07EAoFw5sKTv16D6twBOts5DfdBudCYKBrtiQOuA/ANGkvdzoiDlCQsAyg3dcumZgHwYwHLrLNRv2pkk2JwJd3qAyqMQfaes2HCddRQigAUA5YDee8k81KO/BvDbACLrPGTIOaAx3TmOOFxfRJT8jiy74cfWQajcWACQKb1z1SsR4RM8qIeeot0EalMBLxvEJID3Idn/US4bJCssAMiEbn3bsdDWhwF5g3UWyilVoD7d2UMgXFvh5LflvPXfsg5C5cMCgPpO77z0Qoh8HMBi6yxUAO0WUJsMuTdAofoRTDf/WF55U9BjH5QvLACob3TrqpOgciWgv2CdhYpGOxsINUOeRC/3APJbsuL6O6yTUDmwAKC+0K2rXw+nn4JgkXUWKrCkBcxMARrqkkE0Af0L7Bj4G7loXbAXSfnAAoAypbe9cRRDwx8CsMY6C4VCOxMEw14p8G1E7s2ybNN91kEoXCwAKDO6ddXZUHwWwE9ZZ6EAteqdSYLhbic8A5U/xor1HxcJdncEMsQCgFKnm9dUEbu1ELwbQGydhwLmkk5vQBLsdsIA8EVUqm+Wc9bttQ5CYWEBQKnSOy45AVF0DYCXWWehEqnPBD5BEA9BcKEs33C7dRAKB3ddo9ToXZeuQBRtBht/6rehEWBkFJBgv9JOheKbesvr3mkdhMLBHgDypgrB1lXvBvB+sMufLGkCTE8CLuDN9QTXo169RF6+btw6ChUbCwDy0pnlP3QVIK+3zkIEoHOYUH0q9B0E74PqhXLuxrutg1BxsQCgnukdl5wBia6D4DnWWYh+QrPeKQTCNQ3oxbJi47XWQaiYgh0wo2zpXatfgSj+Ght/yq2BIWDOWMjzAuYAco1+/YL3qPJljrrHm4a6pltXvxOqfw8WkFQEZZgXAHwBlepb5Jx1NesgVBwsAGjW9J4LB9Ca/wlAL7HOQtQVVaA20TlYKFSqt6Glr5PzNz1mHYWKgQUAzYrec+lCtKJrAV1pnYWoZ7VpoBX0S/IjUPcaOXfTndZBKP9YANBR6ZbVPw3ojeCWvhSCZq2zhXC4JhDhDbJsw03WQSjfOIZLR6R3rfpZQL8ONv4UioFhYHgeAn7/GYXDJr3lgjdbB6F8YwFAh6V3rjoPTr4C4FjrLESpqg52dg4MtwioQPSf9ZbXvss6COUXCwA6JN26+vUQfBnQUessRJmoVA8sEwy2CBCIfEhvueCD1kEon4K986l3euelb4bIFQAq1lmIMpckQG0ccM46SZY+geVLfldkbdAXSd1hAUBPoVsv/VOo/F/w3qAyUQdMj3eOFw7X5zFy7Jtl6WUBr4WkbvBLnp6gW1b/BaDvs85BZEIdMDMBJCFvGKQ3ojJwITcMIoBzAOgANv5UehIBw2NAFPKBlvIqJK2NevPFQ9ZJyB57AAi6ZdVfAnivdQ6iXFAFZvZ35gaE6z+QzH+trLw66CMT6cjYA1BynTd/Nv5ETxABRsaAKOg5sL+AeN96/dIrBq2DkB0WACXGbn+iw5Cos09A2MMBv4Q5Q5/XzWuq1knIBocASkq3XPo+QP7COgdRrmkCTE8EvjpArkWy79dl5VdDnv1Ih8ACoIR066rfhuLj1jmICkETYGq8s0ogXP+CHdWL5aJ1IVc69DQcAigZ3br6DVB81DoHUWFI3JkTEO6OgQDwJhzX5PdCybAAKBHdcskvQPXT4N+dqDtxGYoAeZt+/YL3WKeg/gn5bqaD6J2rfw6iXwEw1zoLUWG1W53NgqDWSbKiEL1Ulm/8Z+sglD0WACWgd771NEjyDfBUPyJ/rQZQm7ROkaUWoK+WFRv/3ToIZYsFQOD0nouPQ6tyG4BnWWchCkazBtSnrVNkaRKIzpMV199hHYSyw7HggOlDFw+hVVkPNv5E6RoYBgaC3k13HpDcqDe/7hTrIJQdFgCBUoVgonIlgLOtsxAFaWguEIe8h44ch4repLdeuNA6CWWDBUCotqz6cyh+wzoGUdBC3y1Q5Xlot76gN58X9L7IZcUCIEB656UXQsAtfomyJtIpAoJeHojzEY99wDoEpS/ou7aM9I5LliKKbgEwYp2FqDTazQPLAwMm+A1ZvuHz1jEoPSwAAqJ3XHICouh2AMdZZyEqnUYNaAS9MqAGwXJZvuF26yCUDg4BBEJvXluBRJ8HG38iG4PDQDXo03WHobhWb371YusglA4WAKFY8MgHIVhhHYOo1IbmdrYNDtcpiGNOCgwEC4AA6JbVFwD4A+scRKUnAgyPIvDR1Z9HZf4HrUOQv6Dv0jLQ2y/9KcSyGcCYdRYiOqBVB2pT1imypBB9rSzfeIN1EOodC4AC04cuHsJ45VYAZ1pnIaKnqU11CoFw7ULklsiyTdusg1BvOARQZPsrHwEbf6J8GpoT9iZBwDFw0ef0mguDvsiQsQAoKL3z0tdBsMo6BxEdhggwMg+Bd7Seh+Ob77IOQb0J+s4MlW5927HQ9t3g8b5E+Rf+yYFtOFkh563/lnUQ6g57AApGFQJtfxps/ImKYWAYqAxYp8hSBZH+i972ilHrINQdFgBFc9eqdwD4JesYRNSF4TmhnxfwbDQHPm4dgroT9B0ZGr191fMR43YAw9ZZiKhLrQZQm7ROkS3RX5HlG9dbx6DZYQFQEHrPhQNojX0bwBLrLETUo9pkpxAI13ZI63RZfuM+6yB0dBwCKIrW6J+AjT9RsQ3NAaKg37uOhw78nXUImp2g78RQ6NZLnguNtgAYss5CRJ5KMRQgr5Dl679sHYOOjD0AOae6NoLKFWDjTxSG6mDoqwIA1U/pN14zzzoGHRkLgLy765G3ArLMOgYRpSj8VQHPhMpfW4egIwv6Diw63bzmeFTcdwHMt85CRCkLf4MgB3Ur5dxNX7MOQofGHoA8q+jHwcafKEwDQ0BcsU6RpQgSfVI3r6laB6FDYwGQU7pl9QWAvs46BxFlRYChudYhsvZ8zOz8HesQdGgcAsihA8f8fhfAqdZZiChj9SmgGfSxweOI5aflZet3Wgehp2IPQB6NV98FNv5E5TA4EvqEwDE4/YB1CPpJQd91RaRbV50Exb0A5lhnIaI+adSARuATAoGXyooN37EOQk9iD0DeOPwt2PgTlcvgEBDF1imyFEHxMdW1bHNyhH+MHNE7V58DwRuscxBRv0lnm+CQCZbia1t/0zoGPYkFQE6oro0g+o/gsAxROVUGgErgK+bEfZA7BOYHC4C8uOuRNwH4OesYRGRoaC7CfgeQ45BE77ROQR0h32mFoZvXVFFx9wJ4tnUWIjJWhmWBleqz5Zx1e62DlB17APIgdmvAxp+IAGBwOPxlgUnzj6xDEHsAzOnmNSOouAcAnGCdhYhyIvxegBoq7dPknC8+ah2kzNgDYK2i7wAbfyI62OAIAn8/G0a78ifWIcou6Dss73TzmjHE7gcQLLLOQkQ505jubBAUriYkfr4sv+5B6yBlxR4ASxX3h2z8ieiQqsH3AgxA3f+xDlFmQd9deaZ3XjwfUv0RoKPWWYgop+rTQDPoXoAEGj9fzr3uAesgZcQeADOV32HjT0RHFP5cgBhI3mUdoqyCvrPy6sBxvw8BOM46CxHlXPgrAhpAdKqsuH67dZCyYQ+Ahf2VS8HGn4hmY2AYgb+rDUKT37EOUUZB31V5pNdcGOO0sfsgeI51FiIqiJkJoN20TpGlfYjcs2TZpknrIGXCHoB+++mxX2fjT0RdGRqxTpC1BXCyyjpE2bAA6CNVCIA/tM5BRAUTVYA48JMCIX+g91w4YJ2iTFgA9NPW1b8AYIl1DCIqoMHgewFOwt7Wr1mHKBMWAH2lnOhCRL2pVIEotk6RLYc/sI5QJpwE2Ce6ec0zUXEPAgj8CSaizDTrnWWBIYuil8qy62+zjlEG7AHol1jfBjb+ROSjOojg39ucrrGOUBaB30n5oPdcOIDW2MMAjrXOQkQFV5sCWkFvDFSDtE6U5Tfusw4SOvYA9ENr7CKw8SeiNAwMWifI2jC0+kbrEGXAAqAfBG+3jkBEgYirQFyxTpE1fmf2AQuAjOndq14ExUutcxBRQKpD1gmy9ny95bXnWIcIHQuArCVysXUEIgpMdRCQ0KdwRW+1ThC60O8gU3rz2goWPPIwePAPEaWtNgm0GtYpssTJgBljD0CWFj36crDxJ6IsVMswGbDyeusQIWMBkCXnfss6AhEFqjIASOhf4cKtgTPEIYCM6G1vHMXQ8HYAwW/gTURG6tNAs2adIksJmu5EOX/TY9ZBQhR6+WhnePhCsPEnoiyFPwwQYyC60DpEqFgAZOc3rQMQUeDiSvgHBEHfYJ0gVBwCyIDeveoZSLANLLCIKGuNmc5/wqVI8GxZueGH1kFCwwYqC4lcAP7bElE/VAesE2RNEOmvWocIERupTOhrrRMQUUlEJRgGEOEwQAY4BJAy3bxmDBW3E0DwZTkR5UT4qwGABKdyGCBd7AFIW5y8Cmz8iaifKiX4yqnoK60jhIYFQNqi6HXWEYioZCrV8M8GUHmFdYTQBH7H9Jc+8I5BTNd2AZhnnYWISqYMZwNUqovknHWBj3X0D3sA0lSr/zzY+BORhfCHAYaRtM+1DhESFgBpStwvWkcgopIKfzkg4ByHAVLEAiBNIudbRyCispLOXICQifyydYSQsABIiW5eczyAF1jnIKISiwMvAIBn69cv+GnrEKFgAZCWSnI+OKmSiCyF3gMAAE45DJASFgBpUXb/E5GxqILg30ME51lHCAULgLQIft46AhGVnAhQqVinyNoy1dCrnP5gAZACveMtLwBwknUOIqISLAdcjK++/rnWIULAAiANUjnPOgIREQAgDr4HAIjby6wjhIAFQBpEX2odgYgIQGclQOjbAkNYAKSABUAq9CXWCYiInhAF3wvwMusAIWAB4Em//VuLAPkp6xxERE8Ifxjgp/QbrznBOkTRsQDwNVA9G8GvuyGiQinDfgAasxfAEwsAXyLs/ieifIli6wTZUz3HOkLRsQDwd7Z1ACKip4hiQIL/ej/TOkDRBX+HZOnAZhRLrXMQEf2E8OcBnMENgfywAPCx5a0/BWCBdQwiop8QfgEwH9989cnWIYqMBYAPcT9jHYGI6JDCLwAArbzIOkKRsQDwc7p1ACKiQyrDREDgDOsARcYCwIuyB4CI8imKS7AjoLIHwAMLAD8sAIgov4LvBWAB4IMFQI9085oqgNOscxARHVboBYDKabr51SPWMYqKBUCvBvA8AMGfu0lEBRb+RMAYdXmBdYiiYgHQK+UKACLKufA3AwKS6NnWEYqqBHdHRhyeax2BiOiIwu8BACI91TpCUbEA6FWEU6wjEBEdURQj+LPKnLAHoEcsAHqleJZ1BCKiowp9KaDwZaxXLAB6pqdYJyAiOqrQVwIA7AHoEQuAHujNayuAnGSdg4joqKLgv+afpddcGHyVk4Xg74xMjD18IoASzK4hosKT4NvGKp7RPME6RBGxAOhJdIp1AiKiWQm/BwAAVwL0ogx3RvrEnWIdgYhoVkKfBAgAiFkA9IAFQC8iOdE6AhHRrMTBDwEAkTvOOkIRsQDozTHWAYiIZqcEBYBikXWEImIB0AsV3mxEVAxRCYYA+J3cExYAPVH2ABBRcYQ+D0BksXWEImIB0AsBbzYiKo7gDwVSfif3IPS7IhvKm42ICiT0HgDwpawXLAB6wu4mIiqQ4HsAWAD0Ivi7Im360MVDAOZa5yAimrXwewAW6M3ncXfWLrEA6NaegQXWEYiIuhP8V71gYMFC6xBFE/xdkbpBjFhHICLqShmWArqIPbNdYgHQrVZr0DoCEVF3SlAAtDFgHaFoWAB0qxIPW0cgIqKnqTi+nHWJBUC3Eh2yjkBE1JUSdABAlQVAl1gAdCsCCwAiKpgSVACOBUC3WAB0y7EAIKKCKUH7j0g4B6BLLAC6FUUsAIioYEpQAXAIoGssALqmrDKJqFjC3wgIiMACoEssALrltARPEhFRwTguA+wWC4BuSdS2jkBERE8jUrWOUDQsALolSKwjEBHR06i2rCMUDQuAbjnHAoCIikXVOkH2IjStIxQNC4BucQiAiCh/NGYB0CUWAN2KOARARJQ7TlkAdIkFQLdcwgKAiIqFQwB0CCwAusUhACIqnBIUAOo4CbBLLAC6N2MdgIioKyVo/xFzCKBbLAC61ca4dQQiou6UoAJIpGEdoWhYAHQrrkxYRyAi6k4JCoBqstc6QtGwAOhWNWIPABEVSxkmAQ7IPusIRcMCoFsv+Pg0AE4EJKLiCL8AaMrSGzg/q0ssALokAgUwaZ2DiGjW1FknyNp+6wBFxAKgJ8phACIqjvB7ANj93wMWAD3hPAAiKpDQCwBVFgA9YAHQC9Fd1hGIiGYt+CEATgDsBQuA3jxqHYCIaNZC7wEQ5RLAHrAA6IWTbdYRiIhmJfi3fwCCh60jFBELgF6IYwFARMXgSnB+mYsesY5QRCwAesIeACIqCFeKHgAWAD1gAdALiTgHgIiKoQxDABAOAfSABUAvohZ7AIioGMowBBArewB6wAKgF7uftR1ACZ4qIio8F/gKAKCBc9ZzaXYPWAD0QFaubQNgLwAR5Z8G/67yyIEt2qlLLAB6d791ACKiowp9EqDIj60jFBULgF4pCwAiyjnV8CcBqt5rHaGoWAD0jgUAEeVbGSYAKu6zjlBULAB6xwKAiPLNta0TZE/YA9ArFgC9csoCgIjyrQw9AImwB6BHLAB69YOJhwA0rWMQER1WEnwBUMN5SzgJsEcsAHokF61LIPiBdQ4iosMKfQmg4j6RtYHPcswOCwAfirutIxARHZqG3wMgnADogwWAnzutAxARHVJSghdjEb6EeWAB4EVYABBRPrmWdYLsqdtsHaHIWAD4aMvt1hGIiA4pKcESQAzcYZ2gyFgAeJCll+0GeA41EeVQ+AXAD2XFOh4C5IEFgC9VVqBElDMlmAAIsAfWEwsAb5wHQEQ54xwQ/gF5LAA8sQDwFQl7AIgoX9olmADohBMAPVWsAxReS25FRRWAWEehI0uaiqTZeTnSBFDtvCGJCCQGJAKiGIgHBFFsHJZS5ZLO398lncPxnvL3j6Tzt4+AeKDz9y+88Lv/FW3w5ctTAHe6Pd2y+h5AX2Cdg56UtBTNaaA5pWjVO1/+2kWP6OOFQGUAqI4IBkYElaHs8lJ62nWgOaNozSjazScb/tkSAeJBoDokGJjT+U9czS5vJqb3hz4J8LuyYsPp1iGKjj0AqdCvAWABYCxpKmrjQG2/Imn6jX+6BHA1RasG1MY7vyuKgYE5gsF5gqHRzlsj2VMH1CcUjUlFc7q7xv6Qv087RUS7rqjt7/ztKwOCoTFgeH6EeCCF0FlSDb3xB4BbrAOEgAVAGlS/DpG3Wccoq/qkYma3ojmT7aQnl3QamvqEYmKbYHAeMDRfMDSPHWl9p0B9SlHfr2hMPtmdn5V2UzG1C5jalWBgjmBkUY7/7kkJxv9VWQCkgAVAGqR6CxB8xZ0v2mmMp3Y7tOsGH6+K+kQnQ1wF5iwSDC+I2CuQMXXAzD7FzB5F0rKZ5d6c7vQ0VIaAuYsjDI1KvgZTyzABMNavW0cIQZ5u20LTLaseBHCqdY4yaNUUE9sVrVq+ljlFMTCyUDBnMQuBtKkDpnc5zOwDXJKvv3t1RDB6vKA6lJOv0/DH/++XFRueax0iBOwBSIvga1AWAFlSB0w+ppjZm89DTlwCTO1SzOxLMO8ZEYbHcvZmWETamdMxudPB5bRNa80o9vxAMbIowrxndFaVmCnF+D+7/9PC95S0OPmqdYSQtRvAngddbhv/g7k2MP6ow56HHFo16zTF1aop9jzkML4tv43/wWb2OOx5UNFuGPZQlGL8P2IBkBIWAGkZaH0ZJdh6y0JtXLHnwcT2i7UHrVon99SuYuXOg6mdDnsedLkb5jmadl2x50GH+rhR7vDH/xVxcrN1iFCwAEiJnH71DgDcFjhlM3scxh9x0Py/+B/W442Z79LEMkhawN4fukIXTeqA/Y8YXUO72f/P7K87ZdmmbdYhQsECIFX6JesEIZncoZjYUdyG4GCd3gCH5nQY15OF5rRi9/eTYP6NpnY6TD7Wx8rVJfDeBCH39IvWCULCAiBNGt1kHSEUk485TO8p8Gv/Ibik83Y7szeMBi5NtX2KvT8qdk/PoUzvVkzu6NNFhf/2D0ButE4QEhYAaXpg/7eh2GMdo+im9yimd4fbSE5sd5jcGe71dWtyZ2eiX6gzaPp2P4dfAOzC8iU8AChFLABSJBetSwD8h3WOIquP9/GNydD0LleK6zyaiR2K6QKP98/W5GMO9YkMr7MUy//wJZG1fGhSxAIgbQLOA+hR0lSMby/P8z29RzEZyByHXkzudJgJbJjnSMYfddmtZGk30dVpV0Uk7P5PGwuAtEXVGwEE3xeXNlXFvocdNPQ5TE8zvafYM957NbWrHG/+B1MHjD+i2cxzCL/7v4W2/qd1iNBwn7IM6JbVXwT0VdY5imRyh2Y66a86DAzMjVAdAiqDgqiiiOLO7e+Szpeya3W+R9vNzu5urVpGX9aHMP+kCENj5Xgca/sV44/25x9WogPHOQ8B8aCgMghElc7//uC/v2t3Nptq1TvHSLdqmtmchDmLBPOOS/nda3JP4D0AeqOs2PjL1ilCw62AsyB6DRQsAGapXc+m8Y+rwMjCCENjQFx9euP65P8cxQLEnf9+deTJ/7tqpyGoj3f+k+UKq/FtDvFgjOpQdp+RB62aYmJbtg1VFANDoxGG5gPVYcHRduaNYkEUA5VBdA72QWc/gvp+xcy+9A8dmt6rGF6gqAymVPCVo/v/C9YRQsQCIAu12gYMDdcBBP51no6J7el+eUUxMPfYCMMLjv7lfyQiwMCIYGBEMHpc59jh6V0OrQxOH1QH7P+xw6LnRIji9H9/HrgE2P+wZnZ0b3VYMGfxgWN6PdvWuArMOUYwslhQ26eY2unSKwC1sxJk4Skp/aFbwXf/N1CvbrIOESLOAciAnP25CahyNcAs1McVzZn0GoShUcHi02KMLPRr/H+CdH73oufEWHhKlMnJb0mrf13jFsYfcZkc4VsdFiw8JcKiZ6d/NK9I54THxafFT/QOpKE53Skoval2xi5CpvIlefm6cesYIWIBkBWRddYRimB6d3oN3ujxEeafnP0b9MAcwaLnRBg9IXpiHDktjUlFzWof+QzV9isaU+n39IyeWCt05wAAIABJREFUIFh0aoSBOdnOn4hiYP7JEUZTHLuf3pnCvZ+0wu/+h2P3f0ZYAGRlyG0EwLPgjqAxpal0p0sELHhmhJGF/Z1EN7KgUwgMjKT7uZPbi3H63Wy5NlJf7jgwB1j0nBgjC6K+TmUeWSSYf3IESeGbs1WHf1HUCvztH5iBG+Dyv4ywAMiIPO+qSSh44x5BWrujjZ0UYXCezQz6uAosPDXC3MXpfb5LOmPEoZjY5uCS9AqAuccIFj4rRlxN7Vd2ZWhUMHZiOl+dfvsgaBmW/90oK9dNWYcIFQuAbP2zdYC8SlpIZex/9LioM+nL2NxnRBg7MUpt3kF9Qgt3FO6hpDbWjc54/NiJEeYe29+3/kMZGk1nKV9jCr339rRKMPsf0aetE4SMBUCWlpz0ZQAPW8fIo/q4/zrroVHByCL7xv9xw/MPdA+nFKmvJ8llJK1rEAHmPzPC8Pz8/L3nLJJUis+e53w0M1iOkicqj2JH/GXrGCFjAZAhkbUOgs9Y58ij2rhfwxDFgtHj83f7Ds4TjJ2UTq7mdApjxIYakyn1YggwdnKEwbn5afwfN3qC/3yA+v4engWXdLrRQiZ61YHzVSgj+fsGDc+VCPacs964NtD2fHmZe0xnR7c8GhpNrziZKvCpgVNpzHJHZ3VHHoZ5DiWqAHOP9cvWqqP7PQaawU/+U8Rg93/GWABkTM644iEAt1jnyJPmtF+jFlWA4T7P+O/WyELpzFD31KopWgVcS9KcSWeFx8gCwciCnP+tF0SIKn4Zu3smFJnsRpUngv+Sl234gXWM0LEA6Au9yjpBnvgWACMLI0iqu/xkY97xgkoKe0EW8cS8mb3+PReVIWBeDod5nk4iYGSB3+/o6ploN9G3QyqsOL3SOkIZ5P/pCkE7vg7APusYeeH78jI8lk6OrHVmrcfeM9brE1qofQFcG2hM+BcAYyfG6e7mmKHh+X5fpV09E6FP/gP2YLq5wTpEGbAA6ANZetkMIJdb58gLnzPRK0NAPFCQVgFAdagzW9yHqv+kyX6q7Vfv1WlzFkuhDkaKB+DV25PMdkjfJUA78Ml/0KvklTcFP8khD1gA9E38TwBCf3KPyrX9ei8HM97yNQtzFov3lsGNlNbS94Nv1igG5iwu3leTz3bEnSOJZ/HvFv7bfxuR+6h1iLIo3lNWULLkk48CWG+dw5rvyqXKcPEKgCjunFLnozndw0xxA66taHou/ZuzuJgnIvoeEJUcbVM/LcHkP+i1suyGH1unKAsWAP2k8mHrCNZ8t4StDKQUpM9GFgjEs1ErQi9AYxJei14lQt/PdEhLZdDv5507ynW36uHv/Cf4R+sIZcICoI/kzMtvBfAd6xyW1PMtNq9r/49GYmB41O9xK0QB4Llx0fD8dA7aseC7FFDdUf7twu/+/5Ys3/ht6xBlUtBHrcBU/sk6giXfF5iiNg4AMLLQ7+eLcDaAb0bffyNLvvfmEefGtJrFGAPyIfIP1hHKpsBfpwWVyDUAHrGOUVzF7B4GgMqQoOKxgiFpYXYTxYy4tt8cj8qgoDJY3L9vpvt9FnE3qO78GO19pZ8j1W8sAPpMll7WguBD1jms+K7rLvr+J4Ojfj+f53bA9+1/cF5KQYyoZ/fWYXsQknb4S/9E/k5WfrVAu12EgQWAhdH2ZQC2W8ew4DsRrkgb4hyK74E2rXp+ewC8C4ACLvE8mO8Kl8OufGhM+/3i3NMdiCvcJ8UACwADcurVdShKOd4Ved5xPpsI5UHFd6lYjl8EvbIJUB0peAHguXXNIXsASvH2H31IzlmX476tcLEAsBI1Pg5gl3WMfos9x3iLMBHuSKLYbydDl+O2wGv8f0AKPcET8L83D3lfNGa8fmcB7Ea7cpl1iLIq+CNXXHLGZ6ehKN2+AFEMr13xfA8SygOvLWNzPgmwV3FB93c4WMPj3uw8F0/7XybtzsE/YfuQrFw3ZR2irFgAWGrUPoISHhIUD/T+RdluFP87MfbYy8C18ttN7rNCIfZcQ2+tXdej7+R3BIdc/RD+2/8eRO4T1iHKjAWAITn7cxOAlm7nq6rndr61fcVeCuBVACSa7XKzXqnfMvWo4D0AtXHPHS6f/ky4pPiV7lHp38uyTZPWKcqMBYC16uDfA9hhHaOffA5NAYDaPvXeUdCSeL7t5nE/GOdZkxVx7//Hqevckz4GR572v6iHPvMfOxHpR6xDlB0LAGNy+senIPhL6xz9NPD0L7suuQSY9vzCtRRFftnzuBeC9xbPBf4mmt7tvIuy6sFFcdIK/+1f8F6+/dsr8GMXkL0nXQ7B96xj9EtUEe9hgOldDkmrmEWARJ49AEfbM96Abybf/SGsJE3F9B6/a68OP60HJPy3//vQ3n+VdQhiAZALsnJtG5D3Wufop6Exv59XB4xvy+l4+FH4Nna57AHwzFTUJYDj25z3tQ/PP+jiW43O7P+gybu5618+FPSxC4+ccfl1AL5pnaNfhsf8b73mlGJqVw5bw6OIPHsANIdfnb6ZijgEMPmYQ9PzZV0EGBo76H4Ifea/6m1Yvn6TdQzqKOBjFzDBu1DId9ruRRX/bXEBYGqXek/A6jfv7ZBzeLm+mYo2BDCzTzG92/8PMThXnuz+b9byOcMzTRK/S6Qc33FFwAIgR+SMK24D9HrrHP0yZ3E6a7/Ht7lCFQG+M97zuALCexKgx+ZQ/TazVzGxLZ2ep5HHnwF1QCP03XDlWllxfWl6OYuABUDexO73AQQ/CwjoLAf0nQz4uPFtDlM7i1EEiMDrVOMQCwDfUyL7ZXKHw8T2dBr/gTnAwOPnH9Rr+ZzckZ4ZJPpH1iHoqVgA5Iy88J8fhuAD1jn6Ze4x6X3zT+1y2PtD57UjW1+IX4MX2ioAieBVEPVDu6nY+5DznvF/sLnHHPj6Tdr5Puc5DSp/JSs3/NA6Bj0VC4A8qoz/PwD3Wcfoh8F5gsG56f2+5rRi9w8STO10nV3zcspnGCCPL4o+mfK8CZBLgMnHFHu+79CcSe9+GhyVJzfEqge/Ff4DmK6X8vTTvGMBkENy+romFO+wztEv846LU+0CVteZHLjrAYeJHZrLEwR99gLI4zwxn0y++yJkoVVTTGx32HV/gundDpriLSQRMHrcgWtu1cNf9ifye/LKmzwPS6Ys5O/JoyfolkuvBeT11jn6YWpntkv64qpgYA5QHekcPRvFAonVbP35vh/1XpgMzhWMnZSvR3f8EUVjqrfrqQ4LFjzL5nrUAZoIXKJoNzoNf3MamW4yNe/YCHOOEUAVmNqLVKuL/PmCrNjwBusQdGj5+hahp9DNa56JivsugDnWWfph70PpdrMS5c3AiGDhqQeqzvoU0KzbBsrWJCrt58s5X3zUOggdGocAckyWXvZjCP7MOke/jJ0U5Xo8mMhHFAPzT3584l8r9MYfUPlTNv75xgIg71500keh+Jp1jH6Iq50igCg40mn8owoAKFALfuLfrVhxxiesQ9CR8ds250TWOsTuLSjJ3gCd8W3elhSWsROig2b9z+RzJmd6ZqDxxSJrc7hehQ7Gb9oCkBdd9SCAP7fO0S/DY4J5x/LWpDDMe0aE4fkHGv+k3dnyN2SKP5Nzr3vAOgYdHb9li+KMk/4B0G9Yx+iXOcfIk0uliApq3jOiJ7e8VgVqk7aBsvctPFb9qHUImh1+wxaIbr3kudBoC4Ah6yz9UtuvGN/mSnJEEoVk7IQIwwsO+oqtT4f+9t8A9CxZsfG71kFodtgDUCByxlX3AfIe6xz9NDxfsOBkrg6g4ogqwMJTntb4l6HrH/gTNv7Fwh6AglGFYOvqGwB9lXWWfkpawPgj3CeA8m1gjmD+SY/P9j9AFZjeH/rEv3/H8g2v4FG/xcIegIIRgULiSwDssM7ST3EVWHhqhLnHRma79xEdjkTAvOMiLDzlaY0/0NnwJ+zGfyeS6sVs/IuHPQAFpVsv/SWofAkl/BsmTcXEDkVjkt83ZG9wnmD0+Ahx9RD/x1Yj9Il/CkSvlhXX32gdhLpXusYjJHrnpf8IkXda57DSmFJM73ZolmKHBMqbwbnAnMUHre9/Opd0uv5D3utf8HeyfMO7rGNQb57eWUVFMnfk3ZiunQtgiXUUC4NzBYNzYzRnFDO7FfUp5WoBypREnTf+OYsiVIeP8l+uTYbd+AN3YGG1NFuVh4g9AAWnd615Hpz7DoB51lmsuTZQn3So7wcnC1JqRDqnSA6PRRgcldmtSGlMA42gZ/2PQ+TFsnz9/dZBqHcsAAKgd656LQTrwb/nEzTprLpqTrnOketNRdKyTkVFEFeBeEBQHe4cIT0wIt1NPC3FuD8ulBUbrrMOQn7YYARC71z9AYj+qXWOPFPXKQScO3AOvPFO5RPbHVy7t58dGBGMLMrH4zuzV9Gc7q3HJaoAo8fbLuuQSBDFCpFOw++1yiRpAzPjYXf9C94vyze81zoG+eMcgFAsOfH/YMvDSyDyCusoeSURUBnKR6MJANO7Ba7de8M5NJqPa6lP9N7YxVXJyXWkkOHxrX5DbvyB/8L26lrrEJQOrqgOhMhahwG8CcCD1llodnzeNPO0rLzXXgzA798gd2rBr/f/EZLk1+WidUFfZJmE9PiVnpx+5V449ysAZqyz0NH5NH7WwxcHU9f7G28wBUBjBmg3rFNkSOsQvF5W3rDbOgmlJ5THjw6Qs67aCsFvW+ego/M538Cn0U2but67z4M446Hd6hQAIRO8VZZvuN06BqWLBUCA5IwrPgPgI9Y56MiCGQJIStwD4BKgNmGdIluCD8vyjZ+xjkHpK/rjR4ez76Q/gOAW6xh0eFEwQwC9/6zPv4E5VWAm9El/+k0srP6xdQrKRpEfPzoCWbm2jQi/BuBh6yx0aBL33nWuDrnZ9dCnAPD5NzBXm/SbAZl/DyOOfkVOX9e0DkLZYAEQMHnhFY8B+qsA6tZZ6CeJ5/h3HoYBfDP4/huYacwA7ZDbRa0jcr8iL1u/0zoJZYcFQOBkyZXfgYKHdeSQb/d3HoYB1LMAKOQQQFKCSX+Ifl+WbdpsnYKyVcTHj7okZ17xMSiutc5BT+XdA5CDlQC+RUjhegDUdcb9w7ZOVqz/pHUIyh4LgLJIolXgJkG54jsDPg89AN5DAEX7BqpN5uMfPjs/QKO62joE9UfRHj/qkSy9bBzO/RqAkAcuC8V7CCAHcwB89yMo1BBAs9ZZ8x+uFkTfKC9fN24dhPqjSI8feZKzrtoMxbutc1CH/xBAOjksMxRmCCBpAfXAx/0VfyTLN37bOgb1DwuAsllyxYehepN1DOqcQucjhB4A33+DvlDt7POfl3WXWRD8J1Zs+CfrGNRfLABKRgQK1VVQ7LHOUnZBDAEkfg14IbYCrgd/yM9+OL1UJOQKhw6FBUAJyVlXbYNgjXWO0hO/LvA8rALw2ga4CI1/uwm0Qj7kB4Dq2+TcjdwwrIRYAJSULLniegCfs85RdkXfDtinByD3EwDVHej6D5jKZ+TcjV+wjkE28v4IUpa0/bsAHrGOUWZFPxAo6KOAw1/y9zCald+zDkF28v4IUobkzKv3Q/FW6xxl5tMI5qFt8lkFkOsCoNUIfckfoO53ueSv3PL8CFIfyJlXfAmKz1vnKKvI90AgYz49AD7Xnil1nYl/YfsXOXfTJusQZIsFAAHN5jsA8NAPA35DAHmYBNj7z+a2B6A+HfgRv9iNWP7QOgTZy+sjSH0kL/nMHqj+vnWOMvLqAfBcgpcGn16IXPYAlGHWP+QdPOWPABYAdICceeW/QvAl6xxlI3Hvb5q5GALw6QHwuPZMqAK1aesUWfuSrFj/b9YhKB9YANCTouj3ANStY5SJz054xR8CyFkPQGMmH7srZacGid9hHYLygwUAPUFeeNkPIPigdY4yiSK/RtyyF8D3s32vPVVJ0jnsJ2x/Lcuv44mg9AQWAPRUI8MfBHC/dYyyEM9x8CIXAL7XnqrwZ/1/H8n8D1mHoHxhAUBPIad9pAE4dhP2ie9MeMsTAX2HIHKzCqDV6Jz2FzLVd8rKqzm8R0+Rl0eQckSWXPUfEGy0zlEG/gcC2XWjq/M8CCgP3z6q4b/9C66Xczdygi/9hDw8gpRHUfSHAEJfD2VOKn6NqDNcCuh9FLDntaeiMRP6mv8mXPwn1iEon1gA0CEdmBD4CescoRPfSYCGPQCu7ffzvtfuzSVAK/RecfknOfe6B6xTUD6xAKDDq+hfAdhrHSNkkedSuCJPAvS9dm/hv/3vRaXy19YhKL9YANBhyelX7oXir6xzhMx3Mxzn2Q3v99l+P2+6EVDSLsGOf/hzOWcdC3g6LBYAdGRJ9DEA37eOESoRgXi8CPtOxPPhNfwgnWs3E/rEP+B+jBz7KesQlG8sAOiIZOllLaistc4RMq8jgU1XAfT+s6YrANrNTg9A0OTPZellga9tJF8sAOjolpz4eUC2WscIlc+GOKb7AHh8tukmQPXg9/u/G8vPuMY6BOUfCwA6KpG1DurWWucIlc+WuJZb1/v1ABj1XLQafgcYFIHoe0TW5uCoKMo7FgA0K3LmlRsA3GadI0RePQCGbZnPMkCzHoDGjM3n9s93sGzjF61DUDGwAKDZU7zPOkKIJO79Z3034/Hh0wPgc809a9bDf/sH/kwEQa9tpPSwAKBZkzOv+E8At1rnCI3PhDjTVQBFmwQY+ml/qrfJig3/bR2DioMFAHVHlMcFp8xnFYDvgTw+fD677wcBlWHsH9yzg7rDAoC6ImdceQOA261zhMRnPLyoOwH2fQ5AM/ix/61YsfEm6xBULCwAqHuqf2MdISReqwAcYDXiW5hVAK0GkIT+9q/v59g/dYsFAHVvycnXQfA96xihEM898S32AvDtTfe95q6EPvYPfA/Lz7zeOgQVDwsA6lpnjbH+vXWOUESeM+It9gLwXX3ge82zlpRg1z/F33HdP/WCBQD1ZmTkswAes44RAt/xcIt5AJr4Ze7bHIBG6Mf9Yifc/M9Zh6BiYgFAPZHTPtIAhIeNpEA8x8MtJrf7rj7wveZZcUln3/+QCT4uK68OvsqhbLAAoN5J/DEA/PLx5Lsm3mIzIN9eh77sA9AIfuy/gYb7pHUIKi4WANQzOeOTOwH5V+scRefbHW4yCdDzMzMfAlDtzP4Pmn5Gzt/EYTjqGQsA8qP4iHWEovPdFMekB8B7FUA6OQ6rWYfZ+si+0Y9aJ6BiYwFAXuTMy7eAhwR58R4C8JyQ19Nn+g4BZL0KoBX6yJR+U1Zsuss6BRUbCwDyp8pxSB9SvO2AnUevQ+Zv/+1mCbb9FT5z5I0FAPmrjV4DYK91jCKLfLYDtugBaPf+mT7XOivN0N/+sQfJ/GutQ1DxsQAgb3LOP9QA+bR1jiLzWRZnswrApwcgw7zOhb/0D/LPXPpHaWABQOmI5DLrCEXmMyu+aKsAMl0B0Ap+6Z9CcLl1CAoDCwBKhbzosnvByYA985kIWLQegEz3AAh/6d+tsnz9/dYpKAwsAChFHAbold8kwPRyzJbPvIPMJgG2WzbdIX0V8Rmj1LAAoPRElS8ACP0VLBPisSzO4iwAr1UAWS0BDH/pXx2JrrNOQeFgAUCpkRd9Yh8UN1jnKCKfdfEmpwF6fGYWewA4xHCBH/oHyHpZuWG/dQoKBwsASplebZ2giCTymARocRiQzyRAj2s9nJo7BpEG3vkk8hnrCBQWFgCUrv0n/zuAXdYxisZ/O+B0csz6szzmHWYxB0DCn/2/G+19/2UdgsLCAoBSJSvXtqHYaJ2jaHy7xfteAHhIewjAaRXDjR+m+0tzR6+VlV8NfpCD+osFAGXhGusAReP7VtzP7YB9hxzS7gGo6WIIAt/6VyNO/qPUsQCg9O0/6WYAO61jFIl/D0D/tgPOWw+AtKbT/YX5swtu39esQ1B4WABQ6mTl2jYg661zFEmRjgT2/aw0ewASDGK4+aP0fmE+sfufMsECgLLhwMNKuuC7Nr6fS+C8hwBS7AGoucUQi3WQ/XWddQAKEwsAyoaTWwBwzfIsRZ5L4/o6CdCzvfW91oOVYPb/OEaOZfc/ZYIFAGVCll7WAvAf1jmKQmK/bvV+7oDr+1m+1/o4RVyG7v8vHXiWiFLHAoCyxF0BZ0lEIB4vxtrHVQBenyWda01DzS0uweY/fIYoOywAKDtV/RIATl6aJZ/Jcf3dB6D3BjzNkwD7ufTRSBtofdk6BIWLBQBlRk6/ci+Ab1nnKAqfyXH9HQLIx0FAg41t6f2yfPqaLL9xn3UIChcLAMqW6E3WEYrC5+24KJMA0+oBaOh8VF3oc0yFb/+UKRYAlC0Xcf/yWfI5JKevcwB8egBSWgHQcPNS+T25pgmfHcoUCwDK1pITbwew2zpGEUil9591Sf92AvT5LJ9rPFjcnkznF+XXbqw4a6t1CAobCwDKlMhaB8VXrXMUgc/LcX+HAHrvAUijA0A1xnDzYf9flGv6XyJr+/hXpTJiAUDZE/yndYQi8JoE2M/DgDyapTQmAdaxMPzlf8B/Wweg8LEAoOxFjmOZsyCxxxyAghwH7HONj0uSlMYR8iwRPjOUORYAlDl50VUPAnjEOkfeRVHvb/FFKQB8rvFxcXvc+3fk3COycsMPrUNQ+FgAUL980zpA3vnOkO/HMIDvZ/heo2qMwdZ2r9+RewLu/U99wQKA+kRYABxF5Dk+3o9eAN/P8L3GGhYj0tC3xlc+K9QXLACoT9w3rBPkne/4uPZhKaDvSYC+19jWAb8ARaDKZ4X6ggUA9cf9E3cBMmEdI89EPE8E7MsQgN/P+15j3JryC5B/49gxeI91CCoHFgDUF3LRugTQb1vnyDMOARzdUCv0/f/1W51nhSh7LACof1Q2W0fIM+8hgAIUAD7X2NI5iN20X4C8Ez4j1D8sAKh/ItxuHSHPxHOJnG/3fD8+w+camzrq9+FFoHxGqH9YAFD/JI5vN0cQFaIHwK9I8blGp/0778BMEvEZob5hAUB9I2dd+SMAO61z5Jl4PJHOs3Ge3Wf0/rM+1wYAcTvwCYCKx2Tl9dwwi/qGBQD1lyq7OI/Ap5H0XaKX9Wf4FQCCwdYOn1+Qf8Luf+ovFgDUX5FwJcARRAEXAD7X1sBCxG6m919QCHw2qL9YAFB/JdwR8Eik4jFG3oc5AF5DAB7X1khGev/golBwAyDqKxYA1F8LWt/ghkCH53UgUO57AHq/tjgJ/e0fk3Bjt1qHoHJhAUB9JadeXQf0JusceeVzWE7e9wHo9doSDGG48cPeP7gIBDfIyqvr1jGoXFgAUP85ucI6Ql6Jx055/VkF0Ptn9HptM+4YRNro+XML4nLrAFQ+LACo/868/L8B/K91jDyKfHoAcj8E0Mu1CQYagR//C2yV5Ru+ah2CyocFAPWdCBSQ91nnyCOfnfL6shOg1xBA99c25U4swfI/fa91BConFgBk44zLN0DxNesYeZPn8wDUAfAYZej22hIdwGDtod4/sAhEbpblG2+wjkHlxAKATIhAIbIaQM06S574rJUH+lAAeOj22maSxagm434fmm8zaCdrrENQebEAIDOy5PL7ofJO6xx54jMJEMh2GMD7IKAurm1Kj8e8mbv9PjDvRN4hKzd93zoGlRcLADIlZ15+OYBPWufIi8izAMi2B8D3IKDZ/fcaWIDh6e/Da7wh70Q/JsvXX2Udg8qNBQDZu3/8dyGyzjpGHvjsAwD4N9JH/t1+Pz+ba2tgPqLp3Yhd0CNDX8CyM3/POgQRCwAyJxetS9CSN0Lwaess1nxPzMv1EMBRrq2hCxFN70Y12ef3Qfl2NZL9bxJZ24dtm4iOrGIdgAgAZOllLVW8BVtXfx/QtQA8O8OLKd9DAH4/f6Rrm9bjMTT9/ZDf/BOI/DmWrf9AZxkskT32AFBuiEBlyeXvB9zLATxoncdC2XoAnFQx2T4Rcyb/N+TG//tQ9/OyfP3/ZeNPecICgHJHllx1M9rRCwF9P4Ap6zz9JBEAj2kAmmQ4B8Dzdz+1ABBMuROQTNUxb2YrAp3wNwnFX6BSfZGcu4l7XlDu+M04IsqYbn3bsdD27wJYDeA46zz9sPPepOe37TmLIsw7LpvHenKHYnpPb+MAUQwc+7wYDlVM63Go1ndiqPVoyglzYzuglwMDH5UV63ZZhyE6HBYAVAi6eU118sQ3/3ul9tDKgfr9iJvbEehbI3Y9kCBp9vazwwsEYydk07E3vs2htq+3f/N4ADjmtAqSqWnELrSjfQW16kmYHHwBpgaed/Oz65//RVl6Wcs6FdHRsACgwnhsUv9VFL8OAOJmELd2Im7vhSRTEG1A+nEaTh+0djwEbfd2+l00MorKwhNSTtTR3rsNbmaip5+VyiCqx52KvfunU07VfyoVOBlCKxpFs7II9coJSKKRx//Pn3/JKfFvWOYjmi2uAqBC0mgE7cFT0B48xTpK+ub7/XiPnQdH55mrBWC7z2lCRJQqTgIkIiIqIRYAREREJcQCgIiIqIRYABAREZUQCwAiIqISYgFARERUQiwAiIiISogFABERUQmxACAiIiohFgBEREQlxAKAiIiohFgAEBERlRALACIiohJiAUBERFRCLACIiIhKiAUAERFRCbEAICIiKiEWAERERCXEAoCIiKiEWAAQERGVEAsAIiKiEmIBQEREVEIsAIiIiEqIBQAREVEJsQAgIiIqIRYAREREJcQCgIiIqIRYABAREZUQCwAiIqISYgFARERUQiwAiIiISogFABERUQmxACAiIiohFgBEREQlxAKAiIiohFgAEBERlRALACIiohJiAUBERFRCLACIiIhKqGIdgGi22m0MiVinIB/NtlpHyNqQdQCi2WIBQIWxe0bPqreCb0CCdu+OxDpCpuYOyVnWGYhmi0MAREREJcQCgIiIqIRYABAREZUQCwAiIqISYgFARERUQiwAiIiISogFABERUQmxACAiIiohFgBEREQlxAKAiIiohFgAEBERlRALACIiohJiAUBZo1JTAAAHCElEQVRERFRCLACIiIhKiAUAERFRCbEAICIiKiEWAERERCXEAoCIiKiEWAAQERGVEAsAKoxI0bbOQL1zap0gewLeo1QcLACoMDRCzToD9a4UBYDIlHUGotliAUCFIYr91hmod0kZKgDouHUCotliAUCFEcX6XesM1LtGyzpB9mLBPdYZiGaLBQAVRiWKbrXOQL1rtMPvAYh5j1KBsACgwhg4Bl+IIoTfigRquhn2ny6OoPvH4mutcxDNFgsAKoxTRerVSHZb56DuqQLT9bALgMGK7HzLqVK3zkE0WywAqFAGIt1knYG6N9VQJGG3/xiqYIN1BqJusACgYmlG7xXrDNS1fdPOOkKm4gg6N66+zzoHUTdYAFChvOAU2T5Ula3WOWj2molivBb26//cgeiOXzxDdlrnIOoGCwAqnMFBWW2dgWZv14QLeuamCDA4rLwnqXBYAFDhPHex/M9IVb5pnYOOrt5S7J0OufkHRoflq689feBO6xxE3WIBQIUUzZXXVCKUYGuZ4lIAj+4P++1/oIJWVaoXWOcg6gULACqk08dk79yhaDU4IzC3dk44TDfCbf5FgNGh+JILzhRuUU2FxAKACuu5x8qn5wzg36xz0E+aaigemwx75v/8OfLZC5ZU/sU6B1Gv+P5EhXf3o+4bMy19mXUO6qg1FT/YlQR9+t/YsNxy0c8OnGedg8gHewCo8F54YrRs7qDcZJ2DgJmW4qE9gTf+I9FtbPwpBCwAKAinHx+9cnQAn7POUWbjM4oHdyZoJ9ZJsiECLByRz1x0VvWl1lmI0sAhAArKvdv0TdMtd1VbUbXOUhZOge3jDnumwh3zH6hIc8FwdPFrzqh83joLUVpYAFBw7tyn8yvTuqHW1nMD7onOhYmaYtu4QzPQo34jAPOG5StzW9ULXnm2TFjnIUoTCwAK1r2P6YvaiV5Ra+tS53ivp0UBTNYUOycdZgI94jcW6Nzh6H8qsbv0V84Y/F/rPERZ4JciBe+ecV0Yzbi/bCRyQSvR453yvu+WAphpKCYbin3TilaAR/vFEXS4Em2rVPR6Hayuveh02WudiShL/CKkUlHVyr078RpVtyxx8kIBRlUxTwQLYsFx1vmsqQIOnXH9pA3UEsVMQzHTBBI9XKOvT/y/RSgLkkR3OMi+SGQS0ImK4G5Uom8s+Jl400qRtnU+on5hAUAEYNekrlHFp6xzWKu1FDsmi9CM904Fbz37WfFl1jmIrHEZIBERUQmxACAiIiohFgBEREQlxAKAiIiohFgAEBERlRALACIA0EKsYKMURDjsekaiUmEBQATAKRrWGfKgJC1jzToAUR6wACACAMGkdYQ80HDP83mCc/xbEwEsAIgAAJGA276iswNg6CKN91lnIMoDFgBEACTG960z5EGrBD0AENxvHYEoD1gAEAFYNIxtALuGW4l1gsyNv/hU2WEdgigPWAAQARARFcV3rHNYq7cDHwMQ+bZ1BKK8YAFAdIAKvmKdwVKzHf4cAHF6s3UGorxgAUB0gDh82TqDpVor8NYfgGp0k3UGorxgAUB0wDHz5Q4Fvmudw8pUM/gC4J6XPFu2WocgygsWAERPdbV1AAuNBGgGPgFQS/q3JTocFgBEB6m08CkA+61z9Nt4Lfi3//FBja6wDkGUJywAiA6yaJFMQPEx6xz91EyA6cC7/0Xx4TNPldIVdkRHwgKA6Gmkib8B8Kh1jn7ZNxN24w9gu2tHf2cdgihvWAAQPc0xx8ikCN5lnaMfppuKmdBn/4u+8+zTZMI6BlHesAAgOoRj5sm/CfAv1jmylDhgT+Bv/yr4wkueVVlnnYMoj1gAEB1OA28Hwtw3XgHsmnZIAt77X4F7a8PRKuscRHnFAoDoMI45RibV4RUAgts7fs+0otayTpGpXUii16w8VqasgxDlFQsAoiN4xnx5UBxeBSCYI2T3zigmG0F3/e+NEP3i2c+RB6yDEOUZCwCiozhmvtzhBCtQ8JUBCmD3jGK8HnTjv11dtPLnTpE7rYMQ5R0LAKJZOG6e/G+ljXMEKORpcokCOycVk0E3/nqrVqIXn/1sucs6CVERsAAgmqWFC+XHi+dhuQD/D0BhNs6tt4Ft4y7k5X4JFH8T747PO/skecQ6DFFRiHUAoiLatV/PQoSPK/AS6yyH47QM4/36LdH47S8+VbZYJyEqGhYARD1SVXlsEq+JgPcA+DnrPI9zCkzUO2P9Lty2fwtEP/DiZ8bXiki4V0mUIRYARCnYPa4vdhF+E4oLATyj35+vCtTaiqkGMNNSaJhN4g4A6ySKPvviZ8r/WIchKjoWAEQpUlV5bBo/EyVYCcELATxXgGcqMApgDJ7zbpx2GvvEAa1E0XJArQ002sE0+g7AOIAJiP5IVe4Twd2RRDcvPRn38G2fKD3/P+IKYp98aKWYAAAAAElFTkSuQmCC;" parent="1" vertex="1">
          <mxGeometry x="174" y="319" width="60" height="60" as="geometry" />
        </mxCell>
        <mxCell id="bXVjA9wCsrYVd7rCYP2x-9" value="Smart Bulb" style="text;html=1;align=center;verticalAlign=middle;resizable=0;points=[];autosize=1;strokeColor=none;fillColor=none;fontStyle=1" parent="1" vertex="1">
          <mxGeometry x="159" y="273" width="90" height="30" as="geometry" />
        </mxCell>
        <mxCell id="bXVjA9wCsrYVd7rCYP2x-18" value="OneM2M :8000" style="rounded=1;whiteSpace=wrap;html=1;arcSize=50;fillColor=#f5f5f5;fontColor=#333333;strokeColor=#666666;" parent="1" vertex="1">
          <mxGeometry x="144" y="400" width="120" height="22" as="geometry" />
        </mxCell>
        <mxCell id="fXaSh0lT_kNc0EJOFXW9-1" value="OneM2M :8000" style="rounded=1;whiteSpace=wrap;html=1;arcSize=50;fillColor=#f5f5f5;fontColor=#333333;strokeColor=#666666;" parent="1" vertex="1">
          <mxGeometry x="584" y="400" width="120" height="22" as="geometry" />
        </mxCell>
        <mxCell id="4sHFuvsNeMwvO3oo6cFy-1" value="HTTP Server :8080" style="rounded=1;whiteSpace=wrap;html=1;arcSize=50;fillColor=#f5f5f5;fontColor=#333333;strokeColor=#666666;" vertex="1" parent="1">
          <mxGeometry x="144" y="425" width="120" height="22" as="geometry" />
        </mxCell>
        <mxCell id="4sHFuvsNeMwvO3oo6cFy-2" value="OneM2M :8000" style="rounded=1;whiteSpace=wrap;html=1;arcSize=50;fillColor=#f5f5f5;fontColor=#333333;strokeColor=#666666;" vertex="1" parent="1">
          <mxGeometry x="365" y="400" width="120" height="22" as="geometry" />
        </mxCell>
        <mxCell id="4sHFuvsNeMwvO3oo6cFy-3" value="HTTP Server :8080" style="rounded=1;whiteSpace=wrap;html=1;arcSize=50;fillColor=#f5f5f5;fontColor=#333333;strokeColor=#666666;" vertex="1" parent="1">
          <mxGeometry x="365" y="425" width="120" height="22" as="geometry" />
        </mxCell>
      </root>
    </mxGraphModel>
  </diagram>
  <diagram id="YVWkAPtU6TjByTKnWAyk" name="Smart Bulb">
    <mxGraphModel dx="1434" dy="764" grid="1" gridSize="10" guides="1" tooltips="1" connect="1" arrows="1" fold="1" page="1" pageScale="1" pageWidth="850" pageHeight="1100" math="0" shadow="0">
      <root>
        <mxCell id="0" />
        <mxCell id="1" parent="0" />
        <mxCell id="duGCa2K8fkzMgwlmr_aU-9" value="&lt;span style=&quot;font-weight: normal;&quot;&gt;&lt;br&gt;&lt;/span&gt;" style="rounded=0;whiteSpace=wrap;html=1;fontStyle=1;fontSize=14;" parent="1" vertex="1">
          <mxGeometry x="365" y="423" width="150" height="41" as="geometry" />
        </mxCell>
        <mxCell id="duGCa2K8fkzMgwlmr_aU-8" value="&lt;span style=&quot;font-weight: normal;&quot;&gt;&lt;br&gt;&lt;/span&gt;" style="rounded=0;whiteSpace=wrap;html=1;fontStyle=1;fontSize=14;" parent="1" vertex="1">
          <mxGeometry x="359" y="416" width="150" height="41" as="geometry" />
        </mxCell>
        <mxCell id="duGCa2K8fkzMgwlmr_aU-3" style="edgeStyle=orthogonalEdgeStyle;rounded=0;orthogonalLoop=1;jettySize=auto;html=1;entryX=0;entryY=0.5;entryDx=0;entryDy=0;endArrow=none;endFill=0;strokeWidth=2;" parent="1" source="duGCa2K8fkzMgwlmr_aU-1" target="duGCa2K8fkzMgwlmr_aU-2" edge="1">
          <mxGeometry relative="1" as="geometry">
            <Array as="points">
              <mxPoint x="160" y="295" />
            </Array>
          </mxGeometry>
        </mxCell>
        <mxCell id="duGCa2K8fkzMgwlmr_aU-1" value="MN-CSE&lt;br&gt;(onem2m)" style="rounded=0;whiteSpace=wrap;html=1;fontStyle=1;fontSize=14;" parent="1" vertex="1">
          <mxGeometry x="100" y="200" width="120" height="50" as="geometry" />
        </mxCell>
        <mxCell id="duGCa2K8fkzMgwlmr_aU-5" style="edgeStyle=orthogonalEdgeStyle;rounded=0;orthogonalLoop=1;jettySize=auto;html=1;entryX=0;entryY=0.5;entryDx=0;entryDy=0;endArrow=none;endFill=0;strokeWidth=2;" parent="1" source="duGCa2K8fkzMgwlmr_aU-2" target="duGCa2K8fkzMgwlmr_aU-4" edge="1">
          <mxGeometry relative="1" as="geometry">
            <Array as="points">
              <mxPoint x="235" y="363" />
            </Array>
          </mxGeometry>
        </mxCell>
        <mxCell id="duGCa2K8fkzMgwlmr_aU-2" value="AE&lt;br&gt;(lightbulb&lt;span style=&quot;background-color: initial;&quot;&gt;)&lt;/span&gt;" style="rounded=0;whiteSpace=wrap;html=1;fontStyle=1;fontSize=14;" parent="1" vertex="1">
          <mxGeometry x="175" y="269" width="120" height="51" as="geometry" />
        </mxCell>
        <mxCell id="duGCa2K8fkzMgwlmr_aU-7" style="edgeStyle=orthogonalEdgeStyle;rounded=0;orthogonalLoop=1;jettySize=auto;html=1;entryX=0;entryY=0.5;entryDx=0;entryDy=0;endArrow=none;endFill=0;strokeWidth=2;" parent="1" source="duGCa2K8fkzMgwlmr_aU-4" target="duGCa2K8fkzMgwlmr_aU-6" edge="1">
          <mxGeometry relative="1" as="geometry" />
        </mxCell>
        <mxCell id="duGCa2K8fkzMgwlmr_aU-4" value="&lt;span style=&quot;font-weight: normal;&quot;&gt;&lt;i&gt;container&lt;br&gt;(state)&lt;/i&gt;&lt;br&gt;&lt;/span&gt;" style="rounded=0;whiteSpace=wrap;html=1;fontStyle=1;fontSize=14;" parent="1" vertex="1">
          <mxGeometry x="251" y="338" width="150" height="51" as="geometry" />
        </mxCell>
        <mxCell id="duGCa2K8fkzMgwlmr_aU-6" value="&lt;span style=&quot;font-weight: normal;&quot;&gt;&lt;i&gt;content instance&lt;/i&gt;&lt;br&gt;&lt;/span&gt;" style="rounded=0;whiteSpace=wrap;html=1;fontStyle=1;fontSize=14;" parent="1" vertex="1">
          <mxGeometry x="353" y="409" width="150" height="41" as="geometry" />
        </mxCell>
        <mxCell id="duGCa2K8fkzMgwlmr_aU-10" value="&lt;span style=&quot;font-weight: normal;&quot;&gt;&lt;br&gt;&lt;/span&gt;" style="rounded=0;whiteSpace=wrap;html=1;fontStyle=1;fontSize=14;" parent="1" vertex="1">
          <mxGeometry x="371" y="492" width="150" height="41" as="geometry" />
        </mxCell>
        <mxCell id="duGCa2K8fkzMgwlmr_aU-11" value="&lt;span style=&quot;font-weight: normal;&quot;&gt;&lt;br&gt;&lt;/span&gt;" style="rounded=0;whiteSpace=wrap;html=1;fontStyle=1;fontSize=14;" parent="1" vertex="1">
          <mxGeometry x="365" y="485" width="150" height="41" as="geometry" />
        </mxCell>
        <mxCell id="duGCa2K8fkzMgwlmr_aU-13" style="edgeStyle=orthogonalEdgeStyle;rounded=0;orthogonalLoop=1;jettySize=auto;html=1;entryX=0.5;entryY=1;entryDx=0;entryDy=0;strokeWidth=2;endArrow=none;endFill=0;" parent="1" source="duGCa2K8fkzMgwlmr_aU-12" target="duGCa2K8fkzMgwlmr_aU-4" edge="1">
          <mxGeometry relative="1" as="geometry">
            <Array as="points">
              <mxPoint x="326" y="499" />
            </Array>
          </mxGeometry>
        </mxCell>
        <mxCell id="duGCa2K8fkzMgwlmr_aU-12" value="&lt;span style=&quot;font-weight: 400;&quot;&gt;&lt;i&gt;subscription&lt;/i&gt;&lt;/span&gt;" style="rounded=0;whiteSpace=wrap;html=1;fontStyle=1;fontSize=14;" parent="1" vertex="1">
          <mxGeometry x="359" y="478" width="150" height="41" as="geometry" />
        </mxCell>
        <mxCell id="0xkhkvr9PVQWn-gC7OFX-1" value="&lt;div style=&quot;font-size: 14px;&quot;&gt;&lt;span style=&quot;background-color: initial;&quot;&gt;{ &quot;state&quot;: &quot;off&quot;&amp;nbsp;&lt;/span&gt;&lt;span style=&quot;background-color: initial;&quot;&gt;}&lt;/span&gt;&lt;/div&gt;" style="text;html=1;align=left;verticalAlign=middle;resizable=0;points=[];autosize=1;strokeColor=none;fillColor=none;perimeterSpacing=3;" parent="1" vertex="1">
          <mxGeometry x="587" y="423" width="110" height="30" as="geometry" />
        </mxCell>
        <mxCell id="H3DekQK3EVXvsY55a3Ry-1" style="rounded=0;orthogonalLoop=1;jettySize=auto;html=1;entryX=0;entryY=0.5;entryDx=0;entryDy=0;entryPerimeter=0;strokeWidth=2;endArrow=none;endFill=0;dashed=1;dashPattern=8 8;" parent="1" target="H3DekQK3EVXvsY55a3Ry-2" edge="1">
          <mxGeometry relative="1" as="geometry">
            <mxPoint x="520" y="440" as="sourcePoint" />
          </mxGeometry>
        </mxCell>
        <mxCell id="H3DekQK3EVXvsY55a3Ry-2" value="" style="strokeWidth=2;html=1;shape=mxgraph.flowchart.annotation_1;align=left;pointerEvents=1;" parent="1" vertex="1">
          <mxGeometry x="570" y="412" width="20" height="55" as="geometry" />
        </mxCell>
      </root>
    </mxGraphModel>
  </diagram>
  <diagram id="oYti4t1_WJ7u1Kk_SPIB" name="Smart Switch">
    <mxGraphModel dx="1434" dy="764" grid="1" gridSize="10" guides="1" tooltips="1" connect="1" arrows="1" fold="1" page="1" pageScale="1" pageWidth="850" pageHeight="1100" math="0" shadow="0">
      <root>
        <mxCell id="0" />
        <mxCell id="1" parent="0" />
        <mxCell id="VJ2cmBjtiLJaauE4DntJ-1" value="&lt;span style=&quot;font-weight: normal;&quot;&gt;&lt;br&gt;&lt;/span&gt;" style="rounded=0;whiteSpace=wrap;html=1;fontStyle=1;fontSize=14;" parent="1" vertex="1">
          <mxGeometry x="365" y="423" width="150" height="41" as="geometry" />
        </mxCell>
        <mxCell id="VJ2cmBjtiLJaauE4DntJ-2" value="&lt;span style=&quot;font-weight: normal;&quot;&gt;&lt;br&gt;&lt;/span&gt;" style="rounded=0;whiteSpace=wrap;html=1;fontStyle=1;fontSize=14;" parent="1" vertex="1">
          <mxGeometry x="359" y="416" width="150" height="41" as="geometry" />
        </mxCell>
        <mxCell id="VJ2cmBjtiLJaauE4DntJ-3" style="edgeStyle=orthogonalEdgeStyle;rounded=0;orthogonalLoop=1;jettySize=auto;html=1;entryX=0;entryY=0.5;entryDx=0;entryDy=0;endArrow=none;endFill=0;strokeWidth=2;" parent="1" source="VJ2cmBjtiLJaauE4DntJ-4" target="VJ2cmBjtiLJaauE4DntJ-6" edge="1">
          <mxGeometry relative="1" as="geometry">
            <Array as="points">
              <mxPoint x="160" y="295" />
            </Array>
          </mxGeometry>
        </mxCell>
        <mxCell id="VJ2cmBjtiLJaauE4DntJ-4" value="MN-CSE&lt;br&gt;(onem2m)" style="rounded=0;whiteSpace=wrap;html=1;fontStyle=1;fontSize=14;" parent="1" vertex="1">
          <mxGeometry x="100" y="200" width="120" height="50" as="geometry" />
        </mxCell>
        <mxCell id="VJ2cmBjtiLJaauE4DntJ-5" style="edgeStyle=orthogonalEdgeStyle;rounded=0;orthogonalLoop=1;jettySize=auto;html=1;entryX=0;entryY=0.5;entryDx=0;entryDy=0;endArrow=none;endFill=0;strokeWidth=2;" parent="1" source="VJ2cmBjtiLJaauE4DntJ-6" target="VJ2cmBjtiLJaauE4DntJ-8" edge="1">
          <mxGeometry relative="1" as="geometry">
            <Array as="points">
              <mxPoint x="235" y="363" />
            </Array>
          </mxGeometry>
        </mxCell>
        <mxCell id="VJ2cmBjtiLJaauE4DntJ-6" value="AE&lt;br&gt;(switch)" style="rounded=0;whiteSpace=wrap;html=1;fontStyle=1;fontSize=14;" parent="1" vertex="1">
          <mxGeometry x="175" y="269" width="120" height="51" as="geometry" />
        </mxCell>
        <mxCell id="VJ2cmBjtiLJaauE4DntJ-7" style="edgeStyle=orthogonalEdgeStyle;rounded=0;orthogonalLoop=1;jettySize=auto;html=1;entryX=0;entryY=0.5;entryDx=0;entryDy=0;endArrow=none;endFill=0;strokeWidth=2;" parent="1" source="VJ2cmBjtiLJaauE4DntJ-8" target="VJ2cmBjtiLJaauE4DntJ-9" edge="1">
          <mxGeometry relative="1" as="geometry" />
        </mxCell>
        <mxCell id="VJ2cmBjtiLJaauE4DntJ-8" value="&lt;span style=&quot;font-weight: normal;&quot;&gt;&lt;i&gt;container&lt;br&gt;(state)&lt;/i&gt;&lt;br&gt;&lt;/span&gt;" style="rounded=0;whiteSpace=wrap;html=1;fontStyle=1;fontSize=14;" parent="1" vertex="1">
          <mxGeometry x="251" y="338" width="150" height="51" as="geometry" />
        </mxCell>
        <mxCell id="VJ2cmBjtiLJaauE4DntJ-9" value="&lt;span style=&quot;font-weight: normal;&quot;&gt;&lt;i&gt;content instance&lt;/i&gt;&lt;br&gt;&lt;/span&gt;" style="rounded=0;whiteSpace=wrap;html=1;fontStyle=1;fontSize=14;" parent="1" vertex="1">
          <mxGeometry x="353" y="409" width="150" height="41" as="geometry" />
        </mxCell>
        <mxCell id="uKnKIo3vOqs7M7CkG9Gz-1" value="&lt;div style=&quot;font-size: 14px;&quot;&gt;{ &quot;&lt;span style=&quot;border-color: var(--border-color);&quot;&gt;controlledLight&quot;&lt;/span&gt;&lt;span style=&quot;border-color: var(--border-color); background-color: initial;&quot;&gt;: &quot;10.79.12.253&quot;&lt;/span&gt;&lt;span style=&quot;background-color: initial;&quot;&gt;&amp;nbsp;&lt;/span&gt;&lt;span style=&quot;background-color: initial;&quot;&gt;}&lt;/span&gt;&lt;/div&gt;" style="text;html=1;align=left;verticalAlign=middle;resizable=0;points=[];autosize=1;strokeColor=none;fillColor=none;perimeterSpacing=3;" parent="1" vertex="1">
          <mxGeometry x="587" y="423" width="240" height="30" as="geometry" />
        </mxCell>
        <mxCell id="uKnKIo3vOqs7M7CkG9Gz-2" style="rounded=0;orthogonalLoop=1;jettySize=auto;html=1;entryX=0;entryY=0.5;entryDx=0;entryDy=0;entryPerimeter=0;strokeWidth=2;endArrow=none;endFill=0;dashed=1;dashPattern=8 8;" parent="1" target="uKnKIo3vOqs7M7CkG9Gz-3" edge="1">
          <mxGeometry relative="1" as="geometry">
            <mxPoint x="520" y="440" as="sourcePoint" />
          </mxGeometry>
        </mxCell>
        <mxCell id="uKnKIo3vOqs7M7CkG9Gz-3" value="" style="strokeWidth=2;html=1;shape=mxgraph.flowchart.annotation_1;align=left;pointerEvents=1;" parent="1" vertex="1">
          <mxGeometry x="570" y="412" width="20" height="55" as="geometry" />
        </mxCell>
      </root>
    </mxGraphModel>
  </diagram>
</mxfile>
